<svg xmlns="http://www.w3.org/2000/svg" xmlns:xlink="http://www.w3.org/1999/xlink" viewBox="0 0 438.44 180.85"><defs><style>.cls-1{isolation:isolate;}.cls-2,.cls-3,.cls-4,.cls-5,.cls-6,.cls-7,.cls-8,.cls-9{fill-rule:evenodd;}.cls-2{fill:url(#Áåçûìÿííûé_ãðàäèåíò_213);}.cls-3,.cls-5,.cls-7,.cls-9{mix-blend-mode:multiply;opacity:0.2;}.cls-3{fill:url(#Áåçûìÿííûé_ãðàäèåíò_149);}.cls-4{fill:url(#Áåçûìÿííûé_ãðàäèåíò_258);}.cls-5{fill:url(#Áåçûìÿííûé_ãðàäèåíò_149-2);}.cls-6{fill:url(#Áåçûìÿííûé_ãðàäèåíò_215);}.cls-7{fill:url(#Áåçûìÿííûé_ãðàäèåíò_149-3);}.cls-8{fill:url(#Áåçûìÿííûé_ãðàäèåíò_215-2);}.cls-9{fill:url(#Áåçûìÿííûé_ãðàäèåíò_149-4);}</style><linearGradient id="Áåçûìÿííûé_ãðàäèåíò_213" x1="106.04" y1="180.85" x2="106.04" y2="65.57" gradientUnits="userSpaceOnUse"><stop offset="0" stop-color="#c7beff"/><stop offset="0.29" stop-color="#cbc2ff"/><stop offset="0.59" stop-color="#d8cdff"/><stop offset="0.91" stop-color="#eddfff"/><stop offset="1" stop-color="#f5e6ff"/></linearGradient><linearGradient id="Áåçûìÿííûé_ãðàäèåíò_149" x1="112.87" y1="155.45" x2="112.87" y2="106.21" gradientUnits="userSpaceOnUse"><stop offset="0" stop-color="#c77cbd"/><stop offset="1" stop-color="#974577"/></linearGradient><linearGradient id="Áåçûìÿííûé_ãðàäèåíò_258" x1="369.41" y1="141.58" x2="369.41" y2="104.17" gradientTransform="translate(0.76 -2.19) rotate(0.45)" gradientUnits="userSpaceOnUse"><stop offset="0" stop-color="#dfdaff"/><stop offset="0.33" stop-color="#e3deff"/><stop offset="0.68" stop-color="#eeebff"/><stop offset="1" stop-color="#fefdff"/></linearGradient><linearGradient id="Áåçûìÿííûé_ãðàäèåíò_149-2" x1="369.61" y1="140.77" x2="368.57" y2="127.62" gradientTransform="translate(0.76 -2.19) rotate(0.45)" xlink:href="#Áåçûìÿííûé_ãðàäèåíò_149"/><linearGradient id="Áåçûìÿííûé_ãðàäèåíò_215" x1="34.19" y1="-8.06" x2="34.19" y2="-53.43" gradientTransform="translate(6.01 57.11) rotate(-13.19)" gradientUnits="userSpaceOnUse"><stop offset="0" stop-color="#d0c8ff"/><stop offset="0.32" stop-color="#d4cbff"/><stop offset="0.66" stop-color="#e1d6ff"/><stop offset="1" stop-color="#f5e6ff"/></linearGradient><linearGradient id="Áåçûìÿííûé_ãðàäèåíò_149-3" x1="35.73" y1="34.21" x2="35.73" y2="19.48" xlink:href="#Áåçûìÿííûé_ãðàäèåíò_149"/><linearGradient id="Áåçûìÿííûé_ãðàäèåíò_215-2" x1="278.45" y1="109.98" x2="278.45" y2="75.35" xlink:href="#Áåçûìÿííûé_ãðàäèåíò_215"/><linearGradient id="Áåçûìÿííûé_ãðàäèåíò_149-4" x1="300.88" y1="95.13" x2="300.88" y2="83.89" xlink:href="#Áåçûìÿííûé_ãðàäèåíò_149"/></defs><g class="cls-1"><g id="Layer_2" data-name="Layer 2"><g id="canyon"><path class="cls-2" d="M208.66,150.08c-12.22,26.17-37.84,30.59-39,30.77.83-.26,14.18-4.6,20.11-17.22,1.28-2.72.78-5.5-1.18-8.24-7.46-10.43-36-20.36-68.87-24.56-38.69-4.93-63.48-1.1-73.19-.29a37.29,37.29,0,0,1-11-1.24c-1.76-.42-2.92-.79-2.92-.79s-20-7.13-22-15.77,2-10.32,2-10.32-14.5-19.32-2-29.32c0,0-4.34-.5-10.66,2,.39-.28,15.41-10.76,52.16-7.15,37.25,3.66,51.75,27.85,51.75,27.85s0-3.41,3-4.05,14.93,10,22.84,23.05c-.86-1.7-19-38-6.44-46.85C136.15,58.86,159,77.87,166,91c-.18-.69-3.15-11.75-6.29-17.33.47.51,8,9,11.77,23.4,0,0,.23-17.64,12.59-19.86S221.16,123.32,208.66,150.08Z"/><path class="cls-3" d="M190.16,155.45l-1.56-.06c-7.46-10.43-36-20.36-68.87-24.56-38.69-4.93-63.48-1.1-73.19-.29a37.29,37.29,0,0,1-11-1.24c.18-3.91,1.89-8.57,8.09-11.44,12.2-5.65,51.87.24,51.87.24L80.87,109s23.82-9.14,48.91,5.89l-13.55,3s31,3.62,52,14.65S190.16,155.45,190.16,155.45Z"/><path class="cls-4" d="M438.44,136.53s-90.38,0-138.67,5.2a3.37,3.37,0,0,1,0-.57c.06-2.06,1.7-8.95,21.77-7.24,0,0-2.71-2-1.78-3.82s8.23-1,8.23-1-10.37-10.63-2.77-17.35,35.63-3.4,48.14,1.72c-2-.89-15.25-6.66-26.42-8.78,0,0,29.05-1.71,56,27.41,0,0-.73-6.12,4.44-8.67,4.58-2.26,15.53,9.22,18,11.86l.49.53a6.32,6.32,0,0,1,.51-.44C427.9,134.16,432.92,131.07,438.44,136.53Z"/><path class="cls-5" d="M438.44,136.53s-90.38,0-138.67,5.2a3.37,3.37,0,0,1,0-.57c4.08-2.4,11.86-5.22,25.21-4.26l13.26-1.4L333.47,133s23.29-6.05,45.86-4,27,4.54,27,4.54l19,1.78,1,.09Z"/><path class="cls-6" d="M3,25.09a204.64,204.64,0,0,1,65.46,9.12s-8.81-5.5-19.82-12.33c0,0-15.76-23.78-33.1-21.76C.12,1.92,7.16,20.18,7.16,20.18S2.05,18.47.49,19.86C-1.46,21.6,3,25.09,3,25.09Z"/><path class="cls-7" d="M3,25.09a31.28,31.28,0,0,1,13-5.16C26,18.74,37.69,23,37.69,23l-1.8-3.53S56,25.4,68.46,34.21C68.46,34.21,40.58,24.34,3,25.09Z"/><path class="cls-8" d="M275.9,88.17a156.3,156.3,0,0,1,50,7s-6.72-4.2-15.13-9.41c0,0-12-18.15-25.26-16.61-11.78,1.37-6.4,15.32-6.4,15.32s-3.9-1.31-5.09-.25C272.49,85.51,275.9,88.17,275.9,88.17Z"/><path class="cls-9" d="M275.9,88.17a23.78,23.78,0,0,1,9.93-3.93c7.6-.91,16.54,2.34,16.54,2.34L301,83.89s15.35,4.52,24.86,11.24C325.86,95.13,304.58,87.6,275.9,88.17Z"/></g></g></g></svg>