<svg xmlns="http://www.w3.org/2000/svg" xmlns:xlink="http://www.w3.org/1999/xlink" viewBox="0 0 800 400"><defs><style>.cls-1{isolation:isolate;}.cls-10,.cls-100,.cls-101,.cls-102,.cls-103,.cls-104,.cls-105,.cls-106,.cls-107,.cls-108,.cls-109,.cls-11,.cls-110,.cls-111,.cls-112,.cls-113,.cls-114,.cls-115,.cls-116,.cls-117,.cls-118,.cls-119,.cls-12,.cls-120,.cls-121,.cls-122,.cls-123,.cls-124,.cls-125,.cls-126,.cls-127,.cls-128,.cls-129,.cls-13,.cls-130,.cls-131,.cls-132,.cls-133,.cls-134,.cls-135,.cls-136,.cls-137,.cls-138,.cls-139,.cls-14,.cls-140,.cls-141,.cls-142,.cls-143,.cls-144,.cls-145,.cls-146,.cls-147,.cls-148,.cls-15,.cls-16,.cls-17,.cls-18,.cls-19,.cls-2,.cls-20,.cls-21,.cls-22,.cls-23,.cls-24,.cls-25,.cls-26,.cls-27,.cls-28,.cls-29,.cls-3,.cls-30,.cls-31,.cls-32,.cls-33,.cls-34,.cls-35,.cls-36,.cls-37,.cls-38,.cls-39,.cls-4,.cls-40,.cls-41,.cls-42,.cls-43,.cls-44,.cls-45,.cls-46,.cls-47,.cls-48,.cls-49,.cls-5,.cls-50,.cls-51,.cls-52,.cls-53,.cls-54,.cls-55,.cls-56,.cls-57,.cls-58,.cls-59,.cls-6,.cls-60,.cls-61,.cls-62,.cls-63,.cls-64,.cls-65,.cls-66,.cls-67,.cls-68,.cls-69,.cls-7,.cls-70,.cls-71,.cls-72,.cls-73,.cls-74,.cls-75,.cls-76,.cls-77,.cls-78,.cls-79,.cls-8,.cls-80,.cls-81,.cls-82,.cls-83,.cls-84,.cls-85,.cls-86,.cls-87,.cls-88,.cls-89,.cls-9,.cls-90,.cls-91,.cls-92,.cls-93,.cls-94,.cls-95,.cls-96,.cls-97,.cls-98,.cls-99{fill-rule:evenodd;}.cls-2{fill:url(#Áåçûìÿííûé_ãðàäèåíò_265);}.cls-10,.cls-100,.cls-101,.cls-102,.cls-103,.cls-104,.cls-106,.cls-107,.cls-108,.cls-109,.cls-11,.cls-112,.cls-12,.cls-121,.cls-122,.cls-123,.cls-124,.cls-125,.cls-126,.cls-127,.cls-128,.cls-130,.cls-133,.cls-136,.cls-140,.cls-141,.cls-142,.cls-145,.cls-146,.cls-147,.cls-148,.cls-15,.cls-16,.cls-17,.cls-18,.cls-19,.cls-20,.cls-21,.cls-25,.cls-26,.cls-27,.cls-28,.cls-29,.cls-3,.cls-33,.cls-34,.cls-35,.cls-36,.cls-37,.cls-38,.cls-39,.cls-4,.cls-40,.cls-41,.cls-47,.cls-48,.cls-5,.cls-52,.cls-53,.cls-54,.cls-55,.cls-56,.cls-57,.cls-58,.cls-71,.cls-74,.cls-75,.cls-76,.cls-77,.cls-78,.cls-79,.cls-8,.cls-80,.cls-82,.cls-84,.cls-85,.cls-88,.cls-90,.cls-91,.cls-92,.cls-93,.cls-94,.cls-95,.cls-96,.cls-97,.cls-98,.cls-99{mix-blend-mode:multiply;}.cls-119,.cls-121,.cls-122,.cls-124,.cls-126,.cls-127,.cls-25,.cls-26,.cls-27,.cls-28,.cls-29,.cls-3,.cls-4,.cls-42,.cls-5,.cls-8{opacity:0.3;}.cls-3{fill:url(#Áåçûìÿííûé_ãðàäèåíò_159);}.cls-4{fill:url(#Áåçûìÿííûé_ãðàäèåíò_159-2);}.cls-5{fill:url(#Áåçûìÿííûé_ãðàäèåíò_159-3);}.cls-6{fill:url(#Áåçûìÿííûé_ãðàäèåíò_227);}.cls-7{fill:#ffffc7;}.cls-22,.cls-59,.cls-65,.cls-7{mix-blend-mode:soft-light;}.cls-10,.cls-100,.cls-101,.cls-102,.cls-103,.cls-107,.cls-108,.cls-11,.cls-112,.cls-117,.cls-12,.cls-123,.cls-125,.cls-13,.cls-133,.cls-136,.cls-14,.cls-140,.cls-141,.cls-142,.cls-144,.cls-15,.cls-16,.cls-17,.cls-18,.cls-19,.cls-20,.cls-21,.cls-33,.cls-34,.cls-35,.cls-36,.cls-37,.cls-38,.cls-39,.cls-40,.cls-41,.cls-47,.cls-48,.cls-56,.cls-57,.cls-58,.cls-60,.cls-7,.cls-71,.cls-72,.cls-73,.cls-75,.cls-76,.cls-78,.cls-79,.cls-80,.cls-81,.cls-82,.cls-83,.cls-84,.cls-85,.cls-88,.cls-93,.cls-96,.cls-97,.cls-98,.cls-99{opacity:0.5;}.cls-8{fill:url(#Áåçûìÿííûé_ãðàäèåíò_159-4);}.cls-9{fill:url(#Áåçûìÿííûé_ãðàäèåíò_120);}.cls-10{fill:url(#Áåçûìÿííûé_ãðàäèåíò_149);}.cls-11{fill:url(#Áåçûìÿííûé_ãðàäèåíò_149-2);}.cls-12{fill:url(#Áåçûìÿííûé_ãðàäèåíò_149-3);}.cls-13{fill:#ff862f;}.cls-14,.cls-64,.cls-65{fill:#ffa768;}.cls-15{fill:url(#Áåçûìÿííûé_ãðàäèåíò_149-4);}.cls-16{fill:url(#Áåçûìÿííûé_ãðàäèåíò_149-5);}.cls-17{fill:url(#Áåçûìÿííûé_ãðàäèåíò_149-6);}.cls-18{fill:url(#Áåçûìÿííûé_ãðàäèåíò_149-7);}.cls-19{fill:url(#Áåçûìÿííûé_ãðàäèåíò_149-8);}.cls-20{fill:url(#Áåçûìÿííûé_ãðàäèåíò_149-9);}.cls-21{fill:url(#Áåçûìÿííûé_ãðàäèåíò_149-10);}.cls-22{fill:#c69a3f;}.cls-23{fill:#ff8e16;}.cls-24{fill:url(#Áåçûìÿííûé_ãðàäèåíò_227-2);}.cls-25{fill:url(#Áåçûìÿííûé_ãðàäèåíò_159-5);}.cls-26{fill:url(#Áåçûìÿííûé_ãðàäèåíò_159-6);}.cls-27{fill:url(#Áåçûìÿííûé_ãðàäèåíò_159-7);}.cls-28{fill:url(#Áåçûìÿííûé_ãðàäèåíò_159-8);}.cls-29{fill:url(#Áåçûìÿííûé_ãðàäèåíò_159-9);}.cls-30{fill:url(#Áåçûìÿííûé_ãðàäèåíò_223);}.cls-31{fill:url(#Áåçûìÿííûé_ãðàäèåíò_125);}.cls-32{fill:url(#Áåçûìÿííûé_ãðàäèåíò_112);}.cls-33{fill:url(#Áåçûìÿííûé_ãðàäèåíò_149-11);}.cls-34{fill:url(#Áåçûìÿííûé_ãðàäèåíò_149-12);}.cls-35{fill:url(#Áåçûìÿííûé_ãðàäèåíò_149-13);}.cls-36{fill:url(#Áåçûìÿííûé_ãðàäèåíò_149-14);}.cls-37{fill:url(#Áåçûìÿííûé_ãðàäèåíò_149-15);}.cls-38{fill:url(#Áåçûìÿííûé_ãðàäèåíò_149-16);}.cls-39{fill:url(#Áåçûìÿííûé_ãðàäèåíò_149-17);}.cls-40{fill:url(#Áåçûìÿííûé_ãðàäèåíò_149-18);}.cls-41{fill:url(#Áåçûìÿííûé_ãðàäèåíò_149-19);}.cls-42{fill:#ff5e31;}.cls-43,.cls-72{fill:#ff8b4a;}.cls-105,.cls-110,.cls-111,.cls-118,.cls-137,.cls-145,.cls-146,.cls-147,.cls-148,.cls-43,.cls-44,.cls-45,.cls-46,.cls-49,.cls-50,.cls-51,.cls-61,.cls-69,.cls-70,.cls-94{opacity:0.2;}.cls-44{fill:#ff4816;}.cls-45{fill:#ff632f;}.cls-46{fill:#81462f;}.cls-47{fill:url(#Áåçûìÿííûé_ãðàäèåíò_149-20);}.cls-48{fill:url(#Áåçûìÿííûé_ãðàäèåíò_149-21);}.cls-49{fill:#b33a4a;}.cls-50{fill:#ff4627;}.cls-51{fill:#ff3810;}.cls-106,.cls-109,.cls-52,.cls-53,.cls-74,.cls-77,.cls-90,.cls-91,.cls-92,.cls-95{opacity:0.76;}.cls-52{fill:url(#Áåçûìÿííûé_ãðàäèåíò_149-22);}.cls-53{fill:url(#Áåçûìÿííûé_ãðàäèåíò_149-23);}.cls-54,.cls-55{opacity:0.8;}.cls-54{fill:url(#Áåçûìÿííûé_ãðàäèåíò_149-24);}.cls-55{fill:url(#Áåçûìÿííûé_ãðàäèåíò_149-25);}.cls-56{fill:url(#Áåçûìÿííûé_ãðàäèåíò_149-26);}.cls-57{fill:url(#Áåçûìÿííûé_ãðàäèåíò_149-27);}.cls-58{fill:url(#Áåçûìÿííûé_ãðàäèåíò_149-28);}.cls-59{fill:#bc833f;}.cls-60,.cls-61,.cls-62,.cls-67{fill:#ef3c16;}.cls-62{opacity:0.83;}.cls-63{fill:#d83c16;}.cls-66{fill:#ef4b16;}.cls-68{fill:url(#Áåçûìÿííûé_ãðàäèåíò_143);}.cls-69,.cls-83{fill:#ff723e;}.cls-70{fill:#ff722a;}.cls-71{fill:url(#Áåçûìÿííûé_ãðàäèåíò_149-29);}.cls-73{fill:#ff722d;}.cls-74{fill:url(#Áåçûìÿííûé_ãðàäèåíò_149-30);}.cls-75{fill:url(#Áåçûìÿííûé_ãðàäèåíò_149-31);}.cls-76{fill:url(#Áåçûìÿííûé_ãðàäèåíò_149-32);}.cls-77{fill:url(#Áåçûìÿííûé_ãðàäèåíò_149-33);}.cls-78{fill:url(#Áåçûìÿííûé_ãðàäèåíò_149-34);}.cls-79{fill:url(#Áåçûìÿííûé_ãðàäèåíò_149-35);}.cls-80{fill:url(#Áåçûìÿííûé_ãðàäèåíò_149-36);}.cls-81{fill:#ff682f;}.cls-82{fill:url(#Áåçûìÿííûé_ãðàäèåíò_149-37);}.cls-84{fill:url(#Áåçûìÿííûé_ãðàäèåíò_149-38);}.cls-85{fill:url(#Áåçûìÿííûé_ãðàäèåíò_149-39);}.cls-86{fill:url(#Áåçûìÿííûé_ãðàäèåíò_133);}.cls-87{fill:url(#Áåçûìÿííûé_ãðàäèåíò_133-2);}.cls-88{fill:url(#Áåçûìÿííûé_ãðàäèåíò_149-40);}.cls-89{fill:url(#Áåçûìÿííûé_ãðàäèåíò_134);}.cls-90{fill:url(#Áåçûìÿííûé_ãðàäèåíò_149-41);}.cls-91{fill:url(#Áåçûìÿííûé_ãðàäèåíò_149-42);}.cls-92{fill:url(#Áåçûìÿííûé_ãðàäèåíò_149-43);}.cls-93{fill:url(#Áåçûìÿííûé_ãðàäèåíò_149-44);}.cls-94{fill:url(#Áåçûìÿííûé_ãðàäèåíò_159-10);}.cls-95{fill:url(#Áåçûìÿííûé_ãðàäèåíò_149-45);}.cls-96{fill:url(#Áåçûìÿííûé_ãðàäèåíò_149-46);}.cls-97{fill:url(#Áåçûìÿííûé_ãðàäèåíò_149-47);}.cls-98{fill:url(#Áåçûìÿííûé_ãðàäèåíò_149-48);}.cls-99{fill:url(#Áåçûìÿííûé_ãðàäèåíò_149-49);}.cls-100{fill:url(#Áåçûìÿííûé_ãðàäèåíò_149-50);}.cls-101{fill:url(#Áåçûìÿííûé_ãðàäèåíò_149-51);}.cls-102{fill:url(#Áåçûìÿííûé_ãðàäèåíò_149-52);}.cls-103{fill:url(#Áåçûìÿííûé_ãðàäèåíò_149-53);}.cls-104{fill:url(#Áåçûìÿííûé_ãðàäèåíò_149-54);}.cls-105{fill:#ff4824;}.cls-106{fill:url(#Áåçûìÿííûé_ãðàäèåíò_149-55);}.cls-107{fill:url(#Áåçûìÿííûé_ãðàäèåíò_149-56);}.cls-108{fill:url(#Áåçûìÿííûé_ãðàäèåíò_149-57);}.cls-109{fill:url(#Áåçûìÿííûé_ãðàäèåíò_149-58);}.cls-110{fill:#ffa44a;}.cls-111{fill:#ff5e00;}.cls-112{fill:url(#Áåçûìÿííûé_ãðàäèåíò_149-59);}.cls-113,.cls-114{fill:#d62d16;}.cls-114,.cls-115{opacity:0.81;}.cls-115,.cls-116,.cls-117,.cls-118,.cls-119{fill:#ef4916;}.cls-120{fill:url(#Áåçûìÿííûé_ãðàäèåíò_120-2);}.cls-121{fill:url(#Áåçûìÿííûé_ãðàäèåíò_149-60);}.cls-122{fill:url(#Áåçûìÿííûé_ãðàäèåíò_149-61);}.cls-123{fill:url(#Áåçûìÿííûé_ãðàäèåíò_149-62);}.cls-124{fill:url(#Áåçûìÿííûé_ãðàäèåíò_159-11);}.cls-125{fill:url(#Áåçûìÿííûé_ãðàäèåíò_149-63);}.cls-126{fill:url(#Áåçûìÿííûé_ãðàäèåíò_149-64);}.cls-127{fill:url(#Áåçûìÿííûé_ãðàäèåíò_149-65);}.cls-128{fill:url(#Áåçûìÿííûé_ãðàäèåíò_149-66);}.cls-129{fill:url(#Áåçûìÿííûé_ãðàäèåíò_78);}.cls-130{fill:url(#Áåçûìÿííûé_ãðàäèåíò_149-67);}.cls-131{fill:url(#Áåçûìÿííûé_ãðàäèåíò_179);}.cls-132{fill:#912a07;}.cls-133{fill:url(#Áåçûìÿííûé_ãðàäèåíò_149-68);}.cls-134{fill:#811807;}.cls-135{fill:url(#Áåçûìÿííûé_ãðàäèåíò_175);}.cls-136{fill:url(#Áåçûìÿííûé_ãðàäèåíò_149-69);}.cls-137{fill:#de6b40;}.cls-138{fill:url(#Áåçûìÿííûé_ãðàäèåíò_185);}.cls-139{fill:#a93607;}.cls-140{fill:url(#Áåçûìÿííûé_ãðàäèåíò_149-70);}.cls-141{fill:url(#Áåçûìÿííûé_ãðàäèåíò_149-71);}.cls-142{fill:url(#Áåçûìÿííûé_ãðàäèåíò_149-72);}.cls-143{fill:url(#Áåçûìÿííûé_ãðàäèåíò_185-2);}.cls-144{fill:#ffcd97;}.cls-145{fill:url(#Áåçûìÿííûé_ãðàäèåíò_149-73);}.cls-146{fill:url(#Áåçûìÿííûé_ãðàäèåíò_149-74);}.cls-147{fill:url(#Áåçûìÿííûé_ãðàäèåíò_149-75);}.cls-148{fill:url(#Áåçûìÿííûé_ãðàäèåíò_149-76);}</style><linearGradient id="Áåçûìÿííûé_ãðàäèåíò_265" x1="389.92" y1="340.63" x2="389.92" y2="224.57" gradientUnits="userSpaceOnUse"><stop offset="0" stop-color="#c5b8cf"/><stop offset="1" stop-color="#ff888e"/></linearGradient><linearGradient id="Áåçûìÿííûé_ãðàäèåíò_159" x1="388.98" y1="340.39" x2="388.98" y2="261.72" gradientUnits="userSpaceOnUse"><stop offset="0" stop-color="#974577"/><stop offset="1" stop-color="#c77cbd"/></linearGradient><linearGradient id="Áåçûìÿííûé_ãðàäèåíò_159-2" x1="404.98" y1="324.98" x2="404.98" y2="282.05" xlink:href="#Áåçûìÿííûé_ãðàäèåíò_159"/><linearGradient id="Áåçûìÿííûé_ãðàäèåíò_159-3" x1="366.64" y1="338.86" x2="366.64" y2="224.57" xlink:href="#Áåçûìÿííûé_ãðàäèåíò_159"/><linearGradient id="Áåçûìÿííûé_ãðàäèåíò_227" x1="446.03" y1="348.5" x2="446.03" y2="220.56" gradientUnits="userSpaceOnUse"><stop offset="0" stop-color="#ec9098"/><stop offset="1" stop-color="#ff883c"/></linearGradient><linearGradient id="Áåçûìÿííûé_ãðàäèåíò_159-4" x1="441.11" y1="347.42" x2="441.11" y2="238.12" xlink:href="#Áåçûìÿííûé_ãðàäèåíò_159"/><linearGradient id="Áåçûìÿííûé_ãðàäèåíò_120" x1="539.32" y1="368.75" x2="539.32" y2="129.25" gradientUnits="userSpaceOnUse"><stop offset="0" stop-color="#ec5917"/><stop offset="1" stop-color="#ff883c"/></linearGradient><linearGradient id="Áåçûìÿííûé_ãðàäèåíò_149" x1="571.57" y1="365.78" x2="571.57" y2="129.25" gradientUnits="userSpaceOnUse"><stop offset="0" stop-color="#c77cbd"/><stop offset="1" stop-color="#974577"/></linearGradient><linearGradient id="Áåçûìÿííûé_ãðàäèåíò_149-2" x1="487.34" y1="359.25" x2="487.34" y2="178.43" xlink:href="#Áåçûìÿííûé_ãðàäèåíò_149"/><linearGradient id="Áåçûìÿííûé_ãðàäèåíò_149-3" x1="518.67" y1="278.25" x2="518.67" y2="233.38" xlink:href="#Áåçûìÿííûé_ãðàäèåíò_149"/><linearGradient id="Áåçûìÿííûé_ãðàäèåíò_149-4" x1="531.56" y1="243.12" x2="553.14" y2="243.12" xlink:href="#Áåçûìÿííûé_ãðàäèåíò_149"/><linearGradient id="Áåçûìÿííûé_ãðàäèåíò_149-5" x1="572.5" y1="205.98" x2="590.52" y2="205.98" xlink:href="#Áåçûìÿííûé_ãðàäèåíò_149"/><linearGradient id="Áåçûìÿííûé_ãðàäèåíò_149-6" x1="512.94" y1="202.99" x2="523.52" y2="202.99" xlink:href="#Áåçûìÿííûé_ãðàäèåíò_149"/><linearGradient id="Áåçûìÿííûé_ãðàäèåíò_149-7" x1="484.57" y1="313" x2="546" y2="313" xlink:href="#Áåçûìÿííûé_ãðàäèåíò_149"/><linearGradient id="Áåçûìÿííûé_ãðàäèåíò_149-8" x1="546" y1="302.33" x2="559.7" y2="302.33" xlink:href="#Áåçûìÿííûé_ãðàäèåíò_149"/><linearGradient id="Áåçûìÿííûé_ãðàäèåíò_149-9" x1="497.35" y1="317.76" x2="521.5" y2="317.76" xlink:href="#Áåçûìÿííûé_ãðàäèåíò_149"/><linearGradient id="Áåçûìÿííûé_ãðàäèåíò_149-10" x1="543.75" y1="193.08" x2="575.16" y2="193.08" xlink:href="#Áåçûìÿííûé_ãðàäèåíò_149"/><linearGradient id="Áåçûìÿííûé_ãðàäèåíò_227-2" x1="332.32" y1="347.25" x2="332.32" y2="152.25" xlink:href="#Áåçûìÿííûé_ãðàäèåíò_227"/><linearGradient id="Áåçûìÿííûé_ãðàäèåíò_159-5" x1="330.08" y1="347.25" x2="330.08" y2="152.25" xlink:href="#Áåçûìÿííûé_ãðàäèåíò_159"/><linearGradient id="Áåçûìÿííûé_ãðàäèåíò_159-6" x1="342.28" y1="274.31" x2="342.28" y2="178.43" xlink:href="#Áåçûìÿííûé_ãðàäèåíò_159"/><linearGradient id="Áåçûìÿííûé_ãðàäèåíò_159-7" x1="309.76" y1="202.97" x2="309.76" y2="152.25" xlink:href="#Áåçûìÿííûé_ãðàäèåíò_159"/><linearGradient id="Áåçûìÿííûé_ãðàäèåíò_159-8" x1="330.11" y1="288.01" x2="330.11" y2="242.67" xlink:href="#Áåçûìÿííûé_ãðàäèåíò_159"/><linearGradient id="Áåçûìÿííûé_ãðàäèåíò_159-9" x1="337.55" y1="313" x2="337.55" y2="301.75" xlink:href="#Áåçûìÿííûé_ãðàäèåíò_159"/><linearGradient id="Áåçûìÿííûé_ãðàäèåíò_223" x1="690.25" y1="400" x2="690.25" gradientUnits="userSpaceOnUse"><stop offset="0.01" stop-color="#3c000e"/><stop offset="1" stop-color="#4a000c"/></linearGradient><linearGradient id="Áåçûìÿííûé_ãðàäèåíò_125" x1="616.98" y1="400" x2="616.98" y2="82.33" gradientUnits="userSpaceOnUse"><stop offset="0" stop-color="#ff883c"/><stop offset="1" stop-color="#ec5917"/></linearGradient><linearGradient id="Áåçûìÿííûé_ãðàäèåíò_112" x1="649.34" y1="367.75" x2="649.34" y2="20.33" gradientUnits="userSpaceOnUse"><stop offset="0" stop-color="#9d2721"/><stop offset="1" stop-color="#bd4725"/></linearGradient><linearGradient id="Áåçûìÿííûé_ãðàäèåíò_149-11" x1="658.14" y1="390.45" x2="658.14" y2="137" xlink:href="#Áåçûìÿííûé_ãðàäèåíò_149"/><linearGradient id="Áåçûìÿííûé_ãðàäèåíò_149-12" x1="723.93" y1="394.44" x2="723.93" y2="127" xlink:href="#Áåçûìÿííûé_ãðàäèåíò_149"/><linearGradient id="Áåçûìÿííûé_ãðàäèåíò_149-13" x1="728.77" y1="161" x2="728.77" y2="10.33" xlink:href="#Áåçûìÿííûé_ãðàäèåíò_149"/><linearGradient id="Áåçûìÿííûé_ãðàäèåíò_149-14" x1="782.9" y1="396.82" x2="782.9" y2="0" xlink:href="#Áåçûìÿííûé_ãðàäèåíò_149"/><linearGradient id="Áåçûìÿííûé_ãðàäèåíò_149-15" x1="661.19" y1="297.54" x2="661.19" y2="20.33" xlink:href="#Áåçûìÿííûé_ãðàäèåíò_149"/><linearGradient id="Áåçûìÿííûé_ãðàäèåíò_149-16" x1="667.87" y1="158.94" x2="667.87" y2="82.62" xlink:href="#Áåçûìÿííûé_ãðàäèåíò_149"/><linearGradient id="Áåçûìÿííûé_ãðàäèåíò_149-17" x1="636.91" y1="196.28" x2="636.91" y2="82.33" xlink:href="#Áåçûìÿííûé_ãðàäèåíò_149"/><linearGradient id="Áåçûìÿííûé_ãðàäèåíò_149-18" x1="596.8" y1="353.75" x2="596.8" y2="222.1" xlink:href="#Áåçûìÿííûé_ãðàäèåíò_149"/><linearGradient id="Áåçûìÿííûé_ãðàäèåíò_149-19" x1="676.1" y1="394.44" x2="676.1" y2="169.67" xlink:href="#Áåçûìÿííûé_ãðàäèåíò_149"/><linearGradient id="Áåçûìÿííûé_ãðàäèåíò_149-20" x1="637.74" y1="367.75" x2="637.74" y2="184" xlink:href="#Áåçûìÿííûé_ãðàäèåíò_149"/><linearGradient id="Áåçûìÿííûé_ãðàäèåíò_149-21" x1="658.41" y1="154.33" x2="658.41" y2="115.69" xlink:href="#Áåçûìÿííûé_ãðàäèåíò_149"/><linearGradient id="Áåçûìÿííûé_ãðàäèåíò_149-22" x1="744.22" y1="259.69" x2="800" y2="259.69" xlink:href="#Áåçûìÿííûé_ãðàäèåíò_149"/><linearGradient id="Áåçûìÿííûé_ãðàäèåíò_149-23" x1="738.21" y1="297.38" x2="779.53" y2="297.38" xlink:href="#Áåçûìÿííûé_ãðàäèåíò_149"/><linearGradient id="Áåçûìÿííûé_ãðàäèåíò_149-24" x1="741.84" y1="45.13" x2="772.61" y2="45.13" xlink:href="#Áåçûìÿííûé_ãðàäèåíò_149"/><linearGradient id="Áåçûìÿííûé_ãðàäèåíò_149-25" x1="743.67" y1="92.71" x2="782.61" y2="92.71" xlink:href="#Áåçûìÿííûé_ãðàäèåíò_149"/><linearGradient id="Áåçûìÿííûé_ãðàäèåíò_149-26" x1="776.8" y1="310" x2="800" y2="310" xlink:href="#Áåçûìÿííûé_ãðàäèåíò_149"/><linearGradient id="Áåçûìÿííûé_ãðàäèåíò_149-27" x1="765.81" y1="69.65" x2="790.64" y2="69.65" xlink:href="#Áåçûìÿííûé_ãðàäèåíò_149"/><linearGradient id="Áåçûìÿííûé_ãðàäèåíò_149-28" x1="720.63" y1="48.15" x2="743.01" y2="48.15" xlink:href="#Áåçûìÿííûé_ãðàäèåíò_149"/><linearGradient id="Áåçûìÿííûé_ãðàäèåíò_143" x1="166.1" y1="400" x2="166.1" gradientUnits="userSpaceOnUse"><stop offset="0" stop-color="#7f0c00"/><stop offset="1" stop-color="#db4e32"/></linearGradient><linearGradient id="Áåçûìÿííûé_ãðàäèåíò_149-29" x1="84.28" y1="384" x2="84.28" y2="0" xlink:href="#Áåçûìÿííûé_ãðàäèåíò_149"/><linearGradient id="Áåçûìÿííûé_ãðàäèåíò_149-30" x1="22.56" y1="384" x2="22.56" y2="82.33" xlink:href="#Áåçûìÿííûé_ãðàäèåíò_149"/><linearGradient id="Áåçûìÿííûé_ãðàäèåíò_149-31" x1="51.53" y1="145.29" x2="51.53" y2="0" xlink:href="#Áåçûìÿííûé_ãðàäèåíò_149"/><linearGradient id="Áåçûìÿííûé_ãðàäèåíò_149-32" x1="138.84" y1="376.14" x2="138.84" y2="0" xlink:href="#Áåçûìÿííûé_ãðàäèåíò_149"/><linearGradient id="Áåçûìÿííûé_ãðàäèåíò_149-33" x1="97.51" y1="381.72" x2="97.51" y2="161" xlink:href="#Áåçûìÿííûé_ãðàäèåíò_149"/><linearGradient id="Áåçûìÿííûé_ãðàäèåíò_149-34" x1="202.31" y1="372.44" x2="202.31" y2="14.67" xlink:href="#Áåçûìÿííûé_ãðàäèåíò_149"/><linearGradient id="Áåçûìÿííûé_ãðàäèåíò_149-35" x1="206.83" y1="248.08" x2="206.83" y2="42.5" xlink:href="#Áåçûìÿííûé_ãðàäèåíò_149"/><linearGradient id="Áåçûìÿííûé_ãðàäèåíò_149-36" x1="256.35" y1="326.68" x2="256.35" y2="127" xlink:href="#Áåçûìÿííûé_ãðàäèåíò_149"/><linearGradient id="Áåçûìÿííûé_ãðàäèåíò_149-37" x1="99.99" y1="378.32" x2="99.99" y2="290.16" xlink:href="#Áåçûìÿííûé_ãðàäèåíò_149"/><linearGradient id="Áåçûìÿííûé_ãðàäèåíò_149-38" x1="225.44" y1="340.39" x2="252.13" y2="340.39" xlink:href="#Áåçûìÿííûé_ãðàäèåíò_149"/><linearGradient id="Áåçûìÿííûé_ãðàäèåíò_149-39" x1="170.35" y1="322.07" x2="195.7" y2="322.07" xlink:href="#Áåçûìÿííûé_ãðàäèåíò_149"/><linearGradient id="Áåçûìÿííûé_ãðàäèåíò_133" x1="125.69" y1="43.67" x2="125.69" y2="25" gradientUnits="userSpaceOnUse"><stop offset="0" stop-color="#9c1610"/><stop offset="1" stop-color="#b84232"/></linearGradient><linearGradient id="Áåçûìÿííûé_ãðàäèåíò_133-2" x1="132.07" y1="72.61" x2="132.07" y2="47.61" xlink:href="#Áåçûìÿííûé_ãðàäèåíò_133"/><linearGradient id="Áåçûìÿííûé_ãðàäèåíò_149-40" x1="143.5" y1="189" x2="143.5" y2="57" xlink:href="#Áåçûìÿííûé_ãðàäèåíò_149"/><linearGradient id="Áåçûìÿííûé_ãðàäèåíò_134" x1="56.83" y1="157.71" x2="56.83" y2="138.01" gradientUnits="userSpaceOnUse"><stop offset="0" stop-color="#b84232"/><stop offset="1" stop-color="#9c1610"/></linearGradient><linearGradient id="Áåçûìÿííûé_ãðàäèåíò_149-41" x1="105.49" y1="249.33" x2="105.49" y2="245.77" xlink:href="#Áåçûìÿííûé_ãðàäèåíò_149"/><linearGradient id="Áåçûìÿííûé_ãðàäèåíò_149-42" x1="205.32" y1="335.07" x2="205.32" y2="314.9" xlink:href="#Áåçûìÿííûé_ãðàäèåíò_149"/><linearGradient id="Áåçûìÿííûé_ãðàäèåíò_149-43" x1="210.23" y1="356.62" x2="210.23" y2="347.25" xlink:href="#Áåçûìÿííûé_ãðàäèåíò_149"/><linearGradient id="Áåçûìÿííûé_ãðàäèåíò_149-44" x1="154.99" y1="268" x2="154.99" y2="197.33" xlink:href="#Áåçûìÿííûé_ãðàäèåíò_149"/><linearGradient id="Áåçûìÿííûé_ãðàäèåíò_159-10" x1="168.55" y1="246.17" x2="168.55" y2="222.1" xlink:href="#Áåçûìÿííûé_ãðàäèåíò_159"/><linearGradient id="Áåçûìÿííûé_ãðàäèåíò_149-45" x1="117.77" y1="157.47" x2="117.77" y2="57" xlink:href="#Áåçûìÿííûé_ãðàäèåíò_149"/><linearGradient id="Áåçûìÿííûé_ãðàäèåíò_149-46" x1="199.25" y1="277.52" x2="199.25" y2="228.67" xlink:href="#Áåçûìÿííûé_ãðàäèåíò_149"/><linearGradient id="Áåçûìÿííûé_ãðàäèåíò_149-47" x1="64.7" y1="38.88" x2="64.7" y2="3.73" xlink:href="#Áåçûìÿííûé_ãðàäèåíò_149"/><linearGradient id="Áåçûìÿííûé_ãðàäèåíò_149-48" x1="55.75" y1="107.24" x2="55.75" y2="0" xlink:href="#Áåçûìÿííûé_ãðàäèåíò_149"/><linearGradient id="Áåçûìÿííûé_ãðàäèåíò_149-49" x1="89.84" y1="36" x2="89.84" y2="0" xlink:href="#Áåçûìÿííûé_ãðàäèåíò_149"/><linearGradient id="Áåçûìÿííûé_ãðàäèåíò_149-50" x1="22.56" y1="384" x2="22.56" y2="175.67" xlink:href="#Áåçûìÿííûé_ãðàäèåíò_149"/><linearGradient id="Áåçûìÿííûé_ãðàäèåíò_149-51" x1="199.12" y1="165.96" x2="199.12" y2="82.33" xlink:href="#Áåçûìÿííûé_ãðàäèåíò_149"/><linearGradient id="Áåçûìÿííûé_ãðàäèåíò_149-52" x1="228.86" y1="248.08" x2="228.86" y2="191.96" xlink:href="#Áåçûìÿííûé_ãðàäèåíò_149"/><linearGradient id="Áåçûìÿííûé_ãðàäèåíò_149-53" x1="168.74" y1="151.67" x2="186.1" y2="151.67" xlink:href="#Áåçûìÿííûé_ãðàäèåíò_149"/><linearGradient id="Áåçûìÿííûé_ãðàäèåíò_149-54" x1="229.11" y1="332.25" x2="274" y2="332.25" xlink:href="#Áåçûìÿííûé_ãðàäèåíò_149"/><linearGradient id="Áåçûìÿííûé_ãðàäèåíò_149-55" x1="72.96" y1="239.67" x2="92.56" y2="239.67" xlink:href="#Áåçûìÿííûé_ãðàäèåíò_149"/><linearGradient id="Áåçûìÿííûé_ãðàäèåíò_149-56" x1="64.31" y1="381.72" x2="64.31" y2="322" xlink:href="#Áåçûìÿííûé_ãðàäèåíò_149"/><linearGradient id="Áåçûìÿííûé_ãðàäèåíò_149-57" x1="31.03" y1="382.19" x2="31.03" y2="319.67" xlink:href="#Áåçûìÿííûé_ãðàäèåíò_149"/><linearGradient id="Áåçûìÿííûé_ãðàäèåíò_149-58" x1="104.94" y1="57" x2="104.94" y2="47.61" xlink:href="#Áåçûìÿííûé_ãðàäèåíò_149"/><linearGradient id="Áåçûìÿííûé_ãðàäèåíò_149-59" x1="239.61" y1="198.04" x2="254.4" y2="198.04" xlink:href="#Áåçûìÿííûé_ãðàäèåíò_149"/><linearGradient id="Áåçûìÿííûé_ãðàäèåíò_120-2" x1="295.76" y1="351.67" x2="295.76" y2="161" xlink:href="#Áåçûìÿííûé_ãðàäèåíò_120"/><linearGradient id="Áåçûìÿííûé_ãðàäèåíò_149-60" x1="288.11" y1="233.17" x2="288.11" y2="175.75" xlink:href="#Áåçûìÿííûé_ãðàäèåíò_149"/><linearGradient id="Áåçûìÿííûé_ãðàäèåíò_149-61" x1="281.37" y1="275.5" x2="281.37" y2="230" xlink:href="#Áåçûìÿííûé_ãðàäèåíò_149"/><linearGradient id="Áåçûìÿííûé_ãðàäèåíò_149-62" x1="313.97" y1="350.62" x2="313.97" y2="198" xlink:href="#Áåçûìÿííûé_ãðàäèåíò_149"/><linearGradient id="Áåçûìÿííûé_ãðàäèåíò_159-11" x1="302.09" y1="350.62" x2="302.09" y2="303.5" xlink:href="#Áåçûìÿííûé_ãðàäèåíò_159"/><linearGradient id="Áåçûìÿííûé_ãðàäèåíò_149-63" x1="281.24" y1="310" x2="281.24" y2="282.05" xlink:href="#Áåçûìÿííûé_ãðàäèåíò_149"/><linearGradient id="Áåçûìÿííûé_ãðàäèåíò_149-64" x1="269.31" y1="241.17" x2="269.31" y2="230" xlink:href="#Áåçûìÿííûé_ãðàäèåíò_149"/><linearGradient id="Áåçûìÿííûé_ãðàäèåíò_149-65" x1="285.51" y1="200.19" x2="291.57" y2="200.19" xlink:href="#Áåçûìÿííûé_ãðàäèåíò_149"/><linearGradient id="Áåçûìÿííûé_ãðàäèåíò_149-66" x1="0" y1="192" x2="297.44" y2="192" xlink:href="#Áåçûìÿííûé_ãðàäèåíò_149"/><linearGradient id="Áåçûìÿííûé_ãðàäèåíò_78" x1="400" y1="400" x2="400" y2="338.64" gradientUnits="userSpaceOnUse"><stop offset="0" stop-color="#ec572d"/><stop offset="1" stop-color="#ff973b"/></linearGradient><linearGradient id="Áåçûìÿííûé_ãðàäèåíò_149-67" x1="0" y1="383.98" x2="800" y2="383.98" xlink:href="#Áåçûìÿííûé_ãðàäèåíò_149"/><linearGradient id="Áåçûìÿííûé_ãðàäèåíò_179" x1="75.33" y1="367.96" x2="207.97" y2="367.96" gradientUnits="userSpaceOnUse"><stop offset="0" stop-color="#4d0000"/><stop offset="1" stop-color="#660807"/></linearGradient><linearGradient id="Áåçûìÿííûé_ãðàäèåíò_149-68" x1="75.33" y1="375.55" x2="190.96" y2="375.55" xlink:href="#Áåçûìÿííûé_ãðàäèåíò_149"/><linearGradient id="Áåçûìÿííûé_ãðàäèåíò_175" x1="139.16" y1="384.39" x2="236.08" y2="384.39" gradientUnits="userSpaceOnUse"><stop offset="0" stop-color="#4d0000"/><stop offset="1" stop-color="#600807"/></linearGradient><linearGradient id="Áåçûìÿííûé_ãðàäèåíò_149-69" x1="139.16" y1="388.23" x2="207.97" y2="388.23" xlink:href="#Áåçûìÿííûé_ãðàäèåíò_149"/><linearGradient id="Áåçûìÿííûé_ãðàäèåíò_185" x1="499.43" y1="373.86" x2="645.57" y2="373.86" gradientUnits="userSpaceOnUse"><stop offset="0" stop-color="#390000"/><stop offset="1" stop-color="#570807"/></linearGradient><linearGradient id="Áåçûìÿííûé_ãðàäèåíò_149-70" x1="595.42" y1="373.05" x2="613.92" y2="373.05" xlink:href="#Áåçûìÿííûé_ãðàäèåíò_149"/><linearGradient id="Áåçûìÿííûé_ãðàäèåíò_149-71" x1="617.81" y1="386.46" x2="645.57" y2="386.46" xlink:href="#Áåçûìÿííûé_ãðàäèåíò_149"/><linearGradient id="Áåçûìÿííûé_ãðàäèåíò_149-72" x1="520.67" y1="377.8" x2="534.15" y2="377.8" xlink:href="#Áåçûìÿííûé_ãðàäèåíò_149"/><linearGradient id="Áåçûìÿííûé_ãðàäèåíò_185-2" x1="580.99" y1="389.99" x2="580.99" y2="381.4" xlink:href="#Áåçûìÿííûé_ãðàäèåíò_185"/><linearGradient id="Áåçûìÿííûé_ãðàäèåíò_149-73" x1="240.85" y1="391.37" x2="549.11" y2="391.37" xlink:href="#Áåçûìÿííûé_ãðàäèåíò_149"/><linearGradient id="Áåçûìÿííûé_ãðàäèåíò_149-74" x1="277.3" y1="371.02" x2="494" y2="371.02" xlink:href="#Áåçûìÿííûé_ãðàäèåíò_149"/><linearGradient id="Áåçûìÿííûé_ãðàäèåíò_149-75" x1="299.59" y1="349.08" x2="476.48" y2="349.08" xlink:href="#Áåçûìÿííûé_ãðàäèåíò_149"/><linearGradient id="Áåçûìÿííûé_ãðàäèåíò_149-76" x1="347.02" y1="363.22" x2="561.15" y2="363.22" xlink:href="#Áåçûìÿííûé_ãðàäèåíò_149"/></defs><g class="cls-1"><g id="Layer_2" data-name="Layer 2"><g id="canyon"><polygon class="cls-2" points="355.31 224.57 372.14 238.12 377.96 262.71 380.6 261.72 389.92 263.12 400 282.05 407.33 287.26 424.53 340.63 372.12 338.64 355.31 224.57"/><polygon class="cls-3" points="380.6 261.72 389.92 298.25 394.01 301.75 400 340.39 377.96 262.71 380.6 261.72"/><polygon class="cls-4" points="400 282.05 409.97 324.98 406.27 298.8 402.14 283.58 400 282.05"/><polygon class="cls-5" points="355.31 224.57 359.75 232 368.17 307.38 371.09 308.33 377.96 338.86 372.12 338.64 355.31 224.57"/><polygon class="cls-6" points="415.71 347.42 440.93 249.19 446.57 238.12 454.93 238.12 476.34 220.56 470.16 348.5 429.57 347.42 415.71 347.42"/><polygon class="cls-7" points="446.57 238.12 440.93 249.19 427.45 301.71 433.86 317.12 449.92 272.77 446.57 238.12"/><polygon class="cls-7" points="454.93 238.12 452.33 251.09 452.33 272.77 448.08 298.17 465.23 280.92 470.6 225.27 454.93 238.12"/><polygon class="cls-7" points="429.57 347.42 442.59 305.62 454.79 293.72 466.93 287.26 454.79 347.42 429.57 347.42"/><polygon class="cls-8" points="433.86 317.12 427.29 347.42 429.57 347.42 442.59 305.62 448.69 299.67 448.08 298.17 452.33 272.77 452.33 251.09 454.93 238.12 446.57 238.12 449.92 272.77 433.86 317.12"/><polygon class="cls-9" points="600.31 129.25 586.91 147.86 574.27 142.35 567.6 145.03 540.47 169.67 531.56 166.5 498.33 172.62 498.33 178.43 477 190.39 471.5 272.39 465.35 346.73 480.5 355.25 481.75 359.25 580.5 368.75 613.28 216.16 600.31 129.25"/><polygon class="cls-10" points="574.27 142.35 576.09 228.67 572.5 263.73 562.57 296.02 554.08 302.1 540.47 169.67 531.56 166.5 541.33 199.36 546 241.17 546 303.5 534.1 364.29 541.34 364.57 557.38 306.42 574.17 275.88 582.03 260.72 586.25 275.5 580.5 322 577 324.34 572.5 365.78 580.5 365.78 604.51 256.33 611.57 155.52 600.31 129.25 586.91 147.86 574.27 142.35"/><polygon class="cls-11" points="498.33 178.43 491.33 278.25 488.67 282.05 481.75 359.25 480.5 355.25 476.34 353.75 487.34 280.33 493.75 199.36 495.67 196.28 496.88 179.24 498.33 178.43"/><polygon class="cls-12" points="546 246.33 542.33 246.33 531.56 252.75 508.99 276.38 491.33 278.25 491.5 275.88 503.83 275.88 508.5 273.17 533.25 249 545.13 233.38 545.75 239.5 546 246.33"/><polygon class="cls-13" points="491.33 278.25 488.67 282.05 481.75 359.25 485.92 359.62 512.95 362.03 506.91 282.05 497.35 278.25 491.33 278.25"/><polygon class="cls-13" points="491.5 275.88 498.33 172.62 519.25 168.77 518.15 205.66 512.95 235.58 503.83 275.88 491.5 275.88"/><polygon class="cls-13" points="545.13 233.38 541.33 199.36 531.56 166.5 527.65 167.22 523.52 258.5 533.25 249 545.13 233.38"/><polygon class="cls-13" points="554.08 302.1 549.11 253.72 551.6 224.04 565.77 194.04 574.17 181.42 575.03 178.43 576.09 228.67 572.5 263.73 562.57 296.02 554.08 302.1"/><polygon class="cls-13" points="551.49 327.75 580.5 322 582.03 292.88 586.25 275.5 582.03 260.72 557.38 306.42 551.49 327.75"/><polygon class="cls-14" points="562.57 325.55 577 324.34 580.5 322 562.57 325.55"/><polygon class="cls-14" points="488.67 282.05 508.99 276.38 491.33 278.25 488.67 282.05"/><polygon class="cls-15" points="542.33 246.33 531.56 252.75 531.56 249.75 545.13 233.38 541.33 199.36 542.76 192 553.13 292.88 546 294.24 546 246.33 542.33 246.33"/><polygon class="cls-16" points="576.09 228.67 574.27 142.35 586.91 147.86 590.52 178.43 590.52 230 582.03 260.72 576.09 269.61 572.5 263.73 576.09 228.67"/><polygon class="cls-13" points="476.34 353.75 485.39 293.36 481.75 282.05 469.97 296.02 465.35 346.73 476.34 353.75"/><polygon class="cls-17" points="519.25 168.77 518.51 193.55 518.15 205.66 512.95 238 519.25 204.67 521.33 173.67 523.52 167.98 519.25 168.77"/><polygon class="cls-18" points="546 298.25 528.75 308.67 497.35 322 484.88 324.34 484.57 327.75 486.33 325.55 502.92 323.78 545.13 300.5 546 301.75 546 298.25"/><polygon class="cls-19" points="546 301.75 552.25 305.75 557.38 306.42 559.7 302.1 556.88 304.08 546 298.25 546 301.75"/><polygon class="cls-20" points="497.35 322 502.92 323.78 521.5 313.53 521.5 311.74 497.35 322"/><polygon class="cls-21" points="574.17 181.42 545.13 204.46 543.75 201.42 544.55 209.41 545.13 205.98 572.98 183.2 575.16 184.65 574.99 176.75 574.17 181.42"/><polygon class="cls-22" points="609.08 194.04 590.52 202.99 575.16 202.99 553.13 212.5 545.75 219 543.53 219 515.29 227.58 506.1 229.67 494 237.77 490.68 238.12 473.36 244.67 473.17 247.51 490.51 240.26 493.8 241.17 507 234.25 543.75 223.63 546 223.48 551.49 219.38 575.63 211.5 590.52 212.5 611.76 205.98 609.08 194.04"/><polygon class="cls-22" points="612.71 210.66 590.52 216.17 576.09 216.17 546.42 227.58 543.75 227.58 493.38 247.51 489.94 247.51 472.82 252.67 472.52 257.12 489.82 249 493.19 250.36 544.72 229.67 546.67 230 575.16 220.56 590.52 219.5 613.28 216.16 612.71 210.66"/><polygon class="cls-13" points="477 190.39 471.5 272.39 471.5 290.16 487.34 222.32 491.33 182.35 477 190.39"/><polygon class="cls-23" points="515.82 303.5 518.23 292.77 521.5 290.16 518.23 301.75 515.82 303.5"/><polygon class="cls-23" points="521.5 288.88 521.5 283.5 522.75 280.5 522.13 287.93 521.5 288.88"/><polygon class="cls-23" points="523.52 290.16 524.88 288.88 525.63 290.16 523.52 290.16"/><polygon class="cls-23" points="527.33 327.75 530.67 322 532.28 320.14 530.67 326.68 527.33 327.75"/><polygon class="cls-23" points="502.05 178.43 502.05 186.17 503.94 184 503 176.75 502.05 178.43"/><polygon class="cls-23" points="530.67 201.25 532.28 207.12 534.33 208.85 531.56 200 530.67 201.25"/><polygon class="cls-23" points="531.56 207.92 529.75 210.66 531.56 211.67 533.93 211.67 533.87 209.79 531.56 207.92"/><polygon class="cls-23" points="562.6 278.25 565 272 567.25 272 564.92 277.62 562.6 278.25"/><polygon class="cls-23" points="587.83 258.5 589.33 252.33 592.71 248.09 587.83 258.5"/><polygon class="cls-23" points="551.49 354.21 552.85 347.25 554.08 355.75 552.79 355.75 551.49 354.21"/><polygon class="cls-23" points="554.08 345.17 556 340.63 556 345.17 555.04 347.42 554.08 345.17"/><polygon class="cls-24" points="372.12 341.37 332.19 347.25 292.52 200.19 295.76 169.67 306.33 161.82 317.6 152.25 321.93 154.33 332.19 175.19 336.63 176.15 348.78 197.33 349.89 199.24 366.2 275.5 370.92 275.5 372.12 341.37"/><polygon class="cls-25" points="353 268.75 352.17 269.08 355.16 342.9 353.82 343.02 348.5 252.75 338.5 220.02 338.83 216.16 325.17 186.17 319.33 192 318.83 207.17 330.94 242.67 342.62 256.33 342.62 301.75 345.03 305.09 347.02 343.82 332.19 347.25 292.52 200.19 295.76 169.67 306.33 161.82 317.6 152.25 327 186.17 336 192 332.19 175.19 336.63 176.15 335 180.72 353 267.33 366.2 275.5 367.64 275.88 364.08 275.88 353 268.75"/><polygon class="cls-26" points="336 192 331.56 200.19 338.83 216.16 338.5 220.02 348.5 252.75 349.77 274.31 352.17 269.08 353 267.33 335 180.72 332.92 178.43 336 192"/><polygon class="cls-27" points="325.17 186.17 319.33 192 312.92 202.97 292.52 202.97 295.76 169.67 317.6 152.25 327 186.17 325.17 186.17"/><polygon class="cls-28" points="330.94 242.67 317.6 274.31 321.93 288.01 342.62 256.33 330.94 242.67"/><polygon class="cls-29" points="342.62 301.75 330.08 303.5 330.08 313 345.03 305.09 342.62 301.75"/><polygon class="cls-30" points="800 0 765.81 0 749.93 5 741.38 10.33 708.82 11 702.33 13.54 702.31 20.33 656.72 66 653.46 66 653.46 82.33 643.29 82.33 639.62 85.33 631.08 98.67 615.2 108.67 599.33 117.67 602.58 161 602.17 227.33 599.33 229.67 596.07 260.33 592.81 265 580.5 347.25 580.5 400 800 400 800 0"/><polygon class="cls-31" points="653.46 82.33 653.46 99 610.42 225.5 610.42 231.75 599.43 277.5 599.43 298.5 599.43 305 585.38 353.75 580.5 400 580.5 347.25 592.81 265 596.07 260.33 599.33 229.67 602.17 227.33 602.58 161 599.33 117.67 631.08 98.67 639.62 85.33 643.29 82.33 653.46 82.33"/><polygon class="cls-32" points="592.71 367.75 622.93 319.5 632.09 309.5 641.25 290 646.14 283.5 653.46 244.5 666.9 235.5 682.77 184 705.36 137 713.3 72 702.31 20.33 656.72 66 653.46 66 653.46 99 610.42 225.5 610.42 231.75 599.43 277.5 599.43 305 585.38 353.75 593.02 355.25 592.71 367.75"/><polygon class="cls-33" points="607.45 384.9 623.75 351.67 649.34 329.33 653.46 315.67 646.54 301.67 662.42 257.12 677.48 249.33 683.59 241.17 697.02 184.67 705.97 161 704.03 139.77 705.36 137 708.82 163.33 708.82 169.67 686.43 237.33 666.08 326.68 649.34 390.45 607.45 384.9"/><polygon class="cls-34" points="699.15 393.89 708.82 344.22 733.45 301.67 737.72 284.5 733.45 230 737.72 169.67 713.3 149 705.82 133.22 706.58 127 708.82 136 716.15 148.67 744.74 169.67 748.71 175.75 739.86 297 724.75 330.75 722.15 342.25 718.05 394.44 699.15 393.89"/><polygon class="cls-35" points="708.82 11 720.63 30 729.78 57 740.77 118.67 748.71 161 744.44 108 740.16 25.5 741.38 10.33 708.82 11"/><polygon class="cls-36" points="800 0 765.81 0 790.64 137 782.9 223.17 777.61 335.67 791.4 396.57 800 396.82 800 0"/><polygon class="cls-37" points="702.31 20.33 697.56 25.09 702.31 68.78 692.95 153.67 678.29 188.02 666.9 223.17 658.82 220 644.51 226.84 632.3 230 616.98 230 609.08 237.33 616.98 232 623.54 233.17 646.34 239.67 649.34 241.17 640.34 285.5 637.71 297.54 641.25 290 646.14 283.5 653.46 244.5 666.9 235.5 682.77 184 705.36 137 713.3 72 702.31 20.33"/><polygon class="cls-38" points="635.86 150.74 640.34 152.25 661.19 139.5 670.86 128.75 676.05 116.25 680.94 110 694.98 92.5 700.78 82.62 696.2 93.83 688.06 106 670.97 132.83 653.46 149.83 637.59 158.94 634.95 153.41 635.86 150.74"/><polygon class="cls-39" points="643.29 82.33 643.29 101.33 643.29 109.17 635.88 130.78 634.95 127 633.52 110.5 631.08 98.67 622.35 104.95 626.47 137 625.5 167.8 628.84 149.33 635.88 130.78 634.95 133.5 628.84 149.33 620.36 196.28 653.46 99 653.46 82.33 643.29 82.33"/><polygon class="cls-40" points="611.57 222.1 607.26 228.5 599.12 270.83 596.27 281.17 596.27 296.33 590.98 309.33 589.15 309.33 588.45 294.14 587 303.82 588.13 307 589.15 311.17 593.22 315 590.78 335.03 582.03 351.67 585.38 353.75 599.43 305 599.43 277.5 610.42 231.75 610.42 225.5 611.57 222.1"/><polygon class="cls-41" points="699.15 393.89 708.82 344.22 679.92 312.13 670.7 306.42 666.08 326.68 649.34 390.45 607.45 384.9 623.75 351.67 649.34 329.33 653.46 315.67 646.54 301.67 662.42 257.12 671.78 271.36 675.85 271.36 677.48 249.33 683.59 241.17 697.02 184.67 708.82 169.67 684.76 244.67 673 301.33 679.51 308.33 715.75 332.25 733.45 301.67 737.72 284.5 733.77 234.13 744.75 230 739.86 297 724.75 330.75 718.05 394.44 699.15 393.89"/><polygon class="cls-42" points="607.45 344.22 616.98 351.67 623.75 351.67 649.34 329.33 653.46 315.67 632.09 309.5 622.93 319.5 607.45 344.22"/><polygon class="cls-42" points="662.42 257.12 653.46 244.5 666.9 235.5 681.55 230 683.59 231.67 683.59 241.17 677.48 249.33 662.42 257.12"/><polygon class="cls-43" points="638.16 237.33 616.98 232 609.08 237.33 599.43 277.5 599.43 305 585.38 353.75 593.02 351.94 600.95 346.46 630.46 305.25 637.71 297.54 648.86 243.5 649.34 241.17 638.16 237.33"/><polygon class="cls-44" points="673 301.33 708.82 169.67 713.3 158.94 716.96 154.33 737.72 169.67 733.45 230 737.72 282.75 733.45 301.67 715.75 332.25 679.51 308.33 673 301.33"/><polygon class="cls-45" points="724.75 330.75 744.75 338.64 777.77 332.25 779.86 287.93 779.86 253.09 744.22 237.33 739.86 297 724.75 330.75"/><polygon class="cls-45" points="706.58 127 713.3 72 702.31 20.33 702.33 13.54 708.82 11 720.63 30 729.78 57 744.75 161 742.2 164.83 716.15 148.67 708.82 132.33 706.58 127"/><polygon class="cls-46" points="741.38 10.33 741.38 43.67 748.71 188.32 782.9 223.17 790.64 137 765.81 0 741.38 10.33"/><polygon class="cls-47" points="593.02 355.25 592.71 367.75 607.45 344.22 622.93 319.5 632.09 309.5 641.25 290 646.14 283.5 653.46 244.5 666.9 235.5 682.77 184 677.89 190.83 666.9 223.17 658.82 220 644.51 226.84 632.3 230 616.98 230 630.46 233.17 640.5 238 649.34 241.17 637.71 297.54 630.46 305.25 600.95 346.46 593.02 351.94 593.02 355.25"/><polygon class="cls-48" points="640.34 152.25 645.62 154.33 653.46 149.83 670.97 132.83 676.49 115.69 670.86 128.75 661.19 139.5 640.34 152.25"/><polygon class="cls-49" points="716.96 154.33 713.3 158.94 708.82 169.67 683.23 263.73 700.78 275.88 708.82 268.48 723.93 226.84 724.75 161 716.96 154.33"/><polygon class="cls-49" points="736.4 188.32 731.62 191.95 728.77 222.1 728.77 232.67 734.32 241.17 733.45 230 736.4 188.32"/><polygon class="cls-50" points="649.34 390.45 670.7 306.42 679.92 312.13 708.82 344.22 699.15 393.89 668.52 393 649.34 390.45"/><polygon class="cls-43" points="610.42 225.5 616.98 230 632.3 230 661.19 191.95 670.97 132.83 653.46 149.83 637.59 158.94 634.95 153.41 610.42 225.5"/><polygon class="cls-43" points="676.1 124.78 680.8 182.14 692.95 153.67 700.78 82.62 696.2 93.83 676.1 124.78"/><polygon class="cls-43" points="635.86 150.74 653.46 99 661.19 85.67 679.11 78.33 683.59 85.67 676.49 115.69 670.86 128.75 661.19 139.5 640.34 152.25 635.86 150.74"/><polygon class="cls-43" points="682.77 39.83 682.77 76.25 686.13 85.67 694.07 85.67 702.31 68.78 697.56 25.09 682.77 39.83"/><polygon class="cls-51" points="741.38 10.33 744.44 108 748.71 188.32 782.9 223.17 790.64 137 765.81 0 749.93 5 741.38 10.33"/><polygon class="cls-52" points="800 282.05 779.86 253.09 744.22 237.33 782.9 252.75 800 274.31 800 282.05"/><polygon class="cls-53" points="779.53 294.92 776.8 298.8 741.38 296.86 740.15 293.01 739.86 297 738.21 300.69 740.88 298.25 777.51 300.69 779.21 301.75 779.53 294.92"/><polygon class="cls-54" points="741.98 55.38 770.54 33.75 771.38 30.76 772.61 37.51 771.15 35.63 743.83 55.38 741.84 59.5 741.98 55.38"/><polygon class="cls-55" points="781.33 85.67 780.31 88.75 744.75 94.88 743.67 93 743.98 99.75 744.75 96.63 781.33 91 782.61 92.71 781.33 85.67"/><polygon class="cls-43" points="666.9 223.17 658.82 220 661.19 206.75 670.97 189 679.08 186.17 666.9 223.17"/><polygon class="cls-43" points="616.98 232 609.08 237.33 607.45 259.69 612.22 290.16 621.71 306.42 628.25 308.33 630.46 305.25 637.71 297.54 649.34 241.17 616.98 232"/><polygon class="cls-43" points="599.43 305 601.57 301.75 611.57 322 609.08 335.07 600.95 346.46 593.02 351.94 585.38 353.75 599.43 305"/><polygon class="cls-56" points="791.4 396.57 777.77 332.25 779.21 301.75 776.8 298.8 779.53 294.92 779.86 253.09 781.54 252.21 782.9 223.17 782.9 252.75 785.16 260.72 782.9 257.47 782.9 306.42 792.67 357 800 376.83 800 396.82 791.4 396.57"/><polygon class="cls-57" points="771.15 35.63 772.61 37.51 781.33 85.67 780.31 88.75 782.61 92.71 790.64 139.31 790.64 115.69 780.89 65.75 777.41 10.33 778.33 0 765.81 0 771.38 30.76 771.15 35.63"/><polygon class="cls-58" points="720.63 30 740.5 21.3 743.01 75 729.78 57 720.63 30"/><polygon class="cls-51" points="713.3 72 731.1 66.17 744.75 161 742.2 164.83 716.15 148.67 706.58 127 713.3 72"/><polygon class="cls-59" points="800 234.13 782.9 232 744.98 226.84 734.01 222.1 693.77 225 692.77 228.67 686.99 226.84 669.57 226.84 666.9 235.5 681.55 230 683.59 231.67 690.25 237.93 691.55 233.17 733.45 226.84 744.22 234.13 782.21 238 800 244.67 800 234.13"/><polygon class="cls-59" points="800 364.75 795.03 363.37 783.88 363.37 720.38 364.75 705.36 360.67 658.13 353.75 632.28 344.22 610.95 338.64 609.08 341.62 628.81 347.25 655.87 364.75 703.99 364.75 720.57 370.5 784.87 367.75 797.66 370.5 800 376.83 800 364.75"/><polygon class="cls-59" points="800 52.25 775.28 52.25 742.6 66.17 730.7 62.5 711.64 64.22 712.06 66.17 702.31 68.78 679.08 75 661.19 85.67 654.46 97.28 654.46 92.71 661.19 82.33 679.08 72.61 701.3 59.5 710.64 59.5 709.76 55.38 727.23 48.15 741.84 52.71 773.51 42.5 800 42.5 800 52.25"/><polygon class="cls-60" points="706.58 127 713.3 72 702.31 20.33 702.33 13.54 708.82 11 719.57 28.31 729.78 57 731.82 72.61 727.23 72.61 727.23 69.89 723.53 69.89 720.63 118.31 718.75 120.78 720.63 82.62 717.06 85.67 716.15 148.67 706.58 127"/><polygon class="cls-61" points="748.71 188.32 744.75 96.63 758.92 94.45 765.81 177.5 769.47 178 765.81 140 769.47 139.31 772.61 193.55 775.27 194.04 779.53 113.59 785.24 107.24 790.64 137 782.9 223.17 748.71 188.32"/><polygon class="cls-62" points="635.86 150.74 640.34 152.25 661.19 139.5 668.52 113.33 664.29 113.33 654.46 135.01 649.34 137 664.29 90 661.19 85.67 654.46 97.28 635.86 150.74"/><polygon class="cls-63" points="658.82 220 661.19 206.75 670.97 189 669.9 139.31 666.9 142.5 661.19 191.95 658.41 196.28 662.71 146.67 661.19 148.67 653.46 202.12 640.69 218.94 617.36 220 611.21 223.17 610.42 225.5 616.98 230 632.3 230 643.58 227.08 658.82 220"/><polygon class="cls-61" points="738.21 300.69 724.75 330.75 744.75 338.64 763.2 335.07 767.69 300.04 766.01 300.04 761.69 332.25 758.87 333.25 763.38 299.75 747.8 298.71 736.4 329.13 733.45 329.13 742.3 298.71 740.88 298.25 738.21 300.69"/><polygon class="cls-61" points="723.53 298.8 725.67 287.93 725.67 297.38 723.53 298.8"/><polygon class="cls-61" points="717.06 310 720.01 306.42 717.06 318.44 708.82 319.8 717.06 310"/><polygon class="cls-61" points="696.57 350.93 695.17 347.89 696.57 344.86 699.73 349.27 696.57 350.93"/><polygon class="cls-61" points="673 301.33 683.23 263.73 676.49 305.08 673 301.33"/><polygon class="cls-60" points="767.69 275.5 765.81 263.73 769.01 258.5 767.69 275.5"/><polygon class="cls-61" points="769.01 274.88 770.69 271.5 772.11 273.19 770.56 274.88 769.01 274.88"/><polygon class="cls-60" points="708.82 198.41 713.3 186.17 717.06 193.55 712.94 200 708.82 198.41"/><polygon class="cls-61" points="628.4 326.68 634.95 322.07 643.69 322 634.95 326.68 628.4 326.68"/><polygon class="cls-61" points="634.95 336.33 636.04 333.5 639.22 333.5 634.95 336.33"/><polygon class="cls-13" points="599.33 117.67 602.58 161 602.58 204.81 616.98 190.39 626.47 137 622.35 104.95 599.33 117.67"/><polygon class="cls-64" points="599.33 229.67 607.26 228.5 610.42 225.5 602.17 227.33 599.33 229.67"/><polygon class="cls-64" points="592.81 265 596.8 268.84 596.07 260.33 592.81 265"/><polygon class="cls-65" points="616.98 232 609.08 237.33 630.46 238 649.34 241.17 616.98 232"/><polygon class="cls-61" points="663.67 347.42 668.52 332.25 668.95 341.9 663.67 347.42"/><polygon class="cls-61" points="688.44 350.15 688.44 345.17 695.67 350.62 688.44 350.15"/><polygon class="cls-61" points="736.4 356.18 736.4 350.62 741.38 347.89 736.4 356.18"/><polygon class="cls-61" points="782.9 384.63 776.8 352.04 776.8 370.69 782.9 384.63"/><polygon class="cls-60" points="757.23 79.83 757.23 67.67 760.25 69.89 760.25 79.83 757.23 79.83"/><polygon class="cls-60" points="763.14 82.33 765.81 82.33 765.81 87.92 763.14 82.33"/><polygon class="cls-66" points="633 200 634.95 192 635.86 200 633 200"/><polygon class="cls-67" points="645 193.08 640.34 199.36 637.74 209.41 645 193.08"/><polygon class="cls-67" points="668.95 111.58 673 102.79 670.97 115.69 668.95 111.58"/><polygon class="cls-67" points="724.66 123.45 724.66 135.05 722.4 127.19 724.66 123.45"/><polygon class="cls-61" points="756.15 33.86 756.15 20.33 758.87 14.67 760.25 36 756.15 33.86"/><polygon class="cls-61" points="761.75 37.13 761.75 32.06 763.06 30.76 764.81 37.13 762.5 38.5 761.75 37.13"/><polygon class="cls-67" points="713.3 184.65 714.67 178.43 716.5 182.14 713.3 184.65"/><polygon class="cls-67" points="705.36 258.5 706.58 254 706.58 259.69 703.99 260.72 705.36 258.5"/><polygon class="cls-67" points="713.3 310 717.13 305.08 717.13 300.13 713.3 310"/><polygon class="cls-66" points="618.67 272 621.83 261.72 621.83 269.61 618.67 272"/><polygon class="cls-66" points="623 272 621.83 279.21 624.17 273.67 623 272"/><polygon class="cls-66" points="668.52 104 670.13 95.37 668.52 98.5 668.52 104"/><polygon class="cls-23" points="609.08 129.25 609.08 137 611.76 142.11 609.08 129.25"/><polygon class="cls-23" points="609.08 142.11 610.42 143.88 609.75 147 609.08 142.11"/><polygon class="cls-23" points="601.25 238 601.25 249 602.63 244.67 601.25 238"/><polygon class="cls-23" points="602.63 236.26 604.87 231.25 603.75 235.58 602.63 236.26"/><polygon class="cls-23" points="615.88 162.25 614.38 173 615.88 177.63 617.75 176.75 617.75 161 615.88 162.25"/><polygon class="cls-23" points="617.75 158.94 617.75 154.33 619.5 152.25 618.63 158.94 617.75 158.94"/><path class="cls-68" d="M135.8,0l16.68,11.33v3.34l21,20.58,4.92,7.25s31.38,8.25,44.87,14.5c0,0,11.93,16.75,14.52,25.5l1.81,44.5,32.94,17.5-.86,16.5,16.94,14.75h3.89l2.07,7L300.81,200l7.27-2,3.37,2,8.29,16.75,10.12,30,2.33,19.5L329.86,271l2.33,76.25V400H0V0Z"/><polygon class="cls-69" points="139 199.5 146.6 212.56 152.83 220 161.82 225 171.5 233.67 180.49 237.33 191.21 237.33 191.21 228.67 180.49 189 174.96 132.33 165.1 92.33 152.83 43.67 149.26 9.15 135.8 0 92.56 0 128.62 147.33 139 199.5"/><polygon class="cls-43" points="194.32 233 198.81 248.08 218.87 290.33 244.8 313 271.08 329.33 275.23 329.33 244.11 262 204 158.67 186.71 146.67 181.87 146.67 184.98 191.97 186.45 202.5 194.32 233"/><polygon class="cls-70" points="174.78 268 191.21 275.5 195.18 275.5 203.66 275.5 207.98 273.67 187.92 244.67 186.71 248.08 172.54 246.17 158.71 237.33 148.16 223.17 174.78 268"/><polygon class="cls-43" points="0 82.33 21.78 122.33 29.04 141 53.59 164.67 66.73 178.67 72.27 182.33 98.2 188.67 104.08 188.67 97.5 177.67 45.99 88.67 13.18 0 0 0 0 82.33"/><polygon class="cls-71" points="13.18 0 45.99 88.67 104.08 188.67 131.22 281.75 154.99 326.68 168.56 377.25 0 384 0 0 13.18 0"/><polygon class="cls-43" points="141.88 378.32 128.97 360.33 68.46 308.33 62.24 308.33 57.05 310.67 57.05 322 70.54 351.67 74.08 354.33 82.64 356 97.16 380.11 141.88 378.32"/><path class="cls-72" d="M223.28,57l-3,35v21l3,36,5.27,14.33,6.92,6.34L239.61,127,237.8,82.5S230.8,64,223.28,57Z"/><polygon class="cls-73" points="25.41 0 45.12 35.5 52.04 40.5 86.09 82.33 99.47 85.5 104.08 85.5 81.97 0 25.41 0"/><polygon class="cls-74" points="0 82.33 21.78 122.33 29.04 141 25.41 175.67 25.41 315 45.12 382.19 0 384 0 82.33"/><polygon class="cls-75" points="25.41 0 45.12 35.5 52.04 40.5 86.09 82.33 77.8 103 85.06 145.29 61.11 82.33 58.78 61 29.04 31.33 16.97 0 25.41 0"/><polygon class="cls-76" points="81.97 0 104.08 85.5 104.08 97.5 111.68 110.33 116.87 128.67 128.62 161 135.19 197.33 150.75 237.33 174.26 312.33 184.98 357 184.98 376.14 195.7 375.41 184.98 347.25 178.07 298 174.78 268 148.16 223.17 152.83 220 139 199.5 130.64 157.47 92.56 0 81.97 0"/><polygon class="cls-77" points="49.79 161 57.05 188.02 57.05 207.67 57.05 233.17 54.54 311 54.54 347.25 57.05 381.71 97.16 380.11 82.64 356 74.08 354.33 70.54 351.67 57.05 322 57.05 310.67 62.24 308.33 68.46 308.33 128.97 360.33 141.88 378.32 145.23 378.18 130.7 355.67 119.63 341 117.56 336.67 119.63 301.67 117.21 297 96.81 283.33 77.8 257.33 77.8 249.33 88.17 258.67 92.56 264.33 87.82 238 72.96 215 72.27 206.67 69.97 180.82 49.79 161"/><polygon class="cls-78" points="152.48 14.67 152.83 43.67 171.04 116.44 174.96 132.33 180.49 189 191.21 228.67 191.21 237.33 187.92 244.67 207.98 273.67 225.44 318.33 239.61 372.44 252.13 371.59 237.54 351.67 226.13 308.33 218.87 290.33 198.81 248.08 186.45 202.5 181.87 146.67 171.15 103.33 159.05 52 152.48 14.67"/><path class="cls-79" d="M178.41,42.5,175,90l3.45,21.5L204,158.67l34.71,89.41L225.78,192l2.77-28.64L223.28,149l-3-36V85.5l3-28.5S187.4,44,178.41,42.5Z"/><polygon class="cls-80" points="239.61 127 238.71 173 239.61 218.5 240.65 253.09 274 326.68 269.44 308.33 253.62 275.5 249.47 258.25 246.88 226.84 259.32 232 269.35 230 254.4 226.84 249.99 223.17 247.95 131.43 239.61 127"/><polygon class="cls-81" points="77.8 257.33 77.8 249.33 92.56 264.33 96.81 271.36 111.51 281.25 131.22 284.75 131.22 281.75 154.99 326.68 154.99 326.68 119.63 301.67 117.21 297 96.81 283.33 77.8 257.33"/><polygon class="cls-82" points="57.05 310.67 54.75 304.5 55.22 290.16 71.92 308.33 100.79 334.17 107.53 335.33 117.56 336.67 119.63 341 130.7 355.67 145.23 378.18 141.88 378.32 128.97 360.33 68.46 308.33 62.24 308.33 57.05 310.67"/><polygon class="cls-81" points="191.21 237.33 191.21 228.67 180.49 189 160.09 154.33 131.04 139.31 131.34 161 139 199.5 152.83 220 161.82 225 171.5 233.67 180.49 237.33 191.21 237.33"/><polygon class="cls-81" points="29.04 141 69.97 180.82 81.95 184.7 98.2 188.67 104.08 188.67 45.99 88.67 37.34 88.67 0 72 0 82.33 29.04 141"/><polygon class="cls-73" points="92.56 0 106.52 57 128.62 94.28 148.16 100.5 145.23 72.6 138.82 31.5 152.48 85.67 161.13 118.67 174.96 132.33 152.83 43.67 152.48 11.33 135.8 0 92.56 0"/><polygon class="cls-83" points="85.06 145.29 122.75 161 128.62 161 116.87 128.67 111.68 110.33 104.08 97.5 77.8 103 85.06 145.29"/><polygon class="cls-84" points="239.61 372.44 225.44 318.33 226.13 308.33 237.54 351.67 252.13 371.59 239.61 372.44"/><polygon class="cls-85" points="184.98 376.14 184.98 357 170.35 299.83 174.78 268 184.98 347.25 195.7 375.41 184.98 376.14"/><polygon class="cls-86" points="152.75 36.34 151.27 39.83 138.82 38.09 100.44 28.17 98.54 25 99.75 30.83 143.84 39.83 152.83 43.67 152.75 36.34"/><polygon class="cls-87" points="104.08 47.61 154.38 69.67 158.1 69.5 158.44 66.17 160.07 72.61 112.37 52.5 105.28 52.67 104.08 47.61"/><polygon class="cls-88" points="174.96 132.33 161.13 118.67 136.58 116.33 128.62 97.5 128.62 94.28 106.52 57 130.64 157.47 131.04 139.31 160.09 154.33 180.49 189 174.96 132.33"/><polygon class="cls-89" points="29.04 141 81.95 153.75 86.09 157.71 81.12 149.36 80.78 151.88 42.36 143.88 27.56 138.01 29.04 141"/><polygon class="cls-90" points="121.77 249.33 106.52 248.08 95.95 249.33 89.64 248.08 89.22 245.77 90.37 247.55 95.82 248.79 106.26 247.55 119.09 247.55 120.72 245.77 121.77 249.33"/><polygon class="cls-91" points="181.87 323.07 223.02 334.24 226.22 334.24 228.55 334.24 229.82 335.07 229.11 332.36 228.03 333.33 222.2 333.67 183.95 321.58 180.82 314.9 181.87 323.07"/><polygon class="cls-92" points="184.98 347.25 191.21 347.25 226.91 354.21 232.09 353.75 233.9 350.62 235.47 356.62 229.82 355.13 190.6 348.25 185.88 349.61 184.98 347.25"/><polygon class="cls-93" points="139 199.5 152.83 220 148.16 223.17 170.35 260.53 174.78 268 166.1 259.25 153.4 245.77 135.19 197.33 139 199.5"/><polygon class="cls-94" points="156.61 222.1 161.13 226.84 158.71 237.33 172.54 246.17 174.78 237.33 178.07 237.33 180.49 237.33 171.5 233.67 161.82 225 156.61 222.1"/><polygon class="cls-95" points="136.58 116.33 131.04 139.31 130.64 157.47 121.26 118.67 111.68 110.33 104.08 97.5 104.08 85.5 98.95 65.69 106.52 57 128.62 94.28 128.62 97.5 136.58 116.33"/><polygon class="cls-96" points="187.92 244.67 191.21 237.33 191.21 228.67 193.55 228.67 198.81 248.08 210.57 272.86 209.48 277.52 207.98 273.67 187.92 244.67"/><polygon class="cls-97" points="45.12 35.5 49.79 38.88 49.79 34.33 81.95 8 84.28 8.93 82.94 3.73 81.95 6.24 47.59 34.33 45.12 35.5"/><polygon class="cls-98" points="29.04 31.33 40.11 34.33 25.41 0 45.12 35.5 52.04 40.5 86.09 82.33 77.8 103 70.58 107.24 61.11 82.33 58.78 61 29.04 31.33"/><polygon class="cls-99" points="81.97 0 91.28 36 97.72 21.3 92.56 0 81.97 0"/><polygon class="cls-100" points="25.41 175.67 0 212.56 0 384 45.12 382.19 25.93 319.67 25.41 175.67"/><polygon class="cls-101" points="174.96 90 220.59 82.33 220.25 113 223.28 149 206.83 165.96 178.41 111.5 174.96 90"/><polygon class="cls-102" points="219.01 197.33 225.78 191.97 238.71 248.08 219.01 197.33"/><polygon class="cls-103" points="168.74 107.24 171.15 103.33 181.87 146.67 186.1 200 180.49 189 174.96 132.33 168.74 107.24"/><polygon class="cls-59" points="0 226.84 25.41 223.17 57.05 233.17 82.65 230 116.91 232.67 118.97 239.76 152.48 243.33 160.13 243.33 194.77 254.57 201.03 252.75 244.11 262 249.31 256.33 262.72 256.33 263.51 262 249.47 258.25 245.91 264.71 243.42 264.71 204.35 259.74 200.64 263.05 161.82 246.17 155.59 252.75 122.76 252.75 119.12 241.67 117.34 235.94 86.09 234.13 84.28 234.13 55.75 237.33 25.41 226.84 0 228.67 0 226.84"/><polygon class="cls-59" points="0 246.17 25.41 243.94 36.3 247.55 56.41 253.09 77.8 249.33 89.22 252.75 123.81 256.33 128.19 271.36 161.13 270.42 175.75 275.5 199.25 283 213.04 286.61 215.76 283.79 256.36 288.5 259.32 287.34 268.6 288.5 269.91 293.01 260.68 290.16 259.32 293.01 217.76 288.01 215.54 293.01 177.42 279 162.34 274.31 129.98 277.52 125.06 263.5 92.56 264.33 85.58 256.33 77.8 252.75 55.75 264.71 39.42 264.71 25.24 261.67 0 264.71 0 246.17"/><polygon class="cls-59" points="0 130.33 17.99 118.67 65.93 123 74.93 118.67 79.57 113.33 112.53 113.33 115.27 123 136.58 116.33 161.13 118.67 174.96 132.33 177.12 126.25 189.44 131.38 219.91 110.33 238.71 129.25 238.71 138.01 248.13 139.31 272.07 153.68 271.25 169.67 248.4 151.67 239.13 151.67 238.23 142.33 236.24 132.33 220.68 120.5 191.21 135.08 178.33 132.33 178.33 132.33 175.51 138.01 176.47 147.86 145.23 129.25 133.21 130.33 127.07 142.75 118.2 132.33 116.39 126.99 81.95 123 78.96 129.25 70.19 130.33 68.25 127 22.11 127 0 145.29 0 130.33"/><polygon class="cls-104" points="229.82 335.07 232.3 331.76 245.15 333.42 274 336.33 244.97 331.76 231.35 328.16 229.11 332.36 229.82 335.07"/><polygon class="cls-105" points="229.82 335.07 233.9 350.62 232.09 353.75 226.91 354.21 191.21 347.25 184.98 347.25 181.87 323.07 223.02 334.24 228.55 334.24 229.82 335.07"/><polygon class="cls-105" points="97.16 380.11 82.64 356 97.16 336.33 96.29 332.25 128.97 360.33 141.88 378.32 97.16 380.11"/><polygon class="cls-105" points="29.04 141 69.97 180.82 98.2 188.67 104.08 188.67 86.09 157.71 80.78 151.88 42.01 145.29 29.04 141"/><polygon class="cls-106" points="77.8 249.33 73.13 230 72.96 215 87.82 238 92.56 264.33 77.8 249.33"/><polygon class="cls-59" points="0 277.52 25.41 277.52 55.75 282.33 54.54 311 25.89 308.33 0 308.33 0 277.52"/><polygon class="cls-107" points="74.08 354.33 63.27 380.11 57.05 381.71 54.54 323.07 57.05 322 70.54 351.67 74.08 354.33"/><polygon class="cls-108" points="25.93 319.67 22.56 351.94 16.94 381.71 45.12 382.19 25.93 319.67"/><polygon class="cls-109" points="104.08 47.61 97.51 57 105.28 52.67 112.37 52.5 104.08 47.61"/><polygon class="cls-43" points="268.1 327.48 260.56 310.89 259.32 294.92 275.23 329.33 271.08 329.33 268.1 327.48"/><polygon class="cls-43" points="228.55 298.8 212.45 255.2 199.25 233.17 191.77 222.1 198.81 248.08 218.87 290.33 228.55 298.8"/><polygon class="cls-43" points="160.09 154.33 172.54 185.67 186.1 218 189.43 222.1 180.49 189 160.09 154.33"/><polygon class="cls-43" points="136.04 184.61 145.23 188.02 156.61 210.67 161.82 225 152.83 220 139 199.5 136.04 184.61"/><polygon class="cls-43" points="172.54 246.17 191.21 275.5 203.66 275.5 207.98 273.67 187.92 244.67 186.71 248.08 172.54 246.17"/><polygon class="cls-43" points="27.56 84.3 45.12 115.67 55.75 127 69.15 148.67 80.78 151.88 81.12 149.36 45.99 88.67 37.34 88.67 27.56 84.3"/><polygon class="cls-43" points="49.79 38.88 49.79 34.33 61.19 25 94.41 84.3 86.09 82.33 49.79 38.88"/><polygon class="cls-110" points="223.28 57 228.55 91 233.39 100.33 233.39 145.29 233.39 167.77 235.47 169.67 239.61 127 237.8 82.5 223.28 57"/><polygon class="cls-43" points="215.39 188.02 206.83 188.02 202.31 208 210.57 237.33 229.11 249.33 240.65 253.09 215.39 188.02"/><polygon class="cls-43" points="96.29 332.25 97.16 336.33 89.22 347.08 108.92 360.67 128.97 360.33 96.29 332.25"/><polygon class="cls-43" points="57.05 310.67 74.08 319.67 87.83 324.98 68.46 308.33 62.24 308.33 57.05 310.67"/><polygon class="cls-43" points="25.41 175.67 27.56 155.14 31.03 164.83 45.12 191.95 39.42 264.71 25.41 277.52 25.41 175.67"/><polygon class="cls-43" points="111.75 215 111.75 226.84 116.39 243.94 120.72 245.77 111.75 215"/><polygon class="cls-43" points="131.04 139.31 136.04 161 141.88 175.67 168.74 188.67 168.74 183 160.09 154.33 131.04 139.31"/><polygon class="cls-43" points="0 72 11.41 82.33 29.04 97.5 35.27 120.23 27.56 130.33 24.75 132.33 0 82.33 0 72"/><polygon class="cls-43" points="47.79 0 58.87 14.67 67.62 17.95 81.95 6.24 82.94 3.73 81.97 0 47.79 0"/><polygon class="cls-110" points="131.04 0 116.24 8.93 117.56 32.59 151.27 39.83 152.75 36.34 152.48 11.33 131.04 0"/><polygon class="cls-111" points="259.32 232 246.88 226.84 249.47 258.25 253.62 275.5 269.44 308.33 275.23 311.33 265.94 279.33 259.32 232"/><polygon class="cls-112" points="239.61 127 247.95 131.43 247.95 184.61 249.99 223.17 254.4 226.84 246.88 226.84 249.47 258.25 247.38 269.09 240.65 253.09 239.61 127"/><polygon class="cls-67" points="178.33 132.33 191.21 135.08 204 158.67 191.77 143 179.73 138.01 178.33 132.33"/><polygon class="cls-113" points="238.71 248.08 230.32 211.66 234.51 173.7 235.47 169.67 231.44 210 234.51 216.33 237.23 161 239.13 151.67 238.71 248.08"/><polygon class="cls-113" points="128.62 161 135.19 197.33 152.48 243.33 149.89 243.06 131.76 197.33 124.99 195.5 138.74 241.87 128.62 241.17 109.1 190.39 108.69 155.14 122.75 161 128.62 161"/><polygon class="cls-67" points="155.23 17.36 162.39 66.17 166.1 66.17 161.82 34.33 168.74 38.41 172.54 85.5 174.96 90 178.41 42.5 173.49 35.25 155.23 17.36"/><polygon class="cls-113" points="13.18 0 35.66 60.75 31.46 58.5 27.56 42.7 25.41 40.83 19.02 30.33 32.33 72 31.98 76.5 29.74 79.17 31.29 85.5 26.33 83.75 7.26 14.67 5.19 15.83 5.19 25 14.52 52.95 19.55 70.59 18.84 72 8.13 34.33 0 28.17 0 0 13.18 0"/><polygon class="cls-114" points="58.78 61 64.7 56.05 66.21 58.53 60.81 64.88 61.46 66.17 67.5 60.07 76.11 70.13 65.21 93.1 64.7 91.77 74.56 71 73 68.5 61.11 82.33 58.78 61"/><polygon class="cls-115" points="247.95 131.43 249.41 197.33 252.13 202.5 252.13 163.99 254.4 161 254.4 169.67 259.32 182.19 261.05 184 266.73 143.75 269.31 145.29 269.31 218.83 269.35 230 272.55 144.5 247.95 131.43"/><polygon class="cls-116" points="259.32 232 246.88 226.84 249.47 258.25 253.62 275.5 259.32 287.34 261.05 288.01 253.96 271.36 251.56 258.33 256.79 260.45 258.77 268 253.96 271.36 269.91 293.01 259.32 232"/><polygon class="cls-116" points="249.99 223.17 254.4 226.84 258.39 227.69 249.62 216.16 249.99 223.17"/><polygon class="cls-116" points="259.32 222.1 256.36 216.16 259.32 204.46 259.32 222.1"/><polygon class="cls-116" points="199.25 169.67 202.31 179.25 206.83 180.72 199.25 169.67"/><polygon class="cls-116" points="145.23 253.3 149.89 270.17 148.93 259.93 145.23 253.3"/><polygon class="cls-116" points="77.8 161 86.09 172 89.22 172 77.8 161"/><polygon class="cls-116" points="136.58 137 145.23 129.25 143.5 133.13 143.5 136.13 136.58 137"/><polygon class="cls-116" points="168.74 153 169.53 151.67 172.4 151.67 172.4 159.38 170.57 157.47 168.74 153"/><polygon class="cls-116" points="173.25 161.82 174.76 166.5 175.98 164.83 173.25 161.82"/><polygon class="cls-117" points="199.25 102.17 199.12 107.24 202.31 112.97 199.25 102.17"/><polygon class="cls-117" points="180.49 83.28 185.37 79 189.43 78.33 189.35 81.14 180.49 83.28"/><polygon class="cls-117" points="86.09 311.33 94.41 292.88 92.56 306.42 86.09 311.33"/><polygon class="cls-117" points="83.51 306.42 81.12 302.1 77.8 303.5 77.8 306.42 83.51 306.42"/><polygon class="cls-117" points="111.75 327.75 112.26 324.98 116.24 332.25 111.75 332.25 111.75 327.75"/><polygon class="cls-117" points="66.56 362.03 64.31 356.18 65.44 350.62 66.56 362.03"/><polygon class="cls-116" points="58.78 166.5 69.5 177.61 76.11 183.27 81.95 184.7 58.78 166.5"/><polygon class="cls-117" points="72.96 215 70.97 192 74.08 208.85 72.96 215"/><polygon class="cls-117" points="105.49 220.02 104.08 204.81 108.69 220.02 108.69 227.04 105.49 220.02"/><polygon class="cls-117" points="101.5 270.17 111.75 275.5 106.63 275.5 101.5 270.17"/><polygon class="cls-117" points="22.56 148.93 21 172 17.83 161.82 22.56 148.93"/><polygon class="cls-117" points="20.2 146.67 22.56 137 21.38 133.13 20.2 146.67"/><polygon class="cls-118" points="24.5 353.38 25.77 362.03 31.03 360.67 24.5 353.38"/><polygon class="cls-118" points="25.41 363.33 23.67 369.32 27.88 373.67 27.88 368.5 25.41 363.33"/><polygon class="cls-119" points="66.56 188.02 64.83 198.04 68.17 202.17 66.56 188.02"/><polygon class="cls-120" points="271.69 161 269.35 206.33 269.35 230 259.32 232 265.94 279.33 275.23 311.33 275.23 329.33 289.4 351.67 332.19 347.25 332.19 340 329.86 271 332.19 266.25 329.86 246.75 319.75 216.75 311.45 200 308.07 198 300.81 200 292.52 175.75 288.63 175.75 271.69 161"/><polygon class="cls-121" points="288.63 175.75 285.51 210 285.51 221.75 283.7 233.17 288.63 220.75 291.48 193.55 292.52 175.75 288.63 175.75"/><polygon class="cls-122" points="260.07 237.33 270.47 241.17 288.11 253 299.78 275.5 299.78 275.5 303.41 260 303.41 260 290.7 245.75 269.35 230 259.32 232 260.07 237.33"/><polygon class="cls-123" points="299.59 350.62 295.76 303.5 299.78 275.5 299.78 275.5 303.41 260 303.41 260 306 221 306 215.25 300.81 200 308.07 198 311.45 200 311.45 215.5 313.52 238 322.34 248.08 329.51 258.33 332.19 266.25 329.86 271 328.48 260.83 325.71 256.67 312.92 246.33 307.56 265 308.77 280.67 307.73 315.33 308.43 349.7 299.59 350.62"/><polygon class="cls-13" points="288.11 253 283.7 282.05 288.11 297.54 295.76 303.5 299.78 275.5 289.84 256.33 288.11 253"/><polygon class="cls-13" points="299.59 350.62 289.4 351.67 282.66 340.39 277.3 290.16 282.66 287.93 288.11 301.75 295.76 310 299.59 350.62"/><polygon class="cls-13" points="312.92 246.33 307.56 265 308.43 349.7 332.19 347.25 328.48 260.83 325.71 256.67 312.92 246.33"/><polygon class="cls-13" points="311.45 200 311.45 212 313.52 238 322.34 248.08 323.76 228.67 318.93 215.1 311.45 200"/><polygon class="cls-124" points="308.43 349.7 308.08 303.5 303.41 309.5 295.76 310 299.59 350.62 308.43 349.7"/><polygon class="cls-125" points="267.82 285.83 275.23 285.83 282.66 287.93 288.11 301.75 295.76 310 295.76 303.5 288.11 297.54 284.64 285.35 277.3 284.94 273.41 283.5 266.73 282.05 267.82 285.83"/><polygon class="cls-126" points="270.47 241.17 279.29 237.33 269.35 230 259.32 232 260.07 237.33 270.47 241.17"/><polygon class="cls-127" points="285.51 210 290.03 207.36 291.57 191.95 287.3 190.39 285.51 210"/><polygon class="cls-22" points="263.98 265.34 286 269.09 298.25 286.13 308.43 284.53 330.32 294.92 330.5 298.25 308.57 287.26 297.67 290.16 285.51 273.17 265 272.64 263.98 265.34"/><polygon class="cls-22" points="262.42 254.16 287.6 256.33 299.47 277.62 308.37 275.5 330.11 279.29 330.22 281.79 308.43 277.52 299.24 279.21 287.06 259.93 262.83 257.12 262.42 254.16"/><polygon class="cls-128" points="297.44 366.75 275.23 329.33 275.23 311.33 272.44 301.75 269.91 293.01 253.62 275.5 246.18 267 210.57 237.33 191.21 228.67 138.36 196.28 131.04 145.29 131.04 145.29 136.58 116.33 104.08 97.5 104.08 85.5 86.09 82.33 34.4 16.18 25.41 0 0 0 0 384 97.16 380.11 145.23 378.18 294.07 368.75 297.44 366.75"/><polygon class="cls-23" points="311.45 314.9 309.5 298.25 311.45 305.33 311.45 314.9"/><polygon class="cls-23" points="312.12 310.59 312.12 318.23 313.98 316.32 312.12 310.59"/><polygon class="cls-23" points="323.76 285.2 325.99 281.79 325.99 284.53 323.76 285.2"/><polygon class="cls-23" points="315.83 252.75 314.9 256.33 314.9 260.45 315.83 252.75"/><polygon class="cls-23" points="317.6 224.04 319.87 231 319.87 225.27 317.6 224.04"/><polygon class="cls-23" points="288.54 231 291.74 224.04 290.14 230 288.54 231"/><polygon class="cls-23" points="326.51 336.15 327.67 346.9 330.08 346.49 326.51 336.15"/><polygon class="cls-23" points="290.14 344 291.74 338.64 291.74 342.84 290.14 344"/><polygon class="cls-129" points="465.35 346.73 417.72 339.61 372.12 338.64 372.12 341.37 289.4 351.67 297.44 366.75 294.07 368.75 0 384 0 400 470.25 400 800 400 800 396.82 649.34 390.45 577 367.75 481.75 359.25 480.5 355.25 480.5 355.25 465.35 346.73"/><polygon class="cls-130" points="294.07 368.75 586.25 367.96 649.34 390.45 800 396.82 800 400 650 400 0 400 0 384 294.07 368.75"/><polygon class="cls-131" points="75.33 383.98 127.16 359.52 206.08 351.94 207.97 357.96 203.34 380.1 152.91 383.98 75.33 383.98"/><polygon class="cls-132" points="127.16 359.52 112.83 367.12 152.91 376.95 190.96 370.76 207.97 357.96 206.08 351.94 127.16 359.52"/><polygon class="cls-133" points="190.96 370.76 189.07 381.2 154.03 383.89 75.33 383.98 112.83 367.12 152.91 376.95 190.96 370.76"/><polygon class="cls-134" points="99.78 372.44 150.95 379.5 184.66 378.32 150.58 381.71 102.95 380.16 99.78 372.44"/><polygon class="cls-135" points="139.16 390.45 152.79 386 210.83 378.32 226.16 378.32 234.33 381.71 236.08 384.39 207.97 390.45 139.16 390.45"/><polygon class="cls-134" points="152.79 386 206.08 387.17 212.5 386 234.33 381.71 226.16 378.32 210.83 378.32 152.79 386"/><polygon class="cls-136" points="206.08 387.17 207.97 390.45 139.16 390.45 152.79 386 206.08 387.17"/><polygon class="cls-137" points="127.16 359.52 163.84 364.45 193.56 359.52 203.34 356.18 206.08 351.94 127.16 359.52"/><polygon class="cls-138" points="499.43 380.33 510.74 368.71 521.42 368.71 534 377.63 537.67 365.61 541.08 362.09 610.08 357.74 613.92 361.13 601.65 383.62 607.54 381.4 632.08 381.4 645.58 389.18 642.75 389.99 588.42 389.99 499.43 380.33"/><polygon class="cls-134" points="541.08 362.09 537.67 365.61 564.42 375.91 595.42 374.88 613.92 361.13 610.08 357.74 541.08 362.09"/><polygon class="cls-139" points="510.74 368.71 502.13 377.56 520.67 375.91 525.33 371.49 521.42 368.71 510.74 368.71"/><polygon class="cls-134" points="607.54 381.4 601.65 383.62 590.92 387.06 617.81 387.61 629.36 384.5 634.73 382.93 632.08 381.4 607.54 381.4"/><polygon class="cls-140" points="595.42 374.88 597.42 384.98 607.54 381.4 613.92 361.13 595.42 374.88"/><polygon class="cls-141" points="617.81 387.61 638.42 389.99 642.75 389.99 645.58 389.18 634.73 382.93 617.81 387.61"/><polygon class="cls-142" points="520.67 375.91 525.33 382.93 534.15 384.1 534 377.63 525.33 371.49 520.67 375.91"/><polygon class="cls-134" points="535.54 372.57 548.42 379.17 564.42 380.33 549.98 382.93 537.67 377.8 535.54 372.57"/><polygon class="cls-143" points="569.39 389.99 575.79 383.62 590.92 381.4 592.58 383.62 590.24 389.99 569.39 389.99"/><polygon class="cls-134" points="575.79 383.62 581.08 387.61 591.5 384.98 592.58 383.62 590.92 381.4 575.79 383.62"/><polygon class="cls-144" points="347.02 343.82 454.93 345.17 417.72 339.61 372.12 338.64 372.12 341.37 347.02 343.82"/><polygon class="cls-145" points="240.85 400 311.45 388.23 447.8 387.61 446 384.98 376 384.98 386.67 382.74 479.04 382.93 549.11 400 240.85 400"/><polygon class="cls-146" points="277.3 375.91 307.56 366.82 447.14 364.29 494 370.1 353 371.98 345.03 375.55 434.5 375.55 442.2 377.75 277.3 375.91"/><polygon class="cls-147" points="465.35 346.73 332.32 345.17 299.59 350.62 476.48 352.99 465.35 346.73"/><polygon class="cls-148" points="485.92 359.62 360.33 360.67 347.02 362.03 485.29 362.03 490.05 363.39 471.5 364.29 488.69 366.82 561.15 365.06 485.92 359.62"/></g></g></g></svg>