<svg xmlns="http://www.w3.org/2000/svg" xmlns:xlink="http://www.w3.org/1999/xlink" viewBox="0 0 137.1 137.1"><defs><style>.cls-1{isolation:isolate;}.cls-10,.cls-12,.cls-13,.cls-2,.cls-29,.cls-3,.cls-30,.cls-31,.cls-32,.cls-33,.cls-34,.cls-35,.cls-36,.cls-40,.cls-41,.cls-42,.cls-43,.cls-44,.cls-45,.cls-8{mix-blend-mode:screen;}.cls-2{fill:url(#Áåçûìÿííûé_ãðàäèåíò_444);}.cls-3{fill:url(#Áåçûìÿííûé_ãðàäèåíò_447);}.cls-10,.cls-11,.cls-13,.cls-14,.cls-15,.cls-16,.cls-17,.cls-18,.cls-19,.cls-20,.cls-21,.cls-22,.cls-23,.cls-24,.cls-25,.cls-26,.cls-27,.cls-28,.cls-29,.cls-30,.cls-31,.cls-32,.cls-33,.cls-34,.cls-35,.cls-36,.cls-37,.cls-38,.cls-39,.cls-4,.cls-40,.cls-41,.cls-43,.cls-6,.cls-7,.cls-9{fill-rule:evenodd;}.cls-4{fill:url(#Áåçûìÿííûé_ãðàäèåíò_331);}.cls-5{mix-blend-mode:multiply;opacity:0.4;}.cls-6{fill:#b9bfe2;}.cls-7{fill:url(#Áåçûìÿííûé_ãðàäèåíò_407);}.cls-8{fill:url(#Áåçûìÿííûé_ãðàäèåíò_432);}.cls-9{fill:url(#Áåçûìÿííûé_ãðàäèåíò_373);}.cls-10{fill:url(#Áåçûìÿííûé_ãðàäèåíò_432-2);}.cls-11{fill:url(#Áåçûìÿííûé_ãðàäèåíò_388);}.cls-12{fill:url(#Áåçûìÿííûé_ãðàäèåíò_432-3);}.cls-13{fill:url(#Áåçûìÿííûé_ãðàäèåíò_197);}.cls-14{fill:#004a59;}.cls-15{fill:url(#Áåçûìÿííûé_ãðàäèåíò_398);}.cls-16{fill:url(#Áåçûìÿííûé_ãðàäèåíò_398-2);}.cls-17{fill:#00777a;}.cls-18{fill:url(#Áåçûìÿííûé_ãðàäèåíò_398-3);}.cls-19{fill:#006d7a;}.cls-20{fill:url(#Áåçûìÿííûé_ãðàäèåíò_365);}.cls-21{fill:url(#Áåçûìÿííûé_ãðàäèåíò_365-2);}.cls-22{fill:url(#Áåçûìÿííûé_ãðàäèåíò_365-3);}.cls-23{fill:url(#Áåçûìÿííûé_ãðàäèåíò_365-4);}.cls-24{fill:url(#Áåçûìÿííûé_ãðàäèåíò_365-5);}.cls-25{fill:url(#Áåçûìÿííûé_ãðàäèåíò_365-6);}.cls-26{fill:url(#Áåçûìÿííûé_ãðàäèåíò_365-7);}.cls-27{fill:url(#Áåçûìÿííûé_ãðàäèåíò_388-2);}.cls-28{fill:url(#Áåçûìÿííûé_ãðàäèåíò_388-3);}.cls-29{fill:url(#Áåçûìÿííûé_ãðàäèåíò_415);}.cls-30{fill:url(#Áåçûìÿííûé_ãðàäèåíò_419);}.cls-31{fill:url(#Áåçûìÿííûé_ãðàäèåíò_419-2);}.cls-32{fill:url(#Áåçûìÿííûé_ãðàäèåíò_419-3);}.cls-33{fill:url(#Áåçûìÿííûé_ãðàäèåíò_419-4);}.cls-34{fill:url(#Áåçûìÿííûé_ãðàäèåíò_419-5);}.cls-35{fill:url(#Áåçûìÿííûé_ãðàäèåíò_419-6);}.cls-36{fill:url(#Áåçûìÿííûé_ãðàäèåíò_419-7);}.cls-37{fill:#ffff8d;}.cls-38{fill:url(#Áåçûìÿííûé_ãðàäèåíò_398-4);}.cls-39{fill:url(#Áåçûìÿííûé_ãðàäèåíò_365-8);}.cls-40{fill:url(#Áåçûìÿííûé_ãðàäèåíò_419-8);}.cls-41{fill:url(#Áåçûìÿííûé_ãðàäèåíò_432-4);}.cls-42{fill:url(#Áåçûìÿííûé_ãðàäèåíò_432-5);}.cls-43{fill:url(#Áåçûìÿííûé_ãðàäèåíò_432-6);}.cls-44{fill:url(#Áåçûìÿííûé_ãðàäèåíò_432-7);}.cls-45{fill:url(#Áåçûìÿííûé_ãðàäèåíò_445);}</style><radialGradient id="Áåçûìÿííûé_ãðàäèåíò_444" cx="68.55" cy="68.55" r="68.55" gradientTransform="translate(68.55 -28.4) rotate(45)" gradientUnits="userSpaceOnUse"><stop offset="0.01" stop-color="lime"/><stop offset="1"/></radialGradient><radialGradient id="Áåçûìÿííûé_ãðàäèåíò_447" cx="71.88" cy="69.86" r="53.19" gradientUnits="userSpaceOnUse"><stop offset="0.03" stop-color="#00ffa9"/><stop offset="0.15" stop-color="#00fba6"/><stop offset="0.27" stop-color="#00ef9e"/><stop offset="0.39" stop-color="#00db91"/><stop offset="0.52" stop-color="#00bf7e"/><stop offset="0.64" stop-color="#009b66"/><stop offset="0.76" stop-color="#006e49"/><stop offset="0.88" stop-color="#003b27"/><stop offset="1"/></radialGradient><radialGradient id="Áåçûìÿííûé_ãðàäèåíò_331" cx="40.47" cy="46" r="76.1" gradientUnits="userSpaceOnUse"><stop offset="0.01" stop-color="#0cc463"/><stop offset="0.21" stop-color="#0cc163"/><stop offset="0.36" stop-color="#0bb765"/><stop offset="0.5" stop-color="#09a767"/><stop offset="0.63" stop-color="#078f6b"/><stop offset="0.76" stop-color="#04726f"/><stop offset="0.87" stop-color="#004f74"/></radialGradient><linearGradient id="Áåçûìÿííûé_ãðàäèåíò_407" x1="102.21" y1="77.85" x2="102.21" y2="51.32" gradientUnits="userSpaceOnUse"><stop offset="0" stop-color="#007c6f"/><stop offset="0.66" stop-color="#29d73b"/><stop offset="0.99" stop-color="#3bff24"/></linearGradient><radialGradient id="Áåçûìÿííûé_ãðàäèåíò_432" cx="-45.36" cy="120.64" r="10.23" gradientTransform="matrix(0, 1.67, -1.25, 0, 218.57, 171.56)" gradientUnits="userSpaceOnUse"><stop offset="0" stop-color="lime"/><stop offset="1"/></radialGradient><linearGradient id="Áåçûìÿííûé_ãðàäèåíò_373" x1="22.43" y1="55.17" x2="90.58" y2="55.17" gradientUnits="userSpaceOnUse"><stop offset="0.01" stop-color="#92ff2c"/><stop offset="0.23" stop-color="#8ffc2d"/><stop offset="0.39" stop-color="#86f332"/><stop offset="0.54" stop-color="#76e33a"/><stop offset="0.67" stop-color="#5fcd44"/><stop offset="0.8" stop-color="#42b152"/><stop offset="0.91" stop-color="#1f8e63"/><stop offset="1" stop-color="#007072"/></linearGradient><radialGradient id="Áåçûìÿííûé_ãðàäèåíò_432-2" cx="-102.28" cy="47.04" r="3.92" gradientTransform="matrix(2.39, 1.38, -0.71, 1.23, 364, 129.38)" xlink:href="#Áåçûìÿííûé_ãðàäèåíò_432"/><radialGradient id="Áåçûìÿííûé_ãðàäèåíò_388" cx="102.22" cy="92.1" r="6.8" gradientUnits="userSpaceOnUse"><stop offset="0.01" stop-color="#3bff24"/><stop offset="0.53" stop-color="#26d832"/><stop offset="1" stop-color="#11b140"/></radialGradient><radialGradient id="Áåçûìÿííûé_ãðàäèåíò_432-3" cx="-69.67" cy="22.97" r="7.01" gradientTransform="matrix(0, 1.67, -1.42, 0, 132.22, 179.42)" xlink:href="#Áåçûìÿííûé_ãðàäèåíò_432"/><radialGradient id="Áåçûìÿííûé_ãðàäèåíò_197" cx="35.19" cy="35.92" r="62.36" gradientUnits="userSpaceOnUse"><stop offset="0" stop-color="#ffff4a"/><stop offset="1"/></radialGradient><radialGradient id="Áåçûìÿííûé_ãðàäèåíò_398" cx="88.87" cy="38.76" r="9.98" gradientUnits="userSpaceOnUse"><stop offset="0.02" stop-color="#b0ff24"/><stop offset="0.29" stop-color="#88f72b"/><stop offset="0.89" stop-color="#25e43d"/><stop offset="1" stop-color="#11e040"/></radialGradient><radialGradient id="Áåçûìÿííûé_ãðàäèåíò_398-2" cx="70.66" cy="45.84" r="4.06" xlink:href="#Áåçûìÿííûé_ãðàäèåíò_398"/><radialGradient id="Áåçûìÿííûé_ãðàäèåíò_398-3" cx="55.2" cy="30.65" r="6.11" xlink:href="#Áåçûìÿííûé_ãðàäèåíò_398"/><radialGradient id="Áåçûìÿííûé_ãðàäèåíò_365" cx="85.1" cy="39.96" r="14.32" gradientUnits="userSpaceOnUse"><stop offset="0.01" stop-color="#00ff24"/><stop offset="0.19" stop-color="#28ff1e"/><stop offset="0.58" stop-color="#8dff10"/><stop offset="1" stop-color="#ff0"/></radialGradient><radialGradient id="Áåçûìÿííûé_ãðàäèåíò_365-2" cx="99.49" cy="64.86" r="9.73" xlink:href="#Áåçûìÿííûé_ãðàäèåíò_365"/><radialGradient id="Áåçûìÿííûé_ãðàäèåíò_365-3" cx="107.78" cy="48.62" r="5.85" xlink:href="#Áåçûìÿííûé_ãðàäèåíò_365"/><radialGradient id="Áåçûìÿííûé_ãðàäèåíò_365-4" cx="64.28" cy="111.57" r="21.74" xlink:href="#Áåçûìÿííûé_ãðàäèåíò_365"/><radialGradient id="Áåçûìÿííûé_ãðàäèåíò_365-5" cx="103.27" cy="98.35" r="8.34" xlink:href="#Áåçûìÿííûé_ãðàäèåíò_365"/><radialGradient id="Áåçûìÿííûé_ãðàäèåíò_365-6" cx="49.33" cy="31.12" r="8.83" xlink:href="#Áåçûìÿííûé_ãðàäèåíò_365"/><radialGradient id="Áåçûìÿííûé_ãðàäèåíò_365-7" cx="65.87" cy="43.04" r="8.07" xlink:href="#Áåçûìÿííûé_ãðàäèåíò_365"/><radialGradient id="Áåçûìÿííûé_ãðàäèåíò_388-2" cx="64.59" cy="96.31" r="15.74" xlink:href="#Áåçûìÿííûé_ãðàäèåíò_388"/><radialGradient id="Áåçûìÿííûé_ãðàäèåíò_388-3" cx="106.91" cy="47.75" r="3.9" xlink:href="#Áåçûìÿííûé_ãðàäèåíò_388"/><radialGradient id="Áåçûìÿííûé_ãðàäèåíò_415" cx="36.32" cy="40.98" r="49.42" gradientUnits="userSpaceOnUse"><stop offset="0" stop-color="#97ff11"/><stop offset="1"/></radialGradient><linearGradient id="Áåçûìÿííûé_ãðàäèåíò_419" x1="77.2" y1="21.82" x2="91.26" y2="35.13" gradientUnits="userSpaceOnUse"><stop offset="0" stop-color="#ffffe8"/><stop offset="0.2" stop-color="#bba"/><stop offset="0.42" stop-color="#79796e"/><stop offset="0.61" stop-color="#45453f"/><stop offset="0.78" stop-color="#1f1f1d"/><stop offset="0.91" stop-color="#080808"/><stop offset="1"/></linearGradient><linearGradient id="Áåçûìÿííûé_ãðàäèåíò_419-2" x1="43.24" y1="22.77" x2="47.51" y2="26.82" xlink:href="#Áåçûìÿííûé_ãðàäèåíò_419"/><linearGradient id="Áåçûìÿííûé_ãðàäèåíò_419-3" x1="61.88" y1="33.66" x2="69.88" y2="41.24" xlink:href="#Áåçûìÿííûé_ãðàäèåíò_419"/><linearGradient id="Áåçûìÿííûé_ãðàäèåíò_419-4" x1="99.1" y1="52.22" x2="110.65" y2="63.17" xlink:href="#Áåçûìÿííûé_ãðàäèåíò_419"/><linearGradient id="Áåçûìÿííûé_ãðàäèåíò_419-5" x1="106.45" y1="40.22" x2="114.41" y2="47.76" xlink:href="#Áåçûìÿííûé_ãðàäèåíò_419"/><linearGradient id="Áåçûìÿííûé_ãðàäèåíò_419-6" x1="101.1" y1="90.05" x2="108.64" y2="97.2" xlink:href="#Áåçûìÿííûé_ãðàäèåíò_419"/><linearGradient id="Áåçûìÿííûé_ãðàäèåíò_419-7" x1="49.93" y1="89.67" x2="77.01" y2="115.33" xlink:href="#Áåçûìÿííûé_ãðàäèåíò_419"/><radialGradient id="Áåçûìÿííûé_ãðàäèåíò_398-4" cx="47.17" cy="74.55" r="7.37" gradientTransform="translate(10.28 -11.68) rotate(14.16)" xlink:href="#Áåçûìÿííûé_ãðàäèåíò_398"/><radialGradient id="Áåçûìÿííûé_ãðàäèåíò_365-8" cx="39.93" cy="86.51" r="11.58" gradientTransform="translate(10.28 -11.68) rotate(14.16)" xlink:href="#Áåçûìÿííûé_ãðàäèåíò_365"/><linearGradient id="Áåçûìÿííûé_ãðàäèåíò_419-8" x1="29.18" y1="72.23" x2="38.37" y2="80.93" gradientTransform="translate(10.28 -11.68) rotate(14.16)" xlink:href="#Áåçûìÿííûé_ãðàäèåíò_419"/><radialGradient id="Áåçûìÿííûé_ãðàäèåíò_432-4" cx="-31.91" cy="124.66" r="4.45" gradientTransform="matrix(1.62, -0.4, 0.3, 1.22, 121.31, -64.25)" xlink:href="#Áåçûìÿííûé_ãðàäèåíò_432"/><radialGradient id="Áåçûìÿííûé_ãðàäèåíò_432-5" cx="-38.62" cy="76.99" r="6.18" gradientTransform="matrix(0, 1.67, -1.25, 0, 119.3, 143.71)" xlink:href="#Áåçûìÿííûé_ãðàäèåíò_432"/><radialGradient id="Áåçûìÿííûé_ãðàäèåíò_432-6" cx="-67.7" cy="29.46" r="4.26" gradientTransform="matrix(-1.05, 1.3, -1.11, -0.9, 5.86, 138.44)" xlink:href="#Áåçûìÿííûé_ãðàäèåíò_432"/><radialGradient id="Áåçûìÿííûé_ãðàäèåíò_432-7" cx="-79.09" cy="13.59" r="7.01" gradientTransform="matrix(0, 1.67, -1.42, 0, 130, 177.78)" xlink:href="#Áåçûìÿííûé_ãðàäèåíò_432"/><radialGradient id="Áåçûìÿííûé_ãðàäèåíò_445" cx="53.76" cy="34.86" r="30.83" gradientTransform="translate(-24.52 -1.8) scale(1.38 1.32)" gradientUnits="userSpaceOnUse"><stop offset="0.01" stop-color="#0092ff"/><stop offset="0.08" stop-color="#0077d0"/><stop offset="0.17" stop-color="#005ba0"/><stop offset="0.27" stop-color="#004375"/><stop offset="0.36" stop-color="#002e51"/><stop offset="0.47" stop-color="#001d33"/><stop offset="0.57" stop-color="#00101d"/><stop offset="0.69" stop-color="#00070c"/><stop offset="0.82" stop-color="#000203"/><stop offset="1"/></radialGradient></defs><g class="cls-1"><g id="Layer_2" data-name="Layer 2"><g id="planets"><circle class="cls-2" cx="68.55" cy="68.55" r="68.55" transform="translate(-28.4 68.55) rotate(-45)"/><circle class="cls-3" cx="71.88" cy="69.86" r="53.19"/><path class="cls-4" d="M117.19,68.16a47.33,47.33,0,0,1-47.38,47.37c-.84,0-1.69,0-2.52-.07h0c-1.24-.06-2.47-.18-3.68-.33a47.07,47.07,0,0,1-24.2-10.66,48.27,48.27,0,0,1-11-13.3c-.29-.52-.57-1-.85-1.58,0,0,0,0,0,0-.29-.57-.56-1.14-.82-1.72h0a45.42,45.42,0,0,1-2.12-5.6A42.54,42.54,0,0,1,23.46,78a.06.06,0,0,1,0,0c-.21-1-.39-2-.53-3.06a46.63,46.63,0,0,1-.48-6.72c0-1.31,0-2.62.17-3.9.06-.82.15-1.63.26-2.44a46.44,46.44,0,0,1,3.79-13.23A47.42,47.42,0,0,1,69.81,20.78l1.49,0c.53,0,1.06,0,1.59.08a47.19,47.19,0,0,1,8,1.2c1.5.36,3,.78,4.41,1.28,1,.33,1.94.7,2.89,1.1.71.3,1.4.61,2.09.94l.36.17A47.47,47.47,0,0,1,103,34.33c.52.5,1,1,1.52,1.55.33.36.66.73,1,1.1.55.62,1.08,1.27,1.6,1.92a47.24,47.24,0,0,1,8.72,17.84A47.24,47.24,0,0,1,117.19,68.16Z"/><g class="cls-5"><path class="cls-6" d="M34.35,47a14.49,14.49,0,0,0-1.77,5.36,23,23,0,0,0-.23,4.39,20.34,20.34,0,0,0,1.24,4.39,11.52,11.52,0,0,0,2.78,4.71c2.27,2.24,5.47,2.28,8.16.8,1.37-.75,2.51-1.77,4-2.41,2-.89,3.88-1.73,5.26-3.51a12.5,12.5,0,0,0,2.33-6.64,12.9,12.9,0,0,0,0-4.25,12.33,12.33,0,0,0-1.3-3.32,17.68,17.68,0,0,0-1.51-2.25,6.4,6.4,0,0,0-2.8-1.89,5.17,5.17,0,0,0-2-.71,19.4,19.4,0,0,0-2.75.06,15.09,15.09,0,0,0-3,.85c-.94.31-1.91.51-2.83.89a23.43,23.43,0,0,1-2.75.94A6.57,6.57,0,0,0,34.07,46a8.73,8.73,0,0,0-.75.74C33,47.17,33.09,47.67,34.35,47Z"/><path class="cls-6" d="M51.53,67.17c.26-.87.43-2.54,1.28-3.18a3.76,3.76,0,0,1,1.24-.56,2.29,2.29,0,0,1,1.77.39c1.5.81,1.22,3.13.39,4.36-.72,1.06-2.52,2-3.67,1.14a2.84,2.84,0,0,1-1-2.86l.21,0Z"/><path class="cls-6" d="M80.08,81.57a15.78,15.78,0,0,0-.21,3.4,29,29,0,0,0,.57,2.92c.44,1.7,1.07,3.68,2.91,4.33,1.64.58,3.6,0,5.14-.6a27.68,27.68,0,0,0,5-2.19,18,18,0,0,0,4-3.63,7.39,7.39,0,0,0,1.77-4.87,14.1,14.1,0,0,0-2.54-7.64,5.91,5.91,0,0,0-7.34-2.35c-2.36.85-3.58,3.39-5.3,5.08a18.78,18.78,0,0,1-1.51,1.57,5.53,5.53,0,0,0-1.32,1.72,9.79,9.79,0,0,0-1,1.49C79.94,81.58,80.08,82.51,80.08,81.57Z"/><path class="cls-6" d="M101.8,80.06c.16-.23,1.27-2.66,2.27-2.56.48.06.86.59,1.09,1,.37.63.67,1.22.18,1.94-.63.91-3.18,1.59-3.33-.06l-.21,0Z"/><path class="cls-6" d="M63.26,29.5c.16-.22,1.27-2.65,2.27-2.55.48.06.86.59,1.09,1,.38.63.67,1.22.18,1.93-.62.92-3.17,1.6-3.33-.05l-.21,0Z"/><path class="cls-6" d="M89.56,65.21c.16-.23,1.26-2.66,2.27-2.55.48.05.86.59,1.09,1,.37.63.67,1.21.18,1.93-.63.92-3.18,1.6-3.34-.06l-.2-.05Z"/><path class="cls-6" d="M83.11,53.53c-.57,1.52-1.26,2.46-.8,3.9.23.7.33,1.43.53,2.14.39,1.38,1.46,2.21,2.42,3.19,1.28,1.29,2.41,1.69,4.12.87a9.9,9.9,0,0,0,1.56-1,4.42,4.42,0,0,0,1.52-1.77,18.34,18.34,0,0,0,.81-2.21A7.09,7.09,0,0,0,94,56.21a9.1,9.1,0,0,0-.15-2.71,11.77,11.77,0,0,0-1.48-3,8.93,8.93,0,0,0-1.92-2.28,4.94,4.94,0,0,0-2.28-.68A4.73,4.73,0,0,0,84,49.47C83,51.06,82.46,52.92,83.11,53.53Z"/><path class="cls-6" d="M79.82,62.62a7.43,7.43,0,0,0,1.05,3,1.34,1.34,0,0,1,.68-.25c0-.32.25-.43.31-.7a5.81,5.81,0,0,0,0-1,4.09,4.09,0,0,0-.37-1.52c-.16-.42-.37-1.13-.9-1-1,.18-.9,1-.75,1.53Z"/><path class="cls-6" d="M32.45,92.94A4.43,4.43,0,0,0,33,95.25a14.37,14.37,0,0,0,1.65,2c.4.42,1.14,1.31,1.83.93s.74-1.44.69-2a11.53,11.53,0,0,0-.33-1.41,4.36,4.36,0,0,0-.65-1.46c-.53-.76-1.75-2.15-2.81-1.48a1.89,1.89,0,0,0-.77.65A.83.83,0,0,0,32.45,92.94Z"/><path class="cls-6" d="M56.24,89.15a6.59,6.59,0,0,1-.36-1.37.27.27,0,0,1,.08-.37A7.66,7.66,0,0,1,56.54,86a5.76,5.76,0,0,1,1.84-2.25,3.5,3.5,0,0,1,1-.32c.35-.08.69-.21,1-.27a4.35,4.35,0,0,1,1.86.18,9.19,9.19,0,0,1,2,.7,4,4,0,0,1,1.25,1.4,3,3,0,0,1,0,3.67,6.13,6.13,0,0,1-.94.74,12.32,12.32,0,0,1-1,.73,5.74,5.74,0,0,1-1.53.39,6.1,6.1,0,0,1-2.88-.09A15.44,15.44,0,0,1,56.24,89.15Z"/></g><path class="cls-7" d="M97.35,51.32s-2.55,4.62-1.19,12.87c3,18.36,13.12,15.56,12.46,7Z"/><ellipse class="cls-8" cx="67.29" cy="95.95" rx="12.82" ry="17.05" transform="translate(-36.14 151.07) rotate(-83.01)"/><path class="cls-9" d="M90.58,25.58a3.62,3.62,0,0,0-.46.06,3,3,0,0,1-1.48-.1,8.71,8.71,0,0,0-1.06-.32c-.57-.09-1.1-.34-1.68-.42a8.64,8.64,0,0,1-1.71-.52,1.55,1.55,0,0,0-1.12,0,1.67,1.67,0,0,1-1.13-.23,6.12,6.12,0,0,0-1.33-.31c-1.2-.25-2.39-.64-3.58-.94a8.9,8.9,0,0,0-2.18-.2c-.59,0-1.13.17-1.72.17A7.39,7.39,0,0,1,72,22.64c-.4-.07-.81,0-1.21-.05a2.84,2.84,0,0,0-1.53,0,4.54,4.54,0,0,1-1.26.16,8.35,8.35,0,0,0-1.56.27,11.31,11.31,0,0,1-2.77.35,6.42,6.42,0,0,0-1.91,0c-.35.12-.52.49-.76.74a13.58,13.58,0,0,0-1.41,1.43,2.92,2.92,0,0,0-.79,1.76,5,5,0,0,0,.56,1.8c.26.57.35,1.09-.23,1.46a8.87,8.87,0,0,1-2.42,1.17,1.47,1.47,0,0,1-1.53-.14c-.17-.15-.28-.43-.49-.55s-.45,0-.69.08a15.88,15.88,0,0,1-1.77.46c-.37.06-.69.26-1,.32s-.75-.23-1.2-.13a11.4,11.4,0,0,1-1.92.45,2.91,2.91,0,0,1-1.46-.42c-.23-.13-.28-.27-.55-.19a1.54,1.54,0,0,0-.65.47c-.15.23-.21.51-.37.74s-.32.51-.46.78a12.39,12.39,0,0,1-.94,1.48c-.25.33-.42.78-.69,1.08a2.93,2.93,0,0,1-.63.4c-.49.35-1,.66-1.48,1-.92.72-1.8,1.52-2.73,2.22A11.89,11.89,0,0,1,35.57,41c-.51.21-1,.36-1.55.57a2.73,2.73,0,0,0-.61.26,4.73,4.73,0,0,0-.44.66,11.71,11.71,0,0,0-1.25,1.71,6.22,6.22,0,0,0-.46,1.13c-.18.53-.47,1-.65,1.56-.37,1.11-.44,2.28-.85,3.39a19.35,19.35,0,0,1-.88,1.83,10.07,10.07,0,0,0-.73,3.31,6.9,6.9,0,0,0,.06,2,10.32,10.32,0,0,1,.08,2.08,3.42,3.42,0,0,1-.94,2c-.43.51-1.08.71-1.55,1.17a3.66,3.66,0,0,0-1.06,1.41,5,5,0,0,0,0,.78c-.11.59-.26,1.14-.34,1.73a17.27,17.27,0,0,0-.11,2.16c0,.37,0,.75,0,1.12s.15.68.18,1a6.09,6.09,0,0,0,0,.74c.05.28.15.57.22.84.16.66.29,1.3.41,2a14.31,14.31,0,0,0,.54,1.8,17.08,17.08,0,0,1,.59,2.47c.13.63.12,1.28.21,1.91s.19,1,.21,1.54c0,.77-.16,1.54-.17,2.32a16.94,16.94,0,0,0,.82,3.9c.09.35.18.71.28,1.06A47.38,47.38,0,0,1,69.81,20.79c1,0,2,0,3.07.09A47,47,0,0,1,90.58,25.58Z"/><path class="cls-10" d="M95.06,51.37c-1.54,2.67-7,2.4-12.17-.59S74.76,43.2,76.3,40.54s7-2.4,12.17.59S96.6,48.7,95.06,51.37Z"/><path class="cls-11" d="M105.6,84.66A12.18,12.18,0,0,0,97,89.54c-3.84,4.82-3.81,9.08-3.25,10.51S105.6,84.66,105.6,84.66Z"/><ellipse class="cls-12" cx="99.55" cy="63.29" rx="9.97" ry="11.68" transform="translate(-7.56 13.86) rotate(-7.67)"/><path class="cls-13" d="M41.72,105.16A47.58,47.58,0,0,1,29.84,90.23a47.09,47.09,0,0,1-4.07-11.56v0a47.79,47.79,0,0,1-1-9.78,47.26,47.26,0,0,1,7.39-25.42,47.75,47.75,0,0,1,7-8.55,47.24,47.24,0,0,1,33-13.41c1,0,2.05,0,3.07.1a47.7,47.7,0,0,1,9.34,1.55,47.22,47.22,0,0,0-11.66-2.24c-1-.06-2-.09-3.07-.09A47.37,47.37,0,0,0,23.45,77.94v0a47.48,47.48,0,0,0,34,35.92A47.18,47.18,0,0,1,41.72,105.16Z"/><path class="cls-14" d="M101.21,103.63s-5.4,1.31-7.2-2.73,5.07-14.66,10.6-16,6.6,5.1,6.6,5.1Z"/><path class="cls-15" d="M68.55,29.41A27.37,27.37,0,0,0,78.69,42.48c12.77,9.06,18,5.8,18,5.8Z"/><path class="cls-14" d="M85.92,112s5.49-2.89,5.6-6.8S83.23,96,66.84,93.61c-15-2.16-26.49,1.14-27.24,4s3.15,10,11.11,13.51S81.84,114,85.92,112Z"/><path class="cls-16" d="M59.67,43.07S63,48.35,68.2,48.81s6.71-3.61,6.71-3.61S63.11,45.11,59.67,43.07Z"/><path class="cls-17" d="M57.47,38.88s1.81,6.79,8.84,8.59c7.73,2,10-3.09,8.88-5.86S64.93,34.59,57.47,38.88Z"/><path class="cls-18" d="M42.31,36.61s4.88.91,12-3.35,5.69-8.2,5.69-8.2Z"/><path class="cls-17" d="M40.61,33.48s-1.83,2.51,1.7,3.13S57.78,31.38,60,27,50.61,20,40.61,33.48Z"/><path class="cls-19" d="M72.24,24.28s-4.69.81-4.94,3.25,7.43,12.18,15.79,17.34S99.63,48.29,100.9,47,90,25.55,72.24,24.28Z"/><path class="cls-14" d="M105,52.15s-4.47-4.68-8-2.92C94.11,50.67,95.36,65,98.39,70.45s7,5,8.46,3.76S108.71,57,105,52.15Z"/><path class="cls-14" d="M104.74,41.61a2.07,2.07,0,0,0-2.28.88c-.91,1.31,5.4,10.31,8.06,11.37s3.18-2.75,3.18-2.75Z"/><path class="cls-20" d="M70.85,27.38C68.74,31,87.78,51.3,99.28,47.47c2.27-.76,3.5-15.69-4.17-22.77C88.73,18.81,75,20.31,70.85,27.38Z"/><path class="cls-21" d="M99.28,51.51C95.83,53,96.37,68.18,100.66,72.6s10.87-2,11.5-8.71S104.71,49.24,99.28,51.51Z"/><path class="cls-22" d="M103.7,43.34c-.21,3.09,6.44,9.75,8.49,9s4-5.6,2.62-9S104,39.55,103.7,43.34Z"/><path class="cls-23" d="M43.37,96.09c-8.89,2.29,5.88,19.78,18.52,22.08,14.77,2.69,28.22-7.29,28.47-12.79S60.05,91.8,43.37,96.09Z"/><path class="cls-24" d="M95.4,100.66c-1.64-3.9,7.76-16.19,12.12-14.74s7.2,11.61,1.33,15.78C105.35,104.18,97.1,104.74,95.4,100.66Z"/><path class="cls-25" d="M42.5,35.64c4.35,1,14.66-6.22,16.55-9.64s-7.76-7.95-14.24-4.61C40.21,23.75,38.63,34.8,42.5,35.64Z"/><path class="cls-26" d="M59.28,35.73c-4.85,2.25.64,8.62,6.23,10.46S76,44.68,75.09,41,67.89,31.74,59.28,35.73Z"/><path class="cls-27" d="M47,93.27s18.74-2.69,37.09,5C84.06,98.28,66.78,87.67,47,93.27Z"/><path class="cls-28" d="M102.46,43.41s1.24,6,6.16,9C108.62,52.44,104,47.77,102.46,43.41Z"/><path class="cls-29" d="M22.43,68.16c.22,2.41,1.41-10.61,5.72-12.7s17.39,7.27,23.42,11C65.51,75.05,81.17,65.29,85,60s-1.93-13.46-5.22-15.29S74.88,51,68.2,50.05,56.36,41.42,55.84,38.89s5.79-6.2,8.45-6.58S69.86,24.5,68,22.76,63.09,29.28,55.84,34.2c-5.2,3.53-13.28,6.66-17.58.3C38.26,34.5,20.63,48.18,22.43,68.16Z"/><path class="cls-30" d="M72.37,28.05c-.21,3.24,6.92,1.75,13.31,1.36S97,29.05,97,29.05a21.28,21.28,0,0,0-12.88-6.53C76.07,21.64,72.5,26.06,72.37,28.05Z"/><path class="cls-31" d="M41.79,32c1.94.88,2.41-5,5.06-7.71a11.66,11.66,0,0,1,5.81-3.23s-5.43-.1-8.84,1.47S40.14,31.23,41.79,32Z"/><path class="cls-32" d="M58.66,37.05A12.15,12.15,0,0,1,66,34.77a12.58,12.58,0,0,1,7.2,3s-3.16-1-5.37-.26S62.2,41.86,58.66,37.05Z"/><path class="cls-33" d="M98.9,52.44a8.56,8.56,0,0,1,8.52,2.18c4.11,3.84,4.42,7.29,4.42,7.29s-2.65-4-5.3-4.41-5.91,1.59-7.25.39S97.74,53.63,98.9,52.44Z"/><path class="cls-34" d="M104.61,42.16s.93-1.25,4-1.18a7.63,7.63,0,0,1,5.75,2.43c.74.92.32,4.06.32,4.06a7.07,7.07,0,0,0-1.52-3.73C111.91,42.54,104.58,45.44,104.61,42.16Z"/><path class="cls-35" d="M97,95.34s5.5-8.9,9.46-8.28,5.36,6.76,5.36,6.76a8,8,0,0,0-7.23-2.77A11.64,11.64,0,0,0,97,95.34Z"/><path class="cls-36" d="M41.79,98.27s7.54-3.8,22.62-1.67,23.67,7.05,23.67,7.05-15.61-3.38-24.82-1.87a15.7,15.7,0,0,0-12,9.6S39.88,106.51,41.79,98.27Z"/><path class="cls-37" d="M66.21,117.57s10.41-1.46,15.67-3.89C81.88,113.68,70.91,119.84,66.21,117.57Z"/><path class="cls-37" d="M96.73,100.9a26.36,26.36,0,0,0,9.75.88S99.93,104.3,96.73,100.9Z"/><path class="cls-37" d="M98.14,64.59s3.42,6.26,6.85,7.84C105,72.43,100.91,73.88,98.14,64.59Z"/><path class="cls-37" d="M80.8,38.88A26.86,26.86,0,0,0,97,46.71Z"/><path class="cls-37" d="M60.25,41.61a12.88,12.88,0,0,0,9.56,4.58Z"/><path class="cls-37" d="M42.31,34.76a34.69,34.69,0,0,0,13.53-5.88Z"/><path class="cls-38" d="M29.32,61.9s7.31,5.7,10.39,19.49C39.71,81.39,41.48,67.85,29.32,61.9Z"/><path class="cls-17" d="M29.51,91s5.95,2.88,9.08-.14,1.21-13.24-3.09-21-9.57-11.16-11.77-10C22.21,60.56,14.17,79.82,29.51,91Z"/><path class="cls-39" d="M24.78,61.71c-3.93-1-7,12.6-5,20,2.61,9.59,15.44,11,18.15,8.1S38.77,65.24,24.78,61.71Z"/><path class="cls-40" d="M20.6,80.66s-1.08-14,2.41-16.5S31.76,67,31.76,67a28.55,28.55,0,0,0-5.83,2.52C22.63,71.31,20.6,80.66,20.6,80.66Z"/><path class="cls-37" d="M25.25,87.46s4.63,2.52,8.07,2.79C33.32,90.25,28.82,92,25.25,87.46Z"/><path class="cls-41" d="M114.17,98.47c.73,3-1.9,6.21-5.88,7.19s-7.81-.65-8.54-3.65,1.89-6.21,5.87-7.19S113.43,95.47,114.17,98.47Z"/><ellipse class="cls-42" cx="22.76" cy="79.35" rx="7.75" ry="10.3" transform="translate(-6.38 2.12) rotate(-4.67)"/><path class="cls-43" d="M39.83,29.87c-2.61-2.11-2.72-6.29-.25-9.34s6.58-3.81,9.19-1.7,2.71,6.29.24,9.34S42.43,32,39.83,29.87Z"/><ellipse class="cls-44" cx="110.67" cy="45.95" rx="9.97" ry="11.68" transform="translate(-5.14 15.19) rotate(-7.67)"/><ellipse class="cls-45" cx="49.86" cy="44.19" rx="42.66" ry="40.68"/></g></g></g></svg>