<svg xmlns="http://www.w3.org/2000/svg" xmlns:xlink="http://www.w3.org/1999/xlink" viewBox="0 0 137.55 137.55"><defs><style>.cls-1{isolation:isolate;}.cls-10,.cls-11,.cls-12,.cls-13,.cls-14,.cls-17,.cls-18,.cls-19,.cls-2,.cls-20,.cls-21,.cls-22,.cls-23,.cls-24,.cls-25,.cls-26,.cls-27,.cls-28,.cls-3,.cls-4{mix-blend-mode:screen;}.cls-2{fill:url(#Áåçûìÿííûé_ãðàäèåíò_123);}.cls-3{fill:url(#Áåçûìÿííûé_ãðàäèåíò_131);}.cls-10,.cls-11,.cls-12,.cls-13,.cls-14,.cls-15,.cls-16,.cls-17,.cls-18,.cls-19,.cls-20,.cls-21,.cls-22,.cls-23,.cls-24,.cls-26,.cls-27,.cls-28,.cls-4,.cls-5,.cls-6,.cls-7,.cls-8,.cls-9{fill-rule:evenodd;}.cls-17,.cls-18,.cls-21,.cls-23,.cls-25,.cls-27,.cls-4{opacity:0.92;}.cls-4{fill:url(#Áåçûìÿííûé_ãðàäèåíò_256);}.cls-5{fill:url(#Áåçûìÿííûé_ãðàäèåíò_310);}.cls-6,.cls-7,.cls-8,.cls-9{mix-blend-mode:multiply;}.cls-6{opacity:0.4;fill:url(#Áåçûìÿííûé_ãðàäèåíò_271);}.cls-7,.cls-8,.cls-9{opacity:0.3;}.cls-7{fill:url(#Áåçûìÿííûé_ãðàäèåíò_9);}.cls-8{fill:url(#Áåçûìÿííûé_ãðàäèåíò_9-2);}.cls-9{fill:url(#Áåçûìÿííûé_ãðàäèåíò_9-3);}.cls-10{fill:url(#Áåçûìÿííûé_ãðàäèåíò_313);}.cls-11{fill:url(#Áåçûìÿííûé_ãðàäèåíò_254);}.cls-12,.cls-13,.cls-14{opacity:0.5;}.cls-12{fill:url(#Áåçûìÿííûé_ãðàäèåíò_796);}.cls-13{fill:url(#Áåçûìÿííûé_ãðàäèåíò_796-2);}.cls-14{fill:url(#Áåçûìÿííûé_ãðàäèåíò_796-3);}.cls-15{fill:#fff;}.cls-16{fill:#ff9aff;}.cls-17{fill:url(#Áåçûìÿííûé_ãðàäèåíò_304);}.cls-18{fill:url(#Áåçûìÿííûé_ãðàäèåíò_304-2);}.cls-19{fill:url(#Áåçûìÿííûé_ãðàäèåíò_248);}.cls-20{fill:url(#Áåçûìÿííûé_ãðàäèåíò_248-2);}.cls-21{fill:url(#Áåçûìÿííûé_ãðàäèåíò_304-3);}.cls-22{fill:url(#Áåçûìÿííûé_ãðàäèåíò_248-3);}.cls-23{fill:url(#Áåçûìÿííûé_ãðàäèåíò_272);}.cls-24{fill:url(#Áåçûìÿííûé_ãðàäèåíò_248-4);}.cls-25{fill:url(#Áåçûìÿííûé_ãðàäèåíò_619);}.cls-26{fill:url(#Áåçûìÿííûé_ãðàäèåíò_248-5);}.cls-27{fill:url(#Áåçûìÿííûé_ãðàäèåíò_619-2);}.cls-28{fill:url(#Áåçûìÿííûé_ãðàäèåíò_248-6);}</style><radialGradient id="Áåçûìÿííûé_ãðàäèåíò_123" cx="68.78" cy="68.78" r="68.78" gradientUnits="userSpaceOnUse"><stop offset="0.01" stop-color="#009bff"/><stop offset="1"/></radialGradient><radialGradient id="Áåçûìÿííûé_ãðàäèåíò_131" cx="68.78" cy="68.78" r="58.59" gradientTransform="translate(119.41 -14.27) rotate(76.37)" gradientUnits="userSpaceOnUse"><stop offset="0.01" stop-color="#0092ff"/><stop offset="0.13" stop-color="#0090fb"/><stop offset="0.26" stop-color="#0089ef"/><stop offset="0.38" stop-color="#007ddb"/><stop offset="0.51" stop-color="#006dbf"/><stop offset="0.63" stop-color="#00599b"/><stop offset="0.76" stop-color="#003f6e"/><stop offset="0.88" stop-color="#00223b"/><stop offset="1"/></radialGradient><radialGradient id="Áåçûìÿííûé_ãðàäèåíò_256" cx="68.78" cy="68.78" r="50.84" gradientUnits="userSpaceOnUse"><stop offset="0.89"/><stop offset="0.9" stop-color="#000506"/><stop offset="0.92" stop-color="#001217"/><stop offset="0.94" stop-color="#002932"/><stop offset="0.96" stop-color="#004858"/><stop offset="0.99" stop-color="#006f89"/><stop offset="1" stop-color="#008bab"/></radialGradient><radialGradient id="Áåçûìÿííûé_ãðàäèåíò_310" cx="55.35" cy="55.34" r="69.49" gradientUnits="userSpaceOnUse"><stop offset="0.01" stop-color="#00cec0"/><stop offset="0.26" stop-color="#00ccc0"/><stop offset="0.38" stop-color="#00c4c1"/><stop offset="0.48" stop-color="#00b7c2"/><stop offset="0.56" stop-color="#00a4c4"/><stop offset="0.64" stop-color="#008cc6"/><stop offset="0.71" stop-color="#006ec8"/><stop offset="0.72" stop-color="#0068c9"/><stop offset="0.74" stop-color="#0767cb"/><stop offset="0.78" stop-color="#1a66cf"/><stop offset="0.83" stop-color="#3a63d6"/><stop offset="0.88" stop-color="#6660e0"/><stop offset="0.93" stop-color="#9e5bec"/><stop offset="0.99" stop-color="#e255fc"/><stop offset="1" stop-color="#f154ff"/></radialGradient><radialGradient id="Áåçûìÿííûé_ãðàäèåíò_271" cx="74.05" cy="73.01" r="42.62" gradientUnits="userSpaceOnUse"><stop offset="0" stop-color="#1372b3"/><stop offset="1" stop-color="#fff"/></radialGradient><linearGradient id="Áåçûìÿííûé_ãðàäèåíò_9" x1="36.45" y1="84.51" x2="49.34" y2="84.51" gradientUnits="userSpaceOnUse"><stop offset="0" stop-color="#b8c2ff"/><stop offset="1" stop-color="#7d72b3"/></linearGradient><linearGradient id="Áåçûìÿííûé_ãðàäèåíò_9-2" x1="48.49" y1="91.2" x2="51.14" y2="91.2" xlink:href="#Áåçûìÿííûé_ãðàäèåíò_9"/><linearGradient id="Áåçûìÿííûé_ãðàäèåíò_9-3" x1="59.65" y1="28.4" x2="72.99" y2="28.4" xlink:href="#Áåçûìÿííûé_ãðàäèåíò_9"/><linearGradient id="Áåçûìÿííûé_ãðàäèåíò_313" x1="41.09" y1="29.92" x2="101.6" y2="72.29" gradientTransform="matrix(0.99, 0.15, -0.15, 0.99, 3.39, -9.65)" gradientUnits="userSpaceOnUse"><stop offset="0.02" stop-color="#b3ffe8"/><stop offset="0.21" stop-color="#83bbaa"/><stop offset="0.43" stop-color="#55796e"/><stop offset="0.62" stop-color="#30453f"/><stop offset="0.78" stop-color="#161f1d"/><stop offset="0.92" stop-color="#060808"/><stop offset="1"/></linearGradient><radialGradient id="Áåçûìÿííûé_ãðàäèåíò_254" cx="89.9" cy="108.71" r="29.88" gradientUnits="userSpaceOnUse"><stop offset="0" stop-color="#97e5d9"/><stop offset="0.36" stop-color="#61938c"/><stop offset="1"/></radialGradient><linearGradient id="Áåçûìÿííûé_ãðàäèåíò_796" x1="65.31" y1="86.95" x2="65.31" y2="38.04" gradientUnits="userSpaceOnUse"><stop offset="0" stop-color="#bdffe8"/><stop offset="0.2" stop-color="#8bbbaa"/><stop offset="0.42" stop-color="#5a796e"/><stop offset="0.61" stop-color="#33453f"/><stop offset="0.78" stop-color="#171f1d"/><stop offset="0.91" stop-color="#060808"/><stop offset="1"/></linearGradient><linearGradient id="Áåçûìÿííûé_ãðàäèåíò_796-2" x1="71.96" y1="101.69" x2="71.96" y2="55.85" xlink:href="#Áåçûìÿííûé_ãðàäèåíò_796"/><linearGradient id="Áåçûìÿííûé_ãðàäèåíò_796-3" x1="61.36" y1="56.95" x2="61.36" y2="26.65" xlink:href="#Áåçûìÿííûé_ãðàäèåíò_796"/><radialGradient id="Áåçûìÿííûé_ãðàäèåíò_304" cx="99.13" cy="29.5" r="15.62" gradientUnits="userSpaceOnUse"><stop offset="0.77"/><stop offset="0.79" stop-color="#060106"/><stop offset="0.8" stop-color="#170416"/><stop offset="0.82" stop-color="#320a31"/><stop offset="0.84" stop-color="#581157"/><stop offset="0.86" stop-color="#8a1b88"/><stop offset="0.89" stop-color="#c527c2"/><stop offset="0.91" stop-color="#ff32fc"/><stop offset="0.92" stop-color="#fb33fb"/><stop offset="0.93" stop-color="#ee38f7"/><stop offset="0.94" stop-color="#d93ff0"/><stop offset="0.95" stop-color="#bc49e7"/><stop offset="0.97" stop-color="#9657db"/><stop offset="0.98" stop-color="#6867cc"/><stop offset="0.99" stop-color="#327abb"/><stop offset="1" stop-color="#008bab"/></radialGradient><radialGradient id="Áåçûìÿííûé_ãðàäèåíò_304-2" cx="51.96" cy="112.84" r="14.86" xlink:href="#Áåçûìÿííûé_ãðàäèåíò_304"/><linearGradient id="Áåçûìÿííûé_ãðàäèåíò_248" x1="91.13" y1="13.85" x2="109.17" y2="30.95" gradientUnits="userSpaceOnUse"><stop offset="0.02" stop-color="#54ffe8"/><stop offset="0.21" stop-color="#3ebbaa"/><stop offset="0.43" stop-color="#28796e"/><stop offset="0.62" stop-color="#17453f"/><stop offset="0.78" stop-color="#0a1f1d"/><stop offset="0.92" stop-color="#030808"/><stop offset="1"/></linearGradient><linearGradient id="Áåçûìÿííûé_ãðàäèåíò_248-2" x1="39.47" y1="103.67" x2="60.35" y2="123.45" xlink:href="#Áåçûìÿííûé_ãðàäèåíò_248"/><radialGradient id="Áåçûìÿííûé_ãðàäèåíò_304-3" cx="114.24" cy="50.66" r="7.04" gradientTransform="matrix(0.82, -0.17, 0.21, 0.98, 15.03, 21.76)" xlink:href="#Áåçûìÿííûé_ãðàäèåíò_304"/><linearGradient id="Áåçûìÿííûé_ãðàäèåíò_248-3" x1="114.75" y1="43.79" x2="123.09" y2="51.69" xlink:href="#Áåçûìÿííûé_ãðàäèåíò_248"/><radialGradient id="Áåçûìÿííûé_ãðàäèåíò_272" cx="38.31" cy="1.3" r="3.67" gradientTransform="matrix(0.34, -0.76, 0.91, 0.41, 64.73, 47.31)" gradientUnits="userSpaceOnUse"><stop offset="0.42"/><stop offset="0.49" stop-color="#000506"/><stop offset="0.59" stop-color="#001217"/><stop offset="0.69" stop-color="#002932"/><stop offset="0.8" stop-color="#004858"/><stop offset="0.92" stop-color="#006f89"/><stop offset="1" stop-color="#008bab"/></radialGradient><linearGradient id="Áåçûìÿííûé_ãðàäèåíò_248-4" x1="50.83" y1="17.88" x2="54.76" y2="21.6" gradientTransform="matrix(0.79, -0.61, 0.61, 0.79, 24.69, 33.24)" xlink:href="#Áåçûìÿííûé_ãðàäèåíò_248"/><radialGradient id="Áåçûìÿííûé_ãðàäèåíò_619" cx="23.42" cy="18.7" r="12.86" gradientTransform="translate(22.03 -11.63) rotate(46.86)" gradientUnits="userSpaceOnUse"><stop offset="0.77"/><stop offset="0.79" stop-color="#000506"/><stop offset="0.8" stop-color="#001217"/><stop offset="0.82" stop-color="#002932"/><stop offset="0.84" stop-color="#004858"/><stop offset="0.86" stop-color="#006f89"/><stop offset="0.87" stop-color="#008bab"/><stop offset="0.98" stop-color="#ff32fc"/></radialGradient><linearGradient id="Áåçûìÿííûé_ãðàäèåíò_248-5" x1="13.21" y1="14.61" x2="33.79" y2="14.61" xlink:href="#Áåçûìÿííûé_ãðàäèåíò_248"/><radialGradient id="Áåçûìÿííûé_ãðàäèåíò_619-2" cx="93.06" cy="124.08" r="5.99" gradientTransform="matrix(1, 0, 0, 1, 0, 0)" xlink:href="#Áåçûìÿííûé_ãðàäèåíò_619"/><linearGradient id="Áåçûìÿííûé_ãðàäèåíò_248-6" x1="88.31" y1="122.18" x2="97.89" y2="122.18" xlink:href="#Áåçûìÿííûé_ãðàäèåíò_248"/></defs><g class="cls-1"><g id="Layer_2" data-name="Layer 2"><g id="planets"><circle class="cls-2" cx="68.78" cy="68.78" r="68.78"/><circle class="cls-3" cx="68.78" cy="68.78" r="58.59" transform="translate(-14.27 119.41) rotate(-76.37)"/><path class="cls-4" d="M119.62,68.78a50.81,50.81,0,0,1-50.85,50.84,52.34,52.34,0,0,1-6.66-.43,50.39,50.39,0,0,1-18.81-6.42,49.72,49.72,0,0,1-7.16-5A50.56,50.56,0,0,1,19,79.32a.06.06,0,0,1,0,0A51.07,51.07,0,0,1,25.87,41.5a50.91,50.91,0,0,1,42.9-23.56c1.12,0,2.21,0,3.31.1a50.66,50.66,0,0,1,16.36,3.85c.89.37,1.76.77,2.63,1.19a50,50,0,0,1,10.25,6.65c1.05.87,2.07,1.79,3.05,2.75.35.34.69.7,1,1.05A50.63,50.63,0,0,1,119.62,68.78Z"/><path class="cls-5" d="M116.15,68.78a47.33,47.33,0,0,1-47.38,47.37,49,49,0,0,1-6.21-.4,45.82,45.82,0,0,1-5.51-1.06A47.32,47.32,0,0,1,22.42,78.6a.06.06,0,0,1,0,0,47.79,47.79,0,0,1-1-9.78A47.38,47.38,0,0,1,68.77,21.4c1,0,2.06,0,3.08.1A47.25,47.25,0,0,1,87.1,25.08c.83.35,1.64.72,2.45,1.11a46.84,46.84,0,0,1,9.55,6.2c1,.81,1.93,1.67,2.84,2.56.33.32.65.65,1,1A47.19,47.19,0,0,1,116.15,68.78Z"/><path class="cls-6" d="M116.15,68.78a47.33,47.33,0,0,1-47.38,47.37,49,49,0,0,1-6.21-.4,47,47,0,0,1-17.53-6c1.57-.4,3.11-.94,4.69-1.34A80.63,80.63,0,0,1,61,105.93c1.55-.18,4-.79,4-2.66,0-.53-.09-.67.24-1s.79-.17,1.24-.27c1.1-.24,2-1.38,2.68-2.18a39.36,39.36,0,0,1,3.69-3.73c2.54-2.23,5.9-3.26,7.53-6.46a11.57,11.57,0,0,0,.7-2.72,3.74,3.74,0,0,1,2-2.31c1.14-.65,2.37-.88,3.4-1.77a7.09,7.09,0,0,0,1.81-3.28c.62-1.94.52-3.9.79-5.88a30,30,0,0,0,.47-3,6.69,6.69,0,0,0-.67-2.64c-.54-1.54-1.26-3.13-1.92-4.62A4.37,4.37,0,0,0,85.83,62c-.66-.61-1.24-1.3-1.91-1.9-.47-.42-1.06-.69-1.52-1.12s-.66-.8-1-1.16a8.86,8.86,0,0,0-2-1.76c-1.88-1-3-2.93-5.19-3.31-2.68-.46-4.86-3.32-7.71-2.31-1.83.65-3.63,1.35-5.55,1.84a31,31,0,0,0-3.79.74,6,6,0,0,0-2,1.49,27,27,0,0,0-1.78,3,24.87,24.87,0,0,0-1.26,2.19c-.84,1.54-.75,3-.75,4.68a26,26,0,0,0,0,2.79A5.2,5.2,0,0,0,52.67,70c.4.51.68,1.39,1.18,1.8.26.21.5.15.78.27a4.47,4.47,0,0,1,1.06.71,10.63,10.63,0,0,0,4,2.15,10.39,10.39,0,0,1,2.25.63,6.46,6.46,0,0,0,2,.51,5.58,5.58,0,0,0,4.18-1.37,9.29,9.29,0,0,0,1.92-1.89,3,3,0,0,1,1-1,1.73,1.73,0,0,1,1-.34c.31,0,.63.44,1,.24s.45-1.06.55-1.33c.19-.48.32-1.07.54-1.53.38-.81,1-.62,1.79-.64a1.88,1.88,0,0,0,1.56-.52,2.23,2.23,0,0,0,0-1.89A11.3,11.3,0,0,0,75.64,64a8.79,8.79,0,0,1-1.06-1.37c-.61-1-.87-2.66-2.17-3a8.43,8.43,0,0,0-1.74,0A6.4,6.4,0,0,1,69,59.34a12.27,12.27,0,0,0-2.69-.5,7.9,7.9,0,0,0-3.26.79c-.46.19-.84.1-1.26.24a3.12,3.12,0,0,0-1.39,1.75,2.22,2.22,0,0,0,1.26,2.56c.34.14,1.13.2,1.38.48s.05.85-.12,1.27c-.42,1.07-.2,2.35,1.13,2.55a4.76,4.76,0,0,0,2.53-.8c.64-.32,1.67-.4,1.67-1.23-.05.39-.71.24-1,.24a2.1,2.1,0,0,1-1.58-.43,2.31,2.31,0,0,1-.75-1.34,4,4,0,0,0-.39-.77c-.11-.16-.46-.38-.52-.55-.36-1,2.55-1.4,3.11-1.46,1.22-.14,2.06.73,2.76,1.65.31.42.92,1,.89,1.51a7,7,0,0,1-.61,1.77c-.2.48-.35.94-.51,1.39s-.5.69-1,1a10,10,0,0,0-1.3,1.12,3.43,3.43,0,0,1-1.66.6c-.9.22-1.7-.26-2.61-.2-.75,0-1.4.47-2.14.52-1.56.1-2.95-.09-3.49-1.78a1.26,1.26,0,0,1,.4-1.51c.47-.49.31-.93.07-1.51a9.81,9.81,0,0,1-.72-2,7.65,7.65,0,0,1,.43-2.27c.11-.61-.19-1.46,0-2s1.23-1,1.66-1.38a11.12,11.12,0,0,1,2-1,6,6,0,0,1,2.18-.43c.67-.12,1-.64,1.63-.88a6.43,6.43,0,0,1,2.28-.12,4,4,0,0,1,1.9.61,6.24,6.24,0,0,0,2,.93c.89.1,1.81-.07,2.69,0s1.19.51,1.86,1a5.93,5.93,0,0,1,1.78,1.57c.26.36.39.8.65,1.14A4,4,0,0,1,79,62.84a16.73,16.73,0,0,1,.75,1.88,3.49,3.49,0,0,1,.21,1.15c0,.53-.27,1-.28,1.53a7.14,7.14,0,0,1-1,3.21c-.54,1.07-1,2.2-1.49,3.29-.34.74-.41,2.21-1.41,2.4a4.74,4.74,0,0,0-1.53.27c-.52.27-.59.87-1,1.25s-.88.24-1.4.24a5.34,5.34,0,0,0-2.22.44c-.87.37-1.46,1.25-2.33,1.69A11.2,11.2,0,0,1,65,81c-.55.14-1.09,0-1.65.17-1.28.38-2.35,1.22-3.59,1.68a8,8,0,0,1-3.22.49A5.48,5.48,0,0,1,55.33,83c-.64-.19-1.31-.19-2-.36a15.89,15.89,0,0,1-1.52-.5c-.51-.19-.84-.57-1.32-.79-1.11-.53-2.18-.47-3.2-1.29A42.66,42.66,0,0,0,43.56,77a4.79,4.79,0,0,1-1.32-1.41,11.44,11.44,0,0,0-1.09-1.2,7.44,7.44,0,0,1-1.23-2.13c-.52-1.25-1.14-2.37-1.58-3.66a38.26,38.26,0,0,1-1.77-5.43,20.23,20.23,0,0,1,.13-4.54,5.52,5.52,0,0,0,0-1.15c-.11-.59-.62-1-1-1.41a15.18,15.18,0,0,1-3-4.59,9.32,9.32,0,0,1-.45-5.87,7.09,7.09,0,0,1,3-3.67,29.82,29.82,0,0,1,4.38-2.53,18.25,18.25,0,0,1,2-1.1c.74-.27,1.61-.4,2.38-.61A5,5,0,0,0,45.85,37a23.25,23.25,0,0,0,1.85-1.42,5.32,5.32,0,0,1,2.15-1.5c1.25-.33,2.56-.71,3.83-1,1.57-.33,3.5.1,5.06.27a42.88,42.88,0,0,0,4.68.19c1.32,0,2.57-.21,3.88-.26.48,0,1,0,1.46,0a12.3,12.3,0,0,0,2.3-.58c1.46-.38,2.83-1.09,4.26-1.56a20.54,20.54,0,0,1,3.31-.52,32.44,32.44,0,0,1,3.65-.65c1.07,0,2.2-.45,3.16.13,1.78,1.1,2.92,3,4.69,4a40.27,40.27,0,0,0,6,2.73c.69.27,1.47-.05,2.1.19.32.12.65.62.88.89.33-.23.23-.56.24-.91,0-.5.26-.88.27-1.4a10.72,10.72,0,0,0,0-1.88,10.46,10.46,0,0,1-.47-1.46c1,.81,1.93,1.67,2.84,2.56A47.2,47.2,0,0,1,116.15,68.78Z"/><path class="cls-7" d="M37.2,83.12a14.76,14.76,0,0,0-.5,3.16c.28-.07.69.57,1,.7.56.25,1.11.17,1.62.54s1,1,1.55,1.14a4.3,4.3,0,0,0,1.19,0,11,11,0,0,1,2.22.19,9.2,9.2,0,0,0,2.6.34,3.89,3.89,0,0,0,1.81-.69,3.35,3.35,0,0,0,.65-2c.1-1.73-1.18-3.36-2.47-4.39a11.37,11.37,0,0,0-2.19-.91,13.11,13.11,0,0,0-2.66-1,7.61,7.61,0,0,0-2-.42,8.58,8.58,0,0,0-1.82.53,2.55,2.55,0,0,0-1.54.74C36.25,81.63,36.44,82.45,37.2,83.12Z"/><path class="cls-8" d="M50.59,89.18c-.3.35-3.1,2.79-1.72,3.75a4.15,4.15,0,0,0,.76.23c.43.11.5,0,.85-.18a1.61,1.61,0,0,0,.59-1.88,5.2,5.2,0,0,0-.25-.76c-.13-.27-.42-.34-.49-.66Z"/><path class="cls-9" d="M66.75,27.79a12,12,0,0,1,3-1.32c.29,0,.7.06,1,.06.68,0,1.27-.13,1.78.43s.56.85.28,1.32a5.89,5.89,0,0,1-2.07,1.53,9.62,9.62,0,0,1-5.32,1.53c-1.43-.13-2.74-1.21-4-1.85C60.58,29,58.9,28.08,60,27a5.54,5.54,0,0,1,3.58-1.46c.57,0,2-.22,2.41.12s-.05,2,1,1.91Z"/><path class="cls-10" d="M20.68,59.12c.72,9.66,23.34-6,45.21-12.92,25.69-8.16,45.16,9.65,48,8.68,4.45-1.52-13.83-36.86-43.11-36.41C37.8,19,19.52,43.54,20.68,59.12Z"/><path class="cls-11" d="M46.57,112.31s22.49,7.83,44-4,25-38.66,25-38.66-2.63,31.5-23.37,41.55S55.92,118.12,46.57,112.31Z"/><path class="cls-12" d="M18.44,75.89,20,83.26s8.83,5.17,29.3,3.27S74.68,74.61,82.67,68.78s23.49-10.42,27.54-15,.6-13.62.6-13.62L109.26,38s2.87,7.75-.57,13.5S90,59.93,81.66,67.2,56.42,80.13,42,80.23,18.44,75.89,18.44,75.89Z"/><path class="cls-13" d="M25.23,95l3.25,4.73s14.72,4.32,36.83,0S104.08,83,111.85,75.89s6.8-17,6.8-17l-.7-3a41.57,41.57,0,0,1-10,20c-8.63,9.7-23,18.5-43.7,22.13S25.23,95,25.23,95Z"/><path class="cls-14" d="M21.4,50.32s28.88,9.85,51.2,5.53,28.3-18.75,28.72-26.12l-4.09-3.08a29.81,29.81,0,0,1-14,23.75C69,59.34,32.85,54,23.15,46.34Z"/><path class="cls-15" d="M24.57,67.77c.33,1.77,4.35-.71,7.36-6.74s3.58-18.47,2-19.55S22.33,55.44,24.57,67.77Z"/><path class="cls-15" d="M79.68,114.48c-.62.71,1.7,1.56,5.15.86s8.76-4.47,8.7-5.46S84,109.59,79.68,114.48Z"/><path class="cls-15" d="M24.84,70.36c-2.09.39-2,4.46-.7,6.2s3,.92,3.13-2.65C27.33,71.71,26.57,70,24.84,70.36Z"/><path class="cls-16" d="M107.33,100s8.72-11.28,10.61-25.39C117.94,74.56,118.93,88,107.33,100Z"/><path class="cls-17" d="M83.18,20s13.2-10.68,24.15-3.09c12.29,8.5,6.28,27.86,6.28,27.86S88.24,31.45,83.18,20Z"/><path class="cls-18" d="M34.79,106.58S36.45,121.52,47.68,127c10.48,5.06,19.88-7.35,19.88-7.35S65.31,99.77,34.79,106.58Z"/><path class="cls-19" d="M85.7,19.58c2.11,2.71,9,3.41,17.43,4.29s9.64,3.29,9.64,3.29-2.69-10-10.9-11.62S85.7,19.58,85.7,19.58Z"/><path class="cls-20" d="M35.72,107.62s1.35,9.1,5,10.74,5.84-6.76,14.91-7c5.06-.11,10.61,5.81,10.61,5.81S60.81,101.05,35.72,107.62Z"/><path class="cls-16" d="M49.81,126.44a18.65,18.65,0,0,0,11.55-2.65S57.65,130.19,49.81,126.44Z"/><path class="cls-16" d="M112.17,41.43a26.68,26.68,0,0,0,1.32-11.56S117,37,112.17,41.43Z"/><path class="cls-15" d="M86.13,19.29c-.93.82,6.08.66,8.29-.82s3.1-2.33,2.52-3.23S89.46,16.36,86.13,19.29Z"/><path class="cls-15" d="M97.76,15.32c-.09-.54,2-.4,2,.13S97.92,16.35,97.76,15.32Z"/><path class="cls-15" d="M36.58,109.51c-1.38-.41.65,6.19,3.6,8.41C40.18,117.92,40.61,110.7,36.58,109.51Z"/><path class="cls-21" d="M112.83,45.43s6.43-3.78,9.75.68c4.71,6.33-3.61,13-3.61,13A14.87,14.87,0,0,1,112.83,45.43Z"/><path class="cls-22" d="M113.4,45.47c-2.54.76,4.8,2.28,7.33,3.54S123,51.79,123,51.79,124.39,42.19,113.4,45.47Z"/><path class="cls-16" d="M118.4,57.66s2.26-1.06,3.9-4.7C122.3,53,122.92,56.86,118.4,57.66Z"/><path class="cls-15" d="M114.41,45.61c-.67.87,3.19.74,3.53-.17S115.23,44.56,114.41,45.61Z"/><path class="cls-15" d="M112.77,47.64s.06,6,3.66,9.31C116.43,57,113.32,51.25,112.77,47.64Z"/><path class="cls-15" d="M117.11,57.66s.85,1.27,1.54,1.18C118.65,58.84,117.78,57.45,117.11,57.66Z"/><path class="cls-23" d="M74.72,18.47s1.78-3.19,4.39-3.22c3.72,0,3.94,4.95,3.94,4.95S79.1,21.73,74.72,18.47Z"/><path class="cls-24" d="M75.91,17.56c-.73,1,2.44-.52,3.75-.77s1.64.39,1.64.39S79.07,13.19,75.91,17.56Z"/><path class="cls-16" d="M82.35,20a4.34,4.34,0,0,0-.71-2.78A2,2,0,0,1,82.35,20Z"/><path class="cls-15" d="M76.33,17.32c0,.52,1.4-.63,1.27-1.07S76.33,16.7,76.33,17.32Z"/><path class="cls-15" d="M76.29,19.46s3,1.57,5.25,1.12A20.58,20.58,0,0,1,76.29,19.46Z"/><path class="cls-15" d="M82,20.52s.72,0,.87-.26C82.87,20.26,82.1,20.21,82,20.52Z"/><path class="cls-15" d="M84.85,22.91a3.91,3.91,0,0,1,2.59,3.24A4.11,4.11,0,0,1,84.85,22.91Z"/><path class="cls-15" d="M34.79,106.58a40.14,40.14,0,0,1,6.91-1.42,20.94,20.94,0,0,1,6.79,0S39,105.91,34.79,106.58Z"/><path class="cls-15" d="M58.59,107.72s5.43,4.22,7.3,7.09C65.89,114.81,65.33,111.1,58.59,107.72Z"/><path class="cls-15" d="M48,23.76a9.08,9.08,0,0,1,4.49-2.62,17,17,0,0,1,4.28-.6S51.59,24.11,48,23.76Z"/><path class="cls-15" d="M49.81,105.31s1.71-.75,2.32.31C52.13,105.62,50.27,106.22,49.81,105.31Z"/><path class="cls-16" d="M62.24,123.35s0-1.37,2.27-2.09C64.51,121.26,64.71,123.06,62.24,123.35Z"/><circle class="cls-25" cx="24.43" cy="19.6" r="12.02" transform="translate(-6.58 24.02) rotate(-46.86)"/><path class="cls-26" d="M13.3,19.78s2,3.45,8.4-1.14,9.31-7,12.09-5.85c0,0-6.13-7.14-14-3.62C12,12.61,13.3,19.78,13.3,19.78Z"/><path class="cls-16" d="M28.64,29.87s5.5-2.63,6.64-8.47C35.28,21.4,36.41,28.08,28.64,29.87Z"/><path class="cls-15" d="M13.28,17.25a9.68,9.68,0,0,1,6.24-7.49S17.14,17.31,13.28,17.25Z"/><path class="cls-15" d="M19.75,9.49c-.58-.3,1.84-1.15,3.19-1.08C22.94,8.41,20.55,9.9,19.75,9.49Z"/><path class="cls-15" d="M23,30.82s2.84-2.27,5.68-.95C28.64,29.87,26.84,31.62,23,30.82Z"/><path class="cls-27" d="M99.13,124.5a5.6,5.6,0,1,1-5.6-5.6A5.6,5.6,0,0,1,99.13,124.5Z"/><path class="cls-28" d="M88.35,124.59s.94,1.6,3.91-.54,4.34-3.28,5.63-2.72c0,0-2.85-3.32-6.54-1.68A4.65,4.65,0,0,0,88.35,124.59Z"/><path class="cls-16" d="M95.49,129.29a6.06,6.06,0,0,0,3.09-3.95S99.11,128.45,95.49,129.29Z"/><path class="cls-15" d="M88.34,123.41a4.52,4.52,0,0,1,2.9-3.49S90.14,123.44,88.34,123.41Z"/><path class="cls-15" d="M91.35,119.79c-.27-.13.86-.53,1.49-.5C92.84,119.29,91.72,120,91.35,119.79Z"/><path class="cls-15" d="M92.85,129.73a2.75,2.75,0,0,1,2.64-.44A3,3,0,0,1,92.85,129.73Z"/></g></g></g></svg>