<svg xmlns="http://www.w3.org/2000/svg" xmlns:xlink="http://www.w3.org/1999/xlink" viewBox="0 0 139.49 139.49"><defs><style>.cls-1{isolation:isolate;}.cls-17,.cls-18,.cls-19,.cls-2,.cls-20,.cls-3,.cls-4,.cls-9{mix-blend-mode:screen;}.cls-2{fill:url(#Áåçûìÿííûé_ãðàäèåíò_660);}.cls-3{fill:url(#Áåçûìÿííûé_ãðàäèåíò_638);}.cls-4{fill:url(#Áåçûìÿííûé_ãðàäèåíò_645);}.cls-11,.cls-12,.cls-13,.cls-14,.cls-16,.cls-5,.cls-6,.cls-7,.cls-9{fill-rule:evenodd;}.cls-5{fill:url(#Áåçûìÿííûé_ãðàäèåíò_163);}.cls-6{fill:#7d72b3;mix-blend-mode:multiply;opacity:0.4;}.cls-7{fill:url(#Áåçûìÿííûé_ãðàäèåíò_189);}.cls-8{opacity:0.7;}.cls-9{fill:url(#Áåçûìÿííûé_ãðàäèåíò_197);}.cls-10{mix-blend-mode:soft-light;}.cls-11{fill:#ff9f84;}.cls-12{fill:#ffef84;}.cls-13{fill:url(#Áåçûìÿííûé_ãðàäèåíò_193);}.cls-14{fill:url(#Áåçûìÿííûé_ãðàäèåíò_192);}.cls-15{fill:url(#Áåçûìÿííûé_ãðàäèåíò_193-2);}.cls-16{fill:#ffff0e;}.cls-17{fill:url(#Áåçûìÿííûé_ãðàäèåíò_199);}.cls-18{fill:url(#Áåçûìÿííûé_ãðàäèåíò_199-2);}.cls-19{fill:url(#Áåçûìÿííûé_ãðàäèåíò_199-3);}.cls-20{fill:url(#Áåçûìÿííûé_ãðàäèåíò_199-4);}</style><radialGradient id="Áåçûìÿííûé_ãðàäèåíò_660" cx="69.74" cy="69.74" r="69.74" gradientTransform="translate(120.99 -14.53) rotate(76.3)" gradientUnits="userSpaceOnUse"><stop offset="0" stop-color="#ff4000"/><stop offset="1"/></radialGradient><radialGradient id="Áåçûìÿííûé_ãðàäèåíò_638" cx="69.74" cy="69.74" r="54.78" gradientTransform="translate(127.19 -10.43) rotate(80.62)" gradientUnits="userSpaceOnUse"><stop offset="0" stop-color="#ff7300"/><stop offset="1"/></radialGradient><radialGradient id="Áåçûìÿííûé_ãðàäèåíò_645" cx="69.74" cy="69.74" r="52.27" gradientTransform="translate(30.83 -20.89) rotate(21.76)" gradientUnits="userSpaceOnUse"><stop offset="0" stop-color="#ff7900"/><stop offset="0.18" stop-color="#fc7800"/><stop offset="0.32" stop-color="#f37300"/><stop offset="0.43" stop-color="#e36c00"/><stop offset="0.54" stop-color="#cc6100"/><stop offset="0.64" stop-color="#af5300"/><stop offset="0.74" stop-color="#8c4200"/><stop offset="0.83" stop-color="#622e00"/><stop offset="0.92" stop-color="#321800"/><stop offset="1"/></radialGradient><radialGradient id="Áåçûìÿííûé_ãðàäèåíò_163" cx="40.44" cy="46.75" r="76.1" gradientUnits="userSpaceOnUse"><stop offset="0.01" stop-color="#de6863"/><stop offset="0.2" stop-color="#db6563"/><stop offset="0.35" stop-color="#d15d62"/><stop offset="0.49" stop-color="#c14f60"/><stop offset="0.62" stop-color="#a93b5e"/><stop offset="0.74" stop-color="#8b225b"/><stop offset="0.86" stop-color="#670357"/><stop offset="0.87" stop-color="#630057"/></radialGradient><linearGradient id="Áåçûìÿííûé_ãðàäèåíò_189" x1="22.4" y1="55.91" x2="90.55" y2="55.91" gradientUnits="userSpaceOnUse"><stop offset="0.01" stop-color="#ff7d85"/><stop offset="0.3" stop-color="#fc7b84"/><stop offset="0.51" stop-color="#f3757f"/><stop offset="0.7" stop-color="#e36b77"/><stop offset="0.87" stop-color="#cc5c6c"/><stop offset="1" stop-color="#b54d61"/></linearGradient><radialGradient id="Áåçûìÿííûé_ãðàäèåíò_197" cx="35.16" cy="36.67" r="62.36" gradientUnits="userSpaceOnUse"><stop offset="0" stop-color="#ffff4a"/><stop offset="1"/></radialGradient><linearGradient id="Áåçûìÿííûé_ãðàäèåíò_193" x1="22.18" y1="48.52" x2="105.88" y2="48.52" gradientUnits="userSpaceOnUse"><stop offset="0.01" stop-color="#ffb80b"/><stop offset="0.39" stop-color="#ffb60c"/><stop offset="0.58" stop-color="#feae10"/><stop offset="0.73" stop-color="#fca117"/><stop offset="0.85" stop-color="#fa8e21"/><stop offset="0.97" stop-color="#f7762e"/><stop offset="1" stop-color="#f66d33"/></linearGradient><radialGradient id="Áåçûìÿííûé_ãðàäèåíò_192" cx="29.53" cy="91.08" r="24.06" xlink:href="#Áåçûìÿííûé_ãðàäèåíò_193"/><linearGradient id="Áåçûìÿííûé_ãðàäèåíò_193-2" x1="20.57" y1="83.05" x2="118.71" y2="83.05" xlink:href="#Áåçûìÿííûé_ãðàäèåíò_193"/><radialGradient id="Áåçûìÿííûé_ãðàäèåíò_199" cx="-122.57" cy="209.84" r="10.09" gradientTransform="matrix(1.67, 0, 0, 1.07, 273.11, -158.39)" gradientUnits="userSpaceOnUse"><stop offset="0" stop-color="#ff5b00"/><stop offset="0.17" stop-color="#c54600"/><stop offset="0.4" stop-color="#802e00"/><stop offset="0.6" stop-color="#491a00"/><stop offset="0.78" stop-color="#210c00"/><stop offset="0.92" stop-color="#090300"/><stop offset="1"/></radialGradient><radialGradient id="Áåçûìÿííûé_ãðàäèåíò_199-2" cx="-141.61" cy="179.63" r="10.09" gradientTransform="matrix(0, 1.27, -1.07, 0, 226.26, 217.71)" xlink:href="#Áåçûìÿííûé_ãðàäèåíò_199"/><radialGradient id="Áåçûìÿííûé_ãðàäèåíò_199-3" cx="-73.59" cy="163.84" r="9.11" gradientTransform="matrix(0, 1.27, -1.07, 0, 290.44, 165.39)" xlink:href="#Áåçûìÿííûé_ãðàäèåíò_199"/><radialGradient id="Áåçûìÿííûé_ãðàäèåíò_199-4" cx="-99.97" cy="229.06" r="9.11" gradientTransform="matrix(0, 1.27, -1.07, 0, 293.59, 238.18)" xlink:href="#Áåçûìÿííûé_ãðàäèåíò_199"/></defs><g class="cls-1"><g id="Layer_2" data-name="Layer 2"><g id="planets"><circle class="cls-2" cx="69.74" cy="69.74" r="69.74" transform="translate(-14.53 120.99) rotate(-76.3)"/><circle class="cls-3" cx="69.74" cy="69.74" r="54.78" transform="translate(-10.43 127.19) rotate(-80.62)"/><circle class="cls-4" cx="69.74" cy="69.74" r="52.27" transform="translate(-20.89 30.83) rotate(-21.76)"/><path class="cls-5" d="M117.15,68.91a47.33,47.33,0,0,1-47.38,47.37c-.84,0-1.69,0-2.52-.07h0c-1.24-.06-2.47-.18-3.68-.33a47.07,47.07,0,0,1-24.2-10.66,48.27,48.27,0,0,1-11-13.3c-.29-.52-.57-1-.85-1.58,0,0,0,0,0,0-.29-.57-.56-1.14-.82-1.72h0A45.42,45.42,0,0,1,24.53,83a42.54,42.54,0,0,1-1.11-4.24.06.06,0,0,1,0,0c-.21-1-.39-2-.53-3.06a46.63,46.63,0,0,1-.48-6.72c0-1.31.05-2.62.17-3.9.06-.82.15-1.63.26-2.44a46.44,46.44,0,0,1,3.79-13.23A47.42,47.42,0,0,1,69.77,21.53l1.49,0c.53,0,1.06,0,1.59.08a47.19,47.19,0,0,1,8,1.2c1.5.36,3,.78,4.41,1.28,1,.33,1.94.7,2.89,1.1.71.3,1.4.61,2.09.94l.36.17a47.47,47.47,0,0,1,12.39,8.76c.52.5,1,1,1.52,1.55.33.36.66.73,1,1.1.55.62,1.08,1.27,1.6,1.92a47.24,47.24,0,0,1,8.72,17.84A47.24,47.24,0,0,1,117.15,68.91Z"/><path class="cls-6" d="M22.4,68.91s11.17,19.82,22,22.9,23.14,1.12,27.35,2.69,6.51,8,6.51,8l1.57.9s3.6-5.59,5.81-2.29a18.66,18.66,0,0,1,1.77-10.39C90,85,91.8,78.9,95.09,77a17.44,17.44,0,0,1,14-1c4.77,1.89,7.23,1.52,7.23,1.52l.36-2.24.36-2a13.14,13.14,0,0,1-8.23-1.62s.5.88,3.34-4.43a20.57,20.57,0,0,0,2.52-10.09l-.41-4.41s-1.53,15.29-8,19.73c0,0-14.38-3-20.46,14,0,0-1,11.35-7.06,11s-3.94-7.73-12.66-7.81-14,3.51-22.63-1.41S22.4,68.91,22.4,68.91Z"/><path class="cls-6" d="M67.25,116.21s6-8.92,12.55-8.87,9.6,2.43,14.78-.59a111.59,111.59,0,0,0,9.72-6.53,15.74,15.74,0,0,0,2.79-2.13l1.08-1.42a6.72,6.72,0,0,0-6.83.83c-3.2,2.58-9,8.45-13.58,8.42s-4.37-2.68-9.53-.6-16,9.39-16,9.39A9.43,9.43,0,0,0,67.25,116.21Z"/><path class="cls-6" d="M25,84.43,25.57,86s9.24,5.1,15.07,12.2,6.87,11.91,6.87,11.91,1-4.23-4-12.19S27.68,85.6,25,84.43Z"/><path class="cls-7" d="M90.55,26.33a3.78,3.78,0,0,0-.47.06,3,3,0,0,1-1.48-.1,9.12,9.12,0,0,0-1-.32c-.57-.1-1.11-.34-1.68-.42A8.44,8.44,0,0,1,84.16,25,1.57,1.57,0,0,0,83,25a1.68,1.68,0,0,1-1.13-.23,6,6,0,0,0-1.33-.31c-1.2-.25-2.39-.64-3.58-.94a8.86,8.86,0,0,0-2.18-.2c-.59,0-1.12.17-1.71.17A7.11,7.11,0,0,1,72,23.39c-.4-.07-.81,0-1.22-.05a2.84,2.84,0,0,0-1.53,0,4.47,4.47,0,0,1-1.25.16,8.35,8.35,0,0,0-1.56.27,11.81,11.81,0,0,1-2.77.35,6.49,6.49,0,0,0-1.92,0c-.34.12-.52.49-.75.73a16.06,16.06,0,0,0-1.42,1.44,3,3,0,0,0-.79,1.76,5.47,5.47,0,0,0,.56,1.8c.27.57.36,1.09-.23,1.46a9,9,0,0,1-2.41,1.17,1.47,1.47,0,0,1-1.53-.14c-.17-.15-.28-.43-.5-.55s-.45,0-.69.07a13.86,13.86,0,0,1-1.76.47c-.37.06-.69.26-1.05.32s-.75-.23-1.2-.13A11.74,11.74,0,0,1,48,33a2.84,2.84,0,0,1-1.45-.42c-.23-.13-.29-.27-.55-.19a1.42,1.42,0,0,0-.65.47c-.16.23-.21.51-.37.74s-.32.51-.47.78a10.3,10.3,0,0,1-.94,1.48c-.24.33-.42.78-.69,1.08a3.29,3.29,0,0,1-.62.4c-.49.35-1,.66-1.49,1-.92.72-1.79,1.52-2.73,2.22a11.45,11.45,0,0,1-2.53,1.18c-.51.21-1,.36-1.54.57a2.55,2.55,0,0,0-.61.26,4.73,4.73,0,0,0-.44.66A10,10,0,0,0,31.69,45a5.74,5.74,0,0,0-.46,1.12c-.18.54-.47,1-.65,1.57-.37,1.11-.45,2.28-.86,3.39a17.18,17.18,0,0,1-.88,1.83,10.33,10.33,0,0,0-.73,3.31,6.91,6.91,0,0,0,.07,2,11.08,11.08,0,0,1,.08,2.08,3.49,3.49,0,0,1-1,2c-.42.51-1.07.71-1.55,1.17a3.68,3.68,0,0,0-1.06,1.41,6.53,6.53,0,0,0-.05.78c-.11.59-.25,1.14-.34,1.73a17.26,17.26,0,0,0-.1,2.16c0,.37,0,.75,0,1.12s.15.68.17,1,0,.5,0,.74.16.57.22.84c.17.66.29,1.3.42,2a14.31,14.31,0,0,0,.54,1.8,20.19,20.19,0,0,1,.59,2.47c.12.63.11,1.28.2,1.91s.19,1,.22,1.53c0,.78-.17,1.55-.17,2.33a16.53,16.53,0,0,0,.82,3.9c.09.35.18.71.28,1.06A47.38,47.38,0,0,1,69.78,21.54c1,0,2,0,3.07.09A47,47,0,0,1,90.55,26.33Z"/><path class="cls-6" d="M34,42.36s10.66,9.53,24.73,9.81,19.3-.67,24-5.89,9.72-14,9.72-14A30.6,30.6,0,0,0,82.26,40.8C78.1,46.46,58.46,56.1,34,42.36Z"/><g class="cls-8"><path class="cls-6" d="M34.83,42.63a25.12,25.12,0,0,0-3.55,5.29,20.52,20.52,0,0,0-1.44,5.56c-.17,1.12-.33,2.24-.5,3.36a9.47,9.47,0,0,0-.26,3A13.68,13.68,0,0,0,30,64a22.58,22.58,0,0,0,2.35,3.66,4.47,4.47,0,0,0,3.47,1.77c.79.06,1.58-.06,2.38,0,1.1.15,2.21.35,3.3.52,2.22.36,4.71.38,6.3-1.44a20.23,20.23,0,0,0,2.72-5.06,12.27,12.27,0,0,1,3.62-4.69c1.2-.93,2.26-2,3.42-3A9.56,9.56,0,0,1,59,54.55a7,7,0,0,0,1.41-1.16,14.79,14.79,0,0,0,1.43-1.19,9.48,9.48,0,0,0,1.53-2.74,13.85,13.85,0,0,0,.69-3.06,6.69,6.69,0,0,0-.47-3c-.6-1.83-2.17-3-3.64-4.12a14.34,14.34,0,0,0-6.22-2.48,19,19,0,0,0-6.55-.12,25.78,25.78,0,0,0-6.42,1.64A15.34,15.34,0,0,0,37.22,41c-.6.52-1.34.87-1.89,1.45C34.57,43.23,33.86,44.11,34.83,42.63Z"/><path class="cls-6" d="M56.31,33.79a12.11,12.11,0,0,1,1-1.74,6.15,6.15,0,0,1,.76-.68,7.37,7.37,0,0,1,2.67-1.51,3.2,3.2,0,0,1,1.71,0,5.35,5.35,0,0,1,2,.94c.81.77.28,2.08,0,3a3.79,3.79,0,0,1-1.33,2.33,5,5,0,0,1-1.78.81,9.28,9.28,0,0,1-1.06.1,7.89,7.89,0,0,1-.85.1A2.32,2.32,0,0,1,57.6,36c-.15-.33-.23-.68-.38-1s-.2-.53-.31-.79C56.71,33.69,56.53,33.22,56.31,33.79Z"/><path class="cls-6" d="M64.14,38.84a5,5,0,0,0-.32,1.61c.24.15.33.45.57.59a1.49,1.49,0,0,0,.76.08c.48,0,.94,0,1-.58s-.38-.89-.77-1.16-.82-.67-1.13-.29Z"/><path class="cls-6" d="M70.71,46.55c-.62.44-1.28.83-1.87,1.3a11.86,11.86,0,0,0-1.91,2.09c-.72.93-1.56,1.91-1.38,3.16a4.7,4.7,0,0,0,1.54,3.1c1.1,1,2.79.95,4.07,1.57a5.87,5.87,0,0,1,2.34,2.68c.83,1.59,2.57,1.87,4.16,2.17,1,.19,2.06.34,3.1.47,1.41.17,2.8.44,4.2.58,2.58.24,5.18.84,7.78.63a15.09,15.09,0,0,0,7.52-2.78,10.68,10.68,0,0,0,4.17-6A10.89,10.89,0,0,0,103,48.27a57.35,57.35,0,0,0-5.3-7.81c-1.09-1.36-2.34-2.58-3.45-3.93a25.49,25.49,0,0,0-3.12-3.2c-2.57-2.21-5.77-4-9.22-4.22a9.4,9.4,0,0,0-3.89.6,7.23,7.23,0,0,0-2.67,1.87,18.46,18.46,0,0,0-4,7.54,9.89,9.89,0,0,0-.64,4A7.85,7.85,0,0,1,71,44.27v1.09a1.23,1.23,0,0,1-.06.55C70.78,46.21,70.49,46.51,70.71,46.55Z"/><path class="cls-6" d="M59.84,55.89a11.78,11.78,0,0,0-3.68,2.64c-.18.22-.43.47-.34.77a1.22,1.22,0,0,0,.76.64,5.89,5.89,0,0,0,3.26.42,4.43,4.43,0,0,0,2.73-1.7c.66-1.1-.08-2.86-1.46-2.77a5.27,5.27,0,0,0-.57.14c-.16,0-.34,0-.51,0a1,1,0,0,0-.39.11C59.48,56.2,59.26,56.39,59.84,55.89Z"/><path class="cls-6" d="M32.43,74.21A5.14,5.14,0,0,0,31,75.73a7.88,7.88,0,0,0-.64,1.86,4.1,4.1,0,0,0-.14,1.77c.13.53.38,1,.56,1.57a16.75,16.75,0,0,1,.6,2,9.28,9.28,0,0,0,.88,2.39,22.62,22.62,0,0,0,1.26,2.25,12.48,12.48,0,0,0,1.65,2c2.16,2.25,4.8,4.63,8,5a5.43,5.43,0,0,0,4.51-1.38,8.82,8.82,0,0,0,2.4-4.9,6.45,6.45,0,0,0-.74-4.43,21.19,21.19,0,0,0-2.22-3.11c-.58-.61-1.24-1.14-1.86-1.71a25,25,0,0,0-1.9-1.65c-1.18-.87-2.33-1.78-3.53-2.64a10.73,10.73,0,0,0-3.57-2,4.76,4.76,0,0,0-2.82,0,1.52,1.52,0,0,0-.88.64,2.49,2.49,0,0,0-.34.67S32.22,74.08,32.43,74.21Z"/><path class="cls-6" d="M40.9,72.06c0,.38.08.76.13,1.15l.08.37a1,1,0,0,0,.46.12,1.59,1.59,0,0,0,1.11-.4,1.17,1.17,0,0,0,.24-1.62,1.34,1.34,0,0,0-1.26-.37c-.25,0-1.31.61-.89,1Z"/><path class="cls-6" d="M104.31,61.71a3.8,3.8,0,0,1,.7-2c.46-.55.95-1.06,1.39-1.63A9.12,9.12,0,0,0,108,54.52c.26-1.12,0-2.21.49-3.29.12-.26.26-.74.53-.87a1.4,1.4,0,0,1,1,.12,6.27,6.27,0,0,1,.66.6c.34.31.64.65,1,1a10,10,0,0,1,2.43,6.6,11.35,11.35,0,0,1-.6,3.89,7.93,7.93,0,0,1-.65,1.46,3.82,3.82,0,0,1-1.33,1.29,4.61,4.61,0,0,1-5.38-.64A6.93,6.93,0,0,1,105,63a3.92,3.92,0,0,1-.6-1.37S104.34,61.59,104.31,61.71Z"/><path class="cls-6" d="M104.31,43.89c.27.93.41,1.94,1.35,2.41a2.3,2.3,0,0,0,.7.23,1,1,0,0,0,.6-.26c1-.73.42-2.41-.25-3.17a2.67,2.67,0,0,0-1.4-.75c-.25-.08-.19-.1-.4,0a.66.66,0,0,0-.35.28,1.1,1.1,0,0,0-.13.51,3,3,0,0,1-.09.4,1.26,1.26,0,0,0,.09.86Z"/><path class="cls-6" d="M96.86,82.42c-.25.63-.44,1.29-.72,1.9s-.59,1.31-.86,2a39.11,39.11,0,0,0-1.61,5.38,37.35,37.35,0,0,0-1,5.84,21.81,21.81,0,0,0-.23,3,7.54,7.54,0,0,0,.27,2.31,2.46,2.46,0,0,0,1,1.28c.59.25,1.33-.24,1.83-.49a20.81,20.81,0,0,0,5.11-3.9,37.25,37.25,0,0,0,4.29-4.59,25.1,25.1,0,0,0,1.69-2.39c.39-.7.67-1.46,1-2.19s.59-1.38.91-2.07a20.07,20.07,0,0,0,1-2.56A8.08,8.08,0,0,0,110,80.8a4.44,4.44,0,0,0-3.25-2.94,9.16,9.16,0,0,0-2.6-.35,8.25,8.25,0,0,0-2.5.61,13.07,13.07,0,0,0-2,1,4.66,4.66,0,0,0-.85.81,9.85,9.85,0,0,0-1.27,1.62,5.82,5.82,0,0,1-.57.72C96.64,82.61,96.5,83.13,96.86,82.42Z"/><path class="cls-6" d="M89.4,104.27a10.69,10.69,0,0,0-2.69,1.38A11.5,11.5,0,0,0,84,108.24c-.27.39-.8,1.05-.4,1.5a1.66,1.66,0,0,0,1.38.35,5.49,5.49,0,0,0,2-.41c.59-.25,1.13-.57,1.74-.79a4.09,4.09,0,0,0,1.8-1.1c.22-.29.35-.69.56-1a1,1,0,0,0,.19-.76,2,2,0,0,0-.54-1.11,1.57,1.57,0,0,0-1-.41,2.21,2.21,0,0,0-.56.15C88.76,104.84,88.44,105.34,89.4,104.27Z"/><path class="cls-6" d="M88.14,98.46a5.51,5.51,0,0,1-.37-2.1,4,4,0,0,1,.41-1.88c.15-.26.59-1.09.88-1.19a1.41,1.41,0,0,1,.5,0c.51.06.82.69.93,1.15a10.74,10.74,0,0,1,.05,2.27,4,4,0,0,1-.28,1.61c-.18.43-.52.43-1,.41a1.35,1.35,0,0,1-.92-.39c-.11-.09-.28-.12-.39-.21S87.92,97.83,88.14,98.46Z"/><path class="cls-6" d="M87.26,68.53a7.59,7.59,0,0,0-.11,1.58c.19,0,.39.35.64.41a1.22,1.22,0,0,0,1-.34,2.23,2.23,0,0,0,.63-2.1c-.13-.7-.94-.77-1.52-.69a1.24,1.24,0,0,0-.63.25,1.3,1.3,0,0,0-.37,1.14Z"/><path class="cls-6" d="M42,101.12a12.09,12.09,0,0,1,1-1.66,16.75,16.75,0,0,1,1.52-1.63c.66-.6,1.43-1.16,2.15-1.71a24.29,24.29,0,0,1,2-1.45,17.78,17.78,0,0,1,3.87-1.76,6.48,6.48,0,0,1,3.46-.27,6.86,6.86,0,0,1,3.23,1.74,10.84,10.84,0,0,1,2.24,2.81c1.06,2.15.65,4.47-.07,6.64a6.25,6.25,0,0,1-1.82,2.77,4,4,0,0,1-1.58.71,20.26,20.26,0,0,1-2,.45,18.17,18.17,0,0,1-8.5-.84c-1.07-.4-2.12-.88-3.15-1.38a5.36,5.36,0,0,1-2-1.64,3,3,0,0,1-.73-1.87,8.7,8.7,0,0,1,.15-.89C41.94,101.13,42.05,101.05,42,101.12Z"/><path class="cls-6" d="M63.51,102.38a6,6,0,0,0-.38,1.61c.19.11.18.43.33.6a.75.75,0,0,0,.58.32,5.33,5.33,0,0,0,.8,0c.4-.06.48-.21.68-.5a1.07,1.07,0,0,0,.26-.89,1.6,1.6,0,0,0-.28-.85,3.23,3.23,0,0,0-.47-.51c-.38-.27-.66-.11-1,.1Z"/><path class="cls-6" d="M110.24,77.75a4.79,4.79,0,0,1-1.08-1.21,1,1,0,0,0,0-.57,3.77,3.77,0,0,1-.06-1.38,2.78,2.78,0,0,1,2.4-2.14,2.94,2.94,0,0,1,2.29,1.16,4.84,4.84,0,0,1,.64,2.32,3.24,3.24,0,0,1-.5,1.93c-.27.37-.81.38-1.24.4a4.23,4.23,0,0,1-1.45-.23C110.87,77.92,110.48,77.66,110.24,77.75Z"/></g><path class="cls-9" d="M41.68,105.91A47.4,47.4,0,0,1,29.81,91a46.42,46.42,0,0,1-4.07-11.56.06.06,0,0,1,0,0,47.79,47.79,0,0,1-1-9.78,47.17,47.17,0,0,1,7.39-25.42,47.75,47.75,0,0,1,7-8.55,47.22,47.22,0,0,1,33-13.41c1,0,2.05,0,3.07.1a48,48,0,0,1,9.34,1.55,47.31,47.31,0,0,0-11.66-2.24c-1-.06-2-.09-3.07-.09A47.35,47.35,0,0,0,22.4,68.91a47.79,47.79,0,0,0,1,9.78s0,0,0,0a46.28,46.28,0,0,0,4.07,11.56A47.49,47.49,0,0,0,57.4,114.65,47.37,47.37,0,0,1,41.68,105.91Z"/><path class="cls-6" d="M27.9,63.81s26.52,10.83,40.92,10,20.52-9.11,26.27-16.64A50.07,50.07,0,0,0,103,40.54s-10.9,21-24.43,26.6l-7.79,1.58a59.23,59.23,0,0,0,6.89-6.1c2.83-3.07,13.74-7.54,14.76-11.14s.9-9.49,2.67-13.26,3.53-6.9,3.53-6.9l-4.69-.8-2.19,5.16s-.62,8.59-2.3,13.24-18.1,17.4-21.8,19.53S31.23,66.08,27.9,63.81Z"/><g class="cls-10"><path class="cls-6" d="M75.22,109.18a10.16,10.16,0,0,1,2.31-.77,1.54,1.54,0,0,1,.58.27,1.17,1.17,0,0,1,.7,1.17A2.94,2.94,0,0,1,77,111.93a2.28,2.28,0,0,1-2.72-.85c-.41-.76.63-2.15,1.76-2.17Z"/><path class="cls-11" d="M53,62c-.62,1.07-2.19,3-1.71,4.55a14.8,14.8,0,0,0,1,2c.8,1.69,2.41,3.4,4.42,2.17C58.94,69.34,58,66.83,57,65a4.49,4.49,0,0,0-1.58-1.9A6.17,6.17,0,0,0,54,62.59c-.75-.15-.22-.63-1-.55Z"/><path class="cls-12" d="M68.18,27.18a6.52,6.52,0,0,0-.05,1.65c.18,0,.31.13.49.13a1.57,1.57,0,0,0,.67-.26,1.41,1.41,0,0,0,.53-1.14,1,1,0,0,0-.44-1,.82.82,0,0,0-1.2.39Z"/><path class="cls-11" d="M58.2,78.72A6.36,6.36,0,0,1,58.72,77a2,2,0,0,1,1.05-.66,2.27,2.27,0,0,1,2.35.36,2.41,2.41,0,0,1,0,3.68,3.15,3.15,0,0,1-1.92,1,2.27,2.27,0,0,1-1.13-.13,1.88,1.88,0,0,1-.79-1,2,2,0,0,1,.29-1.78Z"/><path class="cls-11" d="M49.49,78.21c0,.53-.31,1.77.45,2,.37.12.75-.37.81-.68a2.19,2.19,0,0,0-.09-1.08c-.19-.42-.56-.72-.92-.25Z"/><path class="cls-11" d="M29.28,69a6.3,6.3,0,0,0,.56,2.82c.21.32.42.65.83.72s.55-.15.75-.41a1.75,1.75,0,0,0,.39-1.36,4.06,4.06,0,0,0-.41-1.56,3.92,3.92,0,0,0-.73-.85.83.83,0,0,0-.76-.25c-.46.05-.43.6-.51,1Z"/><path class="cls-11" d="M99.51,65.07a5.53,5.53,0,0,1,.36-1.79,1.68,1.68,0,0,1,.52-.3,1.54,1.54,0,0,1,1.37-.06,2,2,0,0,1,1,1.92,2.1,2.1,0,0,1-2,1.51,1.34,1.34,0,0,1-1.14-1.91Z"/><path class="cls-11" d="M50.8,76.32a2.85,2.85,0,0,1,.18-.89.84.84,0,0,1,.26-.15.74.74,0,0,1,.68,0,1,1,0,0,1,.52,1,1,1,0,0,1-1,.75.67.67,0,0,1-.57-.95Z"/><path class="cls-11" d="M72.38,85a3,3,0,0,1,.18-.9.84.84,0,0,1,.26-.15.74.74,0,0,1,.68,0,1,1,0,0,1,.52,1,1.07,1.07,0,0,1-1,.76.68.68,0,0,1-.57-1Z"/><path class="cls-11" d="M86.94,46.78a3,3,0,0,1,.18-.9.82.82,0,0,1,.26-.14.78.78,0,0,1,.68,0,1,1,0,0,1,.52,1,1,1,0,0,1-1,.76.67.67,0,0,1-.57-1Z"/><path class="cls-11" d="M57.25,102.21a2.63,2.63,0,0,1,.18-.89c0-.07.18-.11.26-.15a.74.74,0,0,1,.68,0,1,1,0,0,1,.52,1,1.05,1.05,0,0,1-1,.75.66.66,0,0,1-.57-.95Z"/><path class="cls-11" d="M96.35,77a4.14,4.14,0,0,0-1.59,1.31,11.81,11.81,0,0,0-.92,1.48,3.45,3.45,0,0,0-.4,1.53c.09,1.25,1.64.16,2.08-.22a3,3,0,0,0,1.21-2,2.21,2.21,0,0,0-.09-1c-.06-.13-.12-.28-.19-.41S96.18,77.39,96.35,77Z"/><path class="cls-11" d="M111.51,82.38a6.61,6.61,0,0,0-.11,1.52,3.37,3.37,0,0,0,.55,0c.25,0,.31-.16.51-.31.39-.3.68-.48.69-1s-.07-.72-.51-.85c-.19-.06-.28-.14-.49-.08a1.43,1.43,0,0,0-.89.86Z"/><path class="cls-12" d="M71.25,27.44a5.1,5.1,0,0,0-.08,1,2.41,2.41,0,0,0,.38,0c.17,0,.21-.11.34-.21s.46-.33.47-.69,0-.49-.34-.58c-.13,0-.19-.09-.34,0a1,1,0,0,0-.6.58Z"/><path class="cls-12" d="M96.92,66.09a3.89,3.89,0,0,0-.08,1,2.28,2.28,0,0,0,.37,0c.17,0,.22-.11.35-.21s.46-.33.47-.69,0-.49-.34-.58c-.14,0-.2-.09-.34,0a1,1,0,0,0-.61.58Z"/><path class="cls-12" d="M69.85,103a4.75,4.75,0,0,0-1,0,2.21,2.21,0,0,0,0,.37c0,.17.13.2.24.32s.37.43.74.4.48-.1.54-.4c0-.14.07-.2,0-.34a1,1,0,0,0-.64-.54Z"/><path class="cls-12" d="M48.31,62.33a4.6,4.6,0,0,0-.07,1h.37c.17,0,.21-.11.34-.21s.46-.33.47-.7,0-.48-.34-.57c-.13,0-.19-.09-.33-.05a1,1,0,0,0-.61.58Z"/><path class="cls-11" d="M69.13,99a6.61,6.61,0,0,0-.11,1.52,3.37,3.37,0,0,0,.55,0c.25,0,.31-.16.5-.31.4-.3.69-.48.7-1s-.07-.72-.51-.85c-.19-.06-.28-.14-.49-.08a1.49,1.49,0,0,0-.9.87Z"/></g><path class="cls-13" d="M42.67,67.75c15.34,2.43,14.4,6.48,32.21,1.63s30.56-31.65,30.56-31.65.89-2,.14-3.15c-.3-.46-2.64.5-2.64.5.4,8.6-11.63,26.36-25.22,31.48a32,32,0,0,1-4.28,1c-.64-.32-2.22-1.77,5.23-6.82,8.75-5.94,12.69-8.15,11.88-14.32s7-15.94,7-15.94h0s.56-2.61-.91-4.23c-1.9-2.08-6.07,0-6.07,0S89.47,38.42,74.12,45s-23.88,3.29-29.75,1.5S36.75,35,36.75,35s-5-1-6.78,2.13c-1.33,2.34.6,5.23.6,5.23s9.25,3.36,17.59,6.55,24.25.34,29.94-2.4,5.68-7.1,10.23-11.08a23,23,0,0,1,5.35-3.49s-5,7.67-4.4,13.07S86.43,50.17,78.1,59.64c-5.85,6.65-11,8.76-13.49,9.42-6.42.59-12.25-.14-20.24-2.3-12.88-3.5-20.62-9.1-20.62-9.1a1.09,1.09,0,0,0-1.55.7c-.18.53,1,2,1,2S27.32,65.33,42.67,67.75Z"/><path class="cls-14" d="M53.45,113.16s-3.77-2.36-6.62-9.65-2.46-6.82-7.76-11.42S24.53,83,24.53,83s-.62.22-.62.4c0,.95,1.09,1.06,1.09,1.06s8.61,3.69,14,9.63,11.19,16.48,7.06,15.85c0,0,.93,2.64,3.11,3.25A8.75,8.75,0,0,0,53.45,113.16Z"/><path class="cls-15" d="M91.17,77.86c1.76-1.88,3.89-4.41,12.51-4.46s13,1.85,13,1.85a3,3,0,0,0,2-2.8A3.89,3.89,0,0,0,117.14,69c-.09.72-1,5.46-8.28,2.65a12.54,12.54,0,0,0,3.15-7.2,115.59,115.59,0,0,1,2.3-11.73,3.71,3.71,0,0,0,.36-3.07c-.22-.46-1.9-.66-1.9-.66,1.45,9.67-2.21,21.32-6.19,22.66-4.83.06-10.72.9-13.39,2.66-3.28,2.17-6.57,12-8.68,18.88a19.1,19.1,0,0,1-3,5.43c-5.28,1.27-3.61-5.06-5.89-7s-6.63-.9-9.47-2-3.6-3.3-6.63-3.66-7.81,5.28-13.26,3S22.57,65,22.57,65s-1.65-.39-2,.74c-.25.88,1.81,3.16,1.81,3.16S35.09,88.06,47.21,90.55s23.12.16,26.91,3.45,4.06,8.52,4.06,8.56c-3.94,4.18-8.57,7.78-10.76,8.88a50.86,50.86,0,0,1-10,3.21,9.26,9.26,0,0,0,4.4,2.26,5.15,5.15,0,0,0,4.36-.63s-1.54-1.34.47-3c5.12-4.26,8.75-6.12,14.06-7.38,3.22-.76,4.18.7,4.64.23h0c5,1.57,8.87-2.14,13.13-5.55a20.38,20.38,0,0,1,9.71-3.9s2.83-.48,3.56-1.72-.91-2.38-.91-2.38-2.41,1-6.95,3.29-9.42,9-15,8.78c-3.06-.11-2.42-3.21-2.71-3.65,0-.22,0-.44,0-.66h0c-.09-2.25-.56-4.29-.56-5.92a5.41,5.41,0,0,1,.11-1.17C86.25,90.82,89.41,79.74,91.17,77.86ZM81.51,98.64a42.89,42.89,0,0,1-3.28,3.87ZM85.76,102a5.39,5.39,0,0,1,.09,1.55c0,.27-.08.49-.34.58s-.32.07-.47.11a6.15,6.15,0,0,1-.71.18,8.83,8.83,0,0,1-1.15,0,10.1,10.1,0,0,1-1.23,0l-.57-.1a1.87,1.87,0,0,1-.62-.14c-.41-.23-.65-.66-1-.76a2.76,2.76,0,0,1,.16-1c0-.12.08-.24.11-.36a6.25,6.25,0,0,1,.24-.6,7.7,7.7,0,0,1,.76-1.45c.15-.23.3-.46.44-.7a4.43,4.43,0,0,1,.62-.68,4.58,4.58,0,0,1,1-.83,1.63,1.63,0,0,1,1.16-.28c.36.12.51.59.65.91a5.59,5.59,0,0,1,.2.73c.08.31.22.59.29.91s.08.71.15,1.06S85.71,101.7,85.76,102Z"/><path class="cls-16" d="M31.81,36.05a25.26,25.26,0,0,0,7.63,8.36,78,78,0,0,0-3.13-9S34.5,33.68,31.81,36.05Z"/><path class="cls-16" d="M60.62,49.46s3.74-1.51,4.9-.94A27.79,27.79,0,0,1,60.62,49.46Z"/><path class="cls-16" d="M73.12,46c.68-.22,1.36-.42,2-.67a14.37,14.37,0,0,0,1.68-.8,15.46,15.46,0,0,0,2-1.3c.16-.12.35-.2.52-.32s.38-.29.57-.43.31-.3.47-.44l.49-.4c.28-.22.58-.46.84-.71s.25-.25.38-.36a1,1,0,0,1,.27-.14c0,.08-.06.29-.09.37s-.21.32-.3.49a9.81,9.81,0,0,1-.86,1,3.16,3.16,0,0,1-.68.58,11.65,11.65,0,0,1-1.09.61c-.37.2-.76.31-1.13.52a10.09,10.09,0,0,1-1,.52,5.84,5.84,0,0,0-.68.41l-.57.34-.85.49-.47.23a2.32,2.32,0,0,1-1.15.33.93.93,0,0,1-.41,0c-.06,0-.18-.06-.18-.14S73,46,73.12,46Z"/><path class="cls-16" d="M83.21,39.51a1.7,1.7,0,0,0-.45.35c0,.11-.06.23.12.22a.67.67,0,0,0,.45-.26c.07-.07.19-.28.12-.38s-.35.05-.43.12Z"/><path class="cls-16" d="M91.22,26.63a2.74,2.74,0,0,0-.43.62c-.06.17-.12.34-.19.51-.13.34-.2.68-.3,1-.2.62-.35,1.25-.6,1.85a7.33,7.33,0,0,1-.38.8c-.07.15-.17.28-.24.42s-.13.24-.18.36a2.21,2.21,0,0,1-.16.35c-.09.13-.14.26-.22.39s-.31.39-.23.53.14-.1.19-.15.29-.24.43-.38.5-.53.75-.79.18-.25.28-.37.3-.32.44-.5.46-.57.7-.84.21-.3.32-.44l.35-.36c.36-.4.74-.77,1.08-1.18a9.4,9.4,0,0,0,.77-1c.19-.28.35-.56.52-.85.07-.12.22-.4.17-.54a.54.54,0,0,0-.45-.29,2.54,2.54,0,0,0-.87,0,5.69,5.69,0,0,0-.82.29c-.25.11-.45.29-.68.41S91.1,26.66,91.22,26.63Z"/><path class="cls-16" d="M93.68,32.31a4,4,0,0,1-.29.59,4.4,4.4,0,0,0-.3.45l-.48.83a13.27,13.27,0,0,0-.87,1.5c-.09.22-.18.43-.28.63a5.49,5.49,0,0,0-.24.68,5.37,5.37,0,0,0-.15.67,1.08,1.08,0,0,0-.08.56c.18-.24.31-.5.48-.75a2.47,2.47,0,0,1,.36-.49,6,6,0,0,0,.43-.45,3,3,0,0,0,.38-.5c.1-.17.16-.34.27-.5s.18-.32.28-.47a2.81,2.81,0,0,0,.3-.57c.14-.39.28-.8.38-1.19a1.72,1.72,0,0,0,0-.64C93.89,32.51,93.65,32.09,93.68,32.31Z"/><path class="cls-16" d="M90.41,38.8c-.07.25-.17.53-.22.8,0,.06,0,.2,0,.24s.21,0,.25-.06a1,1,0,0,0,.12-.17.74.74,0,0,0,.13-.48c0-.17-.2-.32-.33-.14Z"/><path class="cls-16" d="M85.44,52.54a13,13,0,0,0-1.59,1.56c0,.06-.26.31-.2.42s.3,0,.39,0a7.38,7.38,0,0,0,.91-.42c.22-.11.43-.26.64-.39a5.87,5.87,0,0,0,1.27-1.17,2.17,2.17,0,0,0,.42-.63c0-.07.13-.26.11-.33-.08-.26-.7,0-.83.09s-.27.23-.41.34l-.33.24-.29.23C85.44,52.56,85.37,52.73,85.44,52.54Z"/><path class="cls-16" d="M83,55l-.54.26c0,.08-.22.24-.11.35s.26,0,.32,0a1,1,0,0,0,.3-.23c.1-.09.09-.13,0-.25Z"/><path class="cls-16" d="M70.77,66.72a9.9,9.9,0,0,1-1.39.88c-.57.3-1.18.53-1.74.85a27.79,27.79,0,0,1-2.71,1.27c-.15.07-1.49.59-1,.86a1.48,1.48,0,0,0,.72.11c.21,0,.41.06.62.07h.65a8.08,8.08,0,0,0,3.25-.7,4.12,4.12,0,0,0,.71-.31c.12-.09.24-.22.35-.32a2.29,2.29,0,0,0,.52-.71,2.38,2.38,0,0,0,.32-1.18.79.79,0,0,0-.17-.47C70.83,67,70.72,66.94,70.77,66.72Z"/><path class="cls-16" d="M62.94,70.06a2.44,2.44,0,0,0-.79-.32,1.26,1.26,0,0,0-.28,0,1.37,1.37,0,0,0-.69.22c-.24.24.27.43.46.47a2.38,2.38,0,0,0,.8,0c.19,0,.57-.2.57-.44h-.07Z"/><path class="cls-16" d="M77.47,67a18.32,18.32,0,0,0,2.94-1.2c.37-.19.73-.4,1.09-.62a8.09,8.09,0,0,1,.69-.44c.1,0,.69-.4.77-.23s-.54.64-.63.72a6.23,6.23,0,0,1-.78.57c-.22.16-.47.24-.7.38a10.66,10.66,0,0,1-1,.47,6.67,6.67,0,0,1-.74.29c-.2,0-.4.13-.59.17s-.3,0-.45,0S77.59,67.3,77.47,67Z"/><path class="cls-16" d="M99.79,72.53a10.87,10.87,0,0,0,1.61,0c.37,0,.74-.13,1.11-.16.74-.07,1.47-.26,2.21-.29h.88a2.44,2.44,0,0,1,.54,0,.92.92,0,0,1,.31.16c.18.2,0,.17-.11.24a2.45,2.45,0,0,1-.78.33c-.47.1-.92.23-1.4.29-.32.05-.65,0-1,.05a9.15,9.15,0,0,1-1.28.07h-1.07a4.66,4.66,0,0,1-.75-.09c-.23,0-.36,0-.55-.09S99.32,72.83,99.79,72.53Z"/><path class="cls-16" d="M111.73,73a5.39,5.39,0,0,0,1.6,0l1.12-.2a4.18,4.18,0,0,0,1.58-.64c.25-.16.77-.52,1.1-.43a.88.88,0,0,1,.57.67c0,.36-.37.65-.61.84a2.89,2.89,0,0,1-1.59.49,6.71,6.71,0,0,1-1.9-.19l-.58-.15A2.74,2.74,0,0,1,111.73,73Z"/><path class="cls-16" d="M113.15,49.6c0,.43-.31,1.5.23,1.84.29.19.43-.3.44-.52s-.2-1.14-.58-1.23Z"/><path class="cls-16" d="M23.84,59.39a5.5,5.5,0,0,0,1.41,1.54,5.41,5.41,0,0,0,1.12.58,2.75,2.75,0,0,0,1.27.15c.21,0,.27,0,.26-.25a.93.93,0,0,0-.17-.38,3.76,3.76,0,0,0-.48-.5,3.07,3.07,0,0,0-.5-.58,7.16,7.16,0,0,0-2.28-1.32c-.32-.1-.34-.14-.62,0s-.23.08-.26.34a1.38,1.38,0,0,0,.38.89Z"/><path class="cls-16" d="M24.22,68.74A30.48,30.48,0,0,0,26.69,72a26.72,26.72,0,0,0,1.73,2.38c.12.12,1.37,1.2,1.36.58a3.49,3.49,0,0,0-.44-.83,8,8,0,0,0-.7-1,8,8,0,0,1-.63-.78,4.7,4.7,0,0,0-.6-.75c-.3-.34-.46-.77-.73-1.13s-.51-.66-.75-1a2.84,2.84,0,0,0-1.17-1.16c-.14,0-.34-.2-.51-.08S24.19,69.14,24.22,68.74Z"/><path class="cls-16" d="M69.82,91a6.74,6.74,0,0,1,3-.11c.51.12,1,.27,1.53.42a2.58,2.58,0,0,1,1,.44.7.7,0,0,1-.07.93c-.3.3-1,.24-1.37.2a11.19,11.19,0,0,1-2.3-.4,4.48,4.48,0,0,1-1.39-.63C70.07,91.69,69.63,91.33,69.82,91Z"/><path class="cls-16" d="M84.35,96.65c-.54-.12-.58-1.07-.43-1.46.08-.21.22-.56.46-.66s.33.07.54.15A7.41,7.41,0,0,1,84.1,96Z"/><path class="cls-16" d="M104.31,96.27a6.84,6.84,0,0,1,2-1c.39-.11.79-.16,1.18-.28a14.06,14.06,0,0,1,1.39-.45c.17,0,.34,0,.5,0s.1-.13.31,0c.4.21.22.51,0,.72a3.2,3.2,0,0,1-1.54.73c-.35.08-.63.29-1,.39-.2.06-.42.1-.63.15A3.14,3.14,0,0,1,104.31,96.27Z"/><path class="cls-16" d="M40.64,94.63A18.87,18.87,0,0,0,42,97.26a2.21,2.21,0,0,0,.88.91c.33.14.56.2.6-.26a1.65,1.65,0,0,0-.3-.8,20.24,20.24,0,0,0-1.34-1.85,4,4,0,0,0-.64-.73c-.16-.13-.63-.28-.6.1Z"/><path class="cls-16" d="M59.21,114.84a20.54,20.54,0,0,0,3-.92,9.31,9.31,0,0,1,1.26-.24s.09-.09.14-.11a1.7,1.7,0,0,1,.39,0c.11,0,.6-.07.69,0,.4.29-.45,1.06-.63,1.25a3.62,3.62,0,0,1-2.86,1c-.52,0-1-.33-1.49-.39-.32,0-1-.15-1-.61Z"/><path class="cls-16" d="M77.53,104.1a10.1,10.1,0,0,0-2.66,2.15c-.47.66.39.52.76.38a3.63,3.63,0,0,0,.83-.43,3.85,3.85,0,0,0,.59-.55c.15-.15.34-.27.48-.44s.19-.52.36-.63a.91.91,0,0,0-.11-.22Z"/><path class="cls-16" d="M51.76,89.58c.69-.29,1.37-.54,2-.88s1.17-.65,1.78-1a6.34,6.34,0,0,1,2.53-1c.34,0,.57-.18.88,0a1.26,1.26,0,0,1,.6.44c.46.65-.45,1.28-1,1.62a7.26,7.26,0,0,1-1.17.75c-.5.22-1,.31-1.54.5a12,12,0,0,1-2.63.77A1.83,1.83,0,0,1,52,90.49a1.6,1.6,0,0,1-.5-.47C51.39,89.85,51.32,89.56,51.76,89.58Z"/><ellipse class="cls-17" cx="68.82" cy="65.86" rx="16.83" ry="10.79" transform="translate(-20.09 31.68) rotate(-22.71)"/><ellipse class="cls-18" cx="34.27" cy="38.19" rx="10.79" ry="12.8" transform="translate(-16.52 45.45) rotate(-56.23)"/><ellipse class="cls-19" cx="115.33" cy="72.1" rx="9.73" ry="11.54" transform="matrix(0.56, -0.83, 0.83, 0.56, -8.71, 127.89)"/><ellipse class="cls-20" cx="48.78" cy="111.44" rx="9.73" ry="11.54" transform="translate(-70.97 90.04) rotate(-56.23)"/></g></g></g></svg>